<svg width="180" height="180" viewBox="0 0 180 180" fill="none" xmlns="http://www.w3.org/2000/svg">
<g filter="url(#filter0_b_1251_118866)">
<circle cx="90" cy="90" r="90" fill="white" fill-opacity="0.9"/>
<circle cx="90" cy="90" r="89.25" stroke="white" stroke-width="1.5"/>
</g>
<path d="M48.904 114.416V118.064H44.728V114.416H48.904ZM50.072 119.2V113.264H43.576V120.48H44.728V119.2H50.072ZM56.104 109.744H41.944V110.928H52.92V121.504C52.92 121.84 52.808 121.952 52.456 121.968C52.088 121.984 50.776 122 49.496 121.936C49.688 122.272 49.928 122.864 50.008 123.2C51.576 123.2 52.68 123.2 53.32 122.976C53.928 122.8 54.136 122.368 54.136 121.52V110.928H56.104V109.744ZM67.24 114.416C66.792 113.328 65.768 111.76 64.712 110.592L63.656 111.12C64.664 112.288 65.688 113.92 66.12 115.024L67.24 114.416ZM64.968 117.52C63.912 117.968 62.84 118.432 61.816 118.864L61.576 109.424L60.36 109.472L60.632 119.36C59.8 119.712 59.048 120.016 58.424 120.256L58.856 121.488C60.616 120.72 63.032 119.664 65.24 118.656L64.968 117.52ZM73.272 122.256C72.456 121.072 70.76 119.296 69.336 117.856C70.456 115.712 71.064 112.992 71.448 109.568L70.152 109.44C69.448 116.352 67.752 120.224 62.264 122.24C62.552 122.48 63.048 123.024 63.208 123.264C65.704 122.224 67.448 120.832 68.696 118.944C70.056 120.384 71.544 122.064 72.28 123.168L73.272 122.256ZM78.44 121.232V118.864H86.968V121.232H78.44ZM86.968 115.424V117.744H78.44V115.424H86.968ZM86.968 111.92V114.304H78.44V111.92H86.968ZM82.456 110.784C82.728 110.176 83.016 109.456 83.256 108.768L81.896 108.592C81.768 109.216 81.512 110.08 81.272 110.784H77.256V123.248H78.44V122.352H86.968V123.168H88.2V110.784H82.456ZM99.944 121.072V117.52H104.344V121.072H99.944ZM94.456 117.52H98.76V121.072H94.456V117.52ZM98.76 112.896V116.352H94.456V112.896H98.76ZM104.344 112.896V116.352H99.944V112.896H104.344ZM99.944 111.712V108.64H98.76V111.712H93.272V123.232H94.456V122.24H104.344V123.152H105.544V111.712H99.944ZM123.432 111.92V110.832H116.84C117.112 110.192 117.32 109.536 117.512 108.864L116.36 108.608C115.832 110.608 114.888 112.56 113.72 113.808C113.992 113.968 114.504 114.336 114.696 114.544C115.32 113.84 115.88 112.928 116.36 111.92H123.432ZM113.608 115.552L112.072 116.048V112.928H113.72V111.824H112.072V108.624H110.952V111.824H108.92V112.928H110.952V116.384C110.088 116.656 109.304 116.896 108.696 117.072L109 118.208C109.592 118.016 110.248 117.824 110.952 117.584V121.728C110.952 121.968 110.872 122.032 110.664 122.032C110.488 122.032 109.848 122.032 109.176 122.016C109.32 122.352 109.48 122.832 109.512 123.136C110.536 123.152 111.144 123.104 111.512 122.912C111.912 122.72 112.072 122.4 112.072 121.744V117.216L113.768 116.656L113.608 115.552ZM117.96 122.112C116.968 122.112 116.792 121.968 116.792 121.312V117.088L118.728 116.336V120.544H119.784V115.936L121.688 115.184C121.656 116.704 121.592 118.432 121.48 119.488L122.392 119.744C122.616 118.336 122.728 116.032 122.76 114.288L122.808 114.096L121.976 113.856L121.752 114.032L119.784 114.8V112.416H118.728V115.216L116.792 115.968V113.696H115.72V116.368L114.024 117.024L114.392 118.016L115.72 117.504V121.312C115.72 122.768 116.2 123.136 117.912 123.136H121.608C123.08 123.136 123.416 122.608 123.576 120.752C123.256 120.672 122.824 120.496 122.568 120.32C122.472 121.808 122.328 122.112 121.544 122.112H117.96ZM128.424 116.256V114.304H132.376C132.456 114.976 132.552 115.632 132.68 116.256H128.424ZM132.152 111.376C132.184 112.032 132.216 112.656 132.28 113.28H128.424V111.376H132.152ZM137.656 111.376V113.28H133.448C133.384 112.672 133.352 112.032 133.32 111.376H137.656ZM133.848 116.256C133.736 115.648 133.624 114.992 133.544 114.304H137.656V116.256H133.848ZM137.288 117.488C136.664 118.256 135.832 118.928 134.856 119.488C134.552 118.864 134.296 118.128 134.088 117.312H138.84V110.336H133.288C133.288 109.792 133.288 109.232 133.288 108.656H132.088C132.088 109.232 132.104 109.792 132.12 110.336H127.256V118.256H128.424V117.312H132.904C133.144 118.336 133.448 119.248 133.832 120.048C131.64 121.088 128.904 121.76 126.104 122.16C126.328 122.416 126.664 122.96 126.792 123.232C129.464 122.768 132.136 122.08 134.376 121.008C135.304 122.4 136.552 123.216 138.248 123.216C139.64 123.216 140.104 122.592 140.344 120.304C140.024 120.208 139.608 119.968 139.336 119.744C139.192 121.568 138.984 122.08 138.264 122.08C137.096 122.08 136.152 121.504 135.416 120.448C136.6 119.776 137.624 118.96 138.424 118L137.288 117.488ZM64.136 134.296V133.224H54.28C54.52 132.776 54.728 132.312 54.936 131.864L53.768 131.528C52.936 133.544 51.56 135.592 50.088 136.872C50.392 137.048 50.888 137.384 51.144 137.576C52.008 136.712 52.888 135.56 53.672 134.296H64.136ZM58.424 143.096L58.968 142.504C58.328 141.848 57.016 141.016 55.928 140.504L55.256 141.16C56.28 141.688 57.448 142.472 58.12 143.096H53.176C53.304 142.328 53.448 141.432 53.576 140.504H61.24C61.176 141.592 61.112 142.44 61.048 143.096H58.424ZM61.384 136.968C61.352 137.912 61.32 138.728 61.288 139.48H58.552L59.24 138.776C58.6 138.2 57.368 137.464 56.328 137.016L55.656 137.688C56.696 138.136 57.88 138.904 58.504 139.48H53.704C53.832 138.632 53.944 137.784 54.056 136.968H61.384ZM64.68 140.536V139.448H62.44C62.472 138.584 62.52 137.608 62.552 136.488C62.552 136.344 62.568 135.912 62.568 135.912H53C52.888 136.984 52.712 138.216 52.552 139.448H50.136V140.536H52.392C52.184 141.88 51.96 143.176 51.784 144.136H52.424V144.152H60.92C60.824 144.648 60.712 144.952 60.6 145.08C60.44 145.272 60.296 145.304 60.008 145.304C59.704 145.32 58.968 145.304 58.152 145.24C58.312 145.512 58.44 145.912 58.456 146.184C59.24 146.232 60.04 146.248 60.504 146.216C60.984 146.168 61.32 146.024 61.624 145.64C61.8 145.384 61.96 144.952 62.088 144.152H64.136V143.096H62.216C62.296 142.424 62.344 141.576 62.408 140.536H64.68ZM66.968 138.12V139.416H81.496V138.12H66.968ZM96.568 137.432H91.272V135.896H96.568V137.432ZM96.568 139.864H91.272V138.312H96.568V139.864ZM96.568 142.312H91.272V140.744H96.568V142.312ZM90.152 134.984V143.24H97.72V134.984H93.96C94.12 134.504 94.312 133.944 94.472 133.4H98.344V132.376H89.368V133.4H93.128C93.032 133.912 92.904 134.488 92.776 134.984H90.152ZM89.48 140.12L87.176 140.904V134.568H89.304V133.464H83.896V134.568H85.976V141.304C85.064 141.592 84.232 141.864 83.56 142.072L84.04 143.192C85.608 142.648 87.704 141.896 89.688 141.176L89.48 140.12ZM91.864 143.496C91.08 144.184 89.448 144.968 88.072 145.384C88.296 145.624 88.664 145.992 88.824 146.232C90.216 145.768 91.88 144.952 92.904 144.152L91.864 143.496ZM94.504 144.2C95.592 144.776 96.984 145.656 97.656 146.248L98.6 145.528C97.864 144.936 96.456 144.088 95.384 143.56L94.504 144.2ZM109.736 135.688H112.824C112.504 137.8 112.008 139.592 111.24 141.064C110.504 139.592 109.992 137.848 109.624 135.96L109.736 135.688ZM115.096 135.688V134.568H110.104C110.36 133.704 110.6 132.76 110.792 131.816L109.608 131.608C109.176 134.008 108.456 136.28 107.384 137.944V137.384H105.208V133.896H107.976V132.744H100.664V133.896H104.056V142.808L102.424 143.16V136.296H101.336V143.4L100.392 143.592L100.616 144.776C102.6 144.328 105.432 143.656 108.056 143.016L107.944 141.944L105.208 142.568V138.504H107L106.92 138.616C107.176 138.792 107.672 139.192 107.864 139.4C108.232 138.888 108.584 138.296 108.904 137.656C109.32 139.352 109.848 140.888 110.552 142.2C109.656 143.48 108.488 144.472 106.92 145.224C107.144 145.48 107.48 145.992 107.608 146.264C109.112 145.48 110.296 144.488 111.208 143.288C112.056 144.536 113.112 145.544 114.424 146.232C114.616 145.928 114.984 145.464 115.24 145.224C113.864 144.584 112.776 143.56 111.912 142.232C112.952 140.488 113.592 138.344 114.024 135.688H115.096ZM120.744 138.52H128.456V140.184H120.744V138.52ZM120.744 135.864H128.456V137.512H120.744V135.864ZM120.744 133.24H128.456V134.872H120.744V133.24ZM127.64 144.968C126.952 144.968 126.824 144.888 126.824 144.424V141.24H129.656V132.168H119.592V141.24H121.752C121.416 143.288 120.568 144.536 117.288 145.192C117.528 145.432 117.864 145.928 117.96 146.232C121.592 145.4 122.616 143.8 123 141.24H125.624V144.44C125.624 145.736 126.024 146.088 127.528 146.088H130.104C131.448 146.088 131.8 145.512 131.944 143.192C131.608 143.112 131.096 142.92 130.84 142.712C130.776 144.68 130.648 144.968 130.008 144.968H127.64Z" fill="#052C44"/>
<path d="M94 36.5714L111.5 29L129 36.5714V52.5714L111.5 60L94 52.5714V36.5714Z" fill="#939393"/>
<path d="M51 66.5714L68.5 59L86 66.5714V82.5714L68.5 90L51 82.5714V66.5714Z" fill="#052C44"/>
<path d="M109.11 72.4006L112.756 68.4112L116.567 72.3097" stroke="#052C44" stroke-width="1.5" stroke-linecap="round" stroke-linejoin="round"/>
<path d="M112.86 69.7497C114.011 75.9796 110.625 85.0865 97.871 82.7225" stroke="#052C44" stroke-width="1.5" stroke-linecap="round" stroke-linejoin="round"/>
<path d="M69.7858 45.6882L65.8466 49.3884L62.3429 45.211" stroke="#052C44" stroke-width="1.5" stroke-linecap="round" stroke-linejoin="round"/>
<path d="M65.8429 48.0453C65.1703 41.7459 69.2393 32.9233 81.7767 36.2516" stroke="#052C44" stroke-width="1.5" stroke-linecap="round" stroke-linejoin="round"/>
<defs>
<filter id="filter0_b_1251_118866" x="-8" y="-8" width="196" height="196" filterUnits="userSpaceOnUse" color-interpolation-filters="sRGB">
<feFlood flood-opacity="0" result="BackgroundImageFix"/>
<feGaussianBlur in="BackgroundImage" stdDeviation="4"/>
<feComposite in2="SourceAlpha" operator="in" result="effect1_backgroundBlur_1251_118866"/>
<feBlend mode="normal" in="SourceGraphic" in2="effect1_backgroundBlur_1251_118866" result="shape"/>
</filter>
</defs>
</svg>
