<svg width="517" height="340" viewBox="0 0 517 340" fill="none" xmlns="http://www.w3.org/2000/svg">
<mask id="mask0_1188_80968" style="mask-type:alpha" maskUnits="userSpaceOnUse" x="0" y="0" width="517" height="340">
<rect width="517" height="340" rx="10" fill="#DEE2E6"/>
</mask>
<g mask="url(#mask0_1188_80968)">
<path d="M255.041 331.833C326.477 331.833 384.388 273.818 384.388 202.252C384.388 130.687 326.477 72.6713 255.041 72.6713C183.605 72.6713 125.694 130.687 125.694 202.252C125.694 273.818 183.605 331.833 255.041 331.833Z" fill="#FFED66" stroke="#22571A" stroke-linecap="round" stroke-linejoin="round"/>
<path d="M273.706 146.41C273.706 146.41 274.495 140.425 281.269 142.427C288.044 144.428 288.503 162.575 274.845 163.806L273.716 146.41H273.706Z" fill="#FFE1C4"/>
<path d="M323.632 49.86C323.632 33.745 310.594 20.6828 294.508 20.6828C294.258 20.6828 294.018 20.6928 293.768 20.7028C288.613 12.4751 279.491 7 269.08 7C257.83 7 248.068 13.396 243.223 22.7547C228.446 24.156 216.886 36.6277 216.886 51.8018C216.886 63.6129 223.89 73.7824 233.971 78.3666C236.588 91.7892 248.388 101.929 262.556 101.929C269.59 101.929 276.034 99.4363 281.07 95.2724C283.527 95.9431 286.115 96.3134 288.783 96.3134C304.829 96.3134 317.847 83.3112 317.907 67.2463C321.504 62.3917 323.642 56.3761 323.642 49.86H323.632Z" fill="white" stroke="#22571A" stroke-width="0.9" stroke-linecap="round" stroke-linejoin="round"/>
<path d="M292.808 30.4719L292.688 31.1526L283.426 82.1602C283.426 84.1621 277.871 85.7936 270.997 85.7936C264.123 85.7936 258.578 84.1621 258.578 82.1602L249.316 31.1526L249.196 30.4719C249.196 26.9486 258.958 24.086 270.997 24.086C283.037 24.086 292.808 26.9486 292.808 30.4719Z" fill="#71D3E6" stroke="#22571A" stroke-width="0.9" stroke-linecap="round" stroke-linejoin="round"/>
<path d="M292.808 30.4719L292.728 30.9624L288.602 59.0586C288.602 61.9113 280.719 64.2034 270.997 64.2034C261.276 64.2034 253.403 61.9013 253.403 59.0586L249.276 30.9624L249.196 30.4719C249.196 26.9486 258.958 24.086 270.997 24.086C283.037 24.086 292.808 26.9486 292.808 30.4719Z" fill="#71D3E6"/>
<path d="M259.467 62.9523C259.237 62.8922 259.018 62.8321 258.798 62.7721C257.909 62.5219 257.109 62.2416 256.41 61.9413C255.94 61.7311 255.511 61.5209 255.141 61.2907C254.032 60.6201 253.403 59.8594 253.403 59.0586L249.276 30.9624L249.196 30.4719C249.196 26.9486 258.958 24.086 270.997 24.086C283.037 24.086 292.808 26.9486 292.808 30.4719L292.728 30.9624L288.602 59.0586C288.602 61.9113 280.719 64.2034 270.997 64.2034C269.179 64.2034 267.42 64.1234 265.762 63.9732" fill="#71D3E6"/>
<path d="M259.467 62.9523C259.237 62.8922 259.018 62.8321 258.798 62.7721C257.909 62.5219 257.109 62.2416 256.41 61.9413C255.94 61.7311 255.511 61.5209 255.141 61.2907C254.032 60.6201 253.403 59.8594 253.403 59.0586L249.276 30.9624L249.196 30.4719C249.196 26.9486 258.958 24.086 270.997 24.086C283.037 24.086 292.808 26.9486 292.808 30.4719L292.728 30.9624L288.602 59.0586C288.602 61.9113 280.719 64.2034 270.997 64.2034C269.179 64.2034 267.42 64.1234 265.762 63.9732" stroke="#22571A" stroke-width="0.9" stroke-linecap="round" stroke-linejoin="round"/>
<path d="M249.196 30.4719L249.316 31.1519C249.236 30.9319 249.196 30.7019 249.196 30.4719Z" fill="#71D3E6" stroke="#22571A" stroke-width="0.9" stroke-linecap="round" stroke-linejoin="round"/>
<path d="M270.997 36.8479C283.038 36.8479 292.798 33.9932 292.798 30.4719C292.798 26.9506 283.038 24.0959 270.997 24.0959C258.957 24.0959 249.196 26.9506 249.196 30.4719C249.196 33.9932 258.957 36.8479 270.997 36.8479Z" fill="#71D3E6" stroke="#22571A" stroke-width="0.9" stroke-linecap="round" stroke-linejoin="round"/>
<path d="M283.866 27.1388C283.866 27.1388 286.914 27.9195 288.722 29.0206L283.866 27.1388Z" fill="#71D3E6"/>
<path d="M283.866 27.1388C283.866 27.1388 286.914 27.9195 288.722 29.0206" stroke="#22571A" stroke-width="0.9" stroke-linecap="round" stroke-linejoin="round"/>
<path d="M289.541 31.3627C287.772 32.4037 283.875 33.7349 277.801 34.3355" stroke="#22571A" stroke-linecap="round" stroke-linejoin="round"/>
<path d="M277.171 24.3562L267.45 28.44C267.45 28.44 267.41 28.45 267.4 28.46L267.09 28.5902H267.14C266.76 28.8104 266.521 29.0506 266.521 29.3108C266.521 30.1616 268.878 30.8523 271.776 30.8523C273.704 30.8523 275.363 30.542 276.282 30.0916L286.233 25.9177C283.725 25.197 280.628 24.6565 277.171 24.3662V24.3562Z" fill="#2C9FDC" stroke="#22571A" stroke-width="0.9" stroke-linecap="round" stroke-linejoin="round"/>
<path d="M275.922 24.3462V28.0897C275.922 28.7603 274.074 29.3008 271.776 29.3008C269.478 29.3008 267.64 28.7603 267.64 28.0897V24.3462C267.64 23.6756 269.488 23.1351 271.776 23.1351C274.064 23.1351 275.922 23.6756 275.922 24.3462Z" fill="#2C9FDC" stroke="#22571A" stroke-width="0.9" stroke-linecap="round" stroke-linejoin="round"/>
<path d="M267.64 24.3462C267.64 23.6756 269.498 23.1351 271.776 23.1351C274.054 23.1351 275.912 23.6756 275.912 24.3462" fill="#2C9FDC"/>
<path d="M267.64 24.3462C267.64 23.6756 269.498 23.1351 271.776 23.1351C274.054 23.1351 275.912 23.6756 275.912 24.3462" stroke="#22571A" stroke-width="0.9" stroke-linecap="round" stroke-linejoin="round"/>
<path d="M274.374 25.2871C273.664 25.4571 272.765 25.5571 271.786 25.5571C270.807 25.5571 269.968 25.4671 269.278 25.3071" fill="#2C9FDC"/>
<path d="M274.374 25.2871C273.664 25.4571 272.765 25.5571 271.786 25.5571C270.807 25.5571 269.968 25.4671 269.278 25.3071" stroke="#22571A" stroke-width="0.9" stroke-linecap="round" stroke-linejoin="round"/>
<path d="M270.997 34.6558C260.466 34.6558 254.222 32.5739 252.144 31.1726C251.654 30.8423 251.654 30.1116 252.144 29.7813C253.083 29.1507 254.881 28.37 257.539 27.7194" stroke="#22571A" stroke-linecap="round" stroke-linejoin="round"/>
<path d="M419.527 146.09C421.925 131.526 415.001 117.583 403.132 110.357C398.076 101.528 389.244 94.9522 378.433 93.1705C367.943 91.4389 357.791 94.5718 350.228 100.908C335.771 103.25 323.771 114.58 321.253 129.855C320.324 135.49 320.804 141.035 322.412 146.13C320.874 164.207 333.453 180.712 351.627 183.715C352.866 183.925 354.105 184.055 355.334 184.125C358.92 186.227 362.937 187.719 367.283 188.439C382.75 190.992 397.517 182.984 404.251 169.692C412.114 164.487 417.879 156.149 419.537 146.1L419.527 146.09Z" fill="white" stroke="#22571A" stroke-linecap="round" stroke-linejoin="round"/>
<path d="M199.191 105.092C199.191 89.6672 188.74 76.6951 174.552 72.8815C168.477 64.7139 158.776 59.429 147.825 59.429C139.233 59.429 131.39 62.692 125.485 68.047C109.379 70.3792 97 84.2621 97 101.048C97 103.77 97.3297 106.413 97.9492 108.945C97.3397 111.478 97 114.12 97 116.843C97 135.27 111.907 150.204 130.301 150.204C131.899 150.204 133.478 150.084 135.017 149.863C140.612 154.147 147.606 156.69 155.199 156.69C171.235 156.69 184.623 145.339 187.791 130.215C194.774 124.099 199.201 115.111 199.201 105.092H199.191Z" fill="white" stroke="#22571A" stroke-width="0.9" stroke-linecap="round" stroke-linejoin="round"/>
<path d="M168.527 115.391L185.003 98.8558" stroke="#22571A" stroke-width="0.9" stroke-linecap="round" stroke-linejoin="round"/>
<path d="M180.567 115.111L173.084 100.728" stroke="#22571A" stroke-width="0.9" stroke-linecap="round" stroke-linejoin="round"/>
<path d="M173.903 116.963L179.189 97.6346" stroke="#22571A" stroke-width="0.9" stroke-linecap="round" stroke-linejoin="round"/>
<path d="M185.273 104.721L167.889 110.206" stroke="#22571A" stroke-width="0.9" stroke-linecap="round" stroke-linejoin="round"/>
<path d="M184.005 109.616L169.538 105.412" stroke="#22571A" stroke-width="0.9" stroke-linecap="round" stroke-linejoin="round"/>
<path d="M178.209 103.94C177.869 103.94 177.49 104.021 177.1 104.181C175.362 104.891 173.883 106.953 173.883 108.685C173.883 109.356 174.113 109.886 174.532 110.166C175.012 110.497 175.741 110.497 176.53 110.166C178.269 109.456 179.748 107.394 179.748 105.662C179.748 104.991 179.518 104.461 179.098 104.181C178.858 104.021 178.549 103.93 178.209 103.93V103.94Z" fill="#8E9BB0" stroke="#22571A" stroke-width="0.9" stroke-linecap="round" stroke-linejoin="round"/>
<path d="M172.424 121.207C170.565 121.207 168.847 120.716 167.458 119.775C165.04 118.144 163.701 115.361 163.701 111.918C163.701 105.002 169.076 97.3744 175.93 94.5718C177.589 93.8912 179.238 93.5508 180.816 93.5508C182.675 93.5508 184.383 94.0413 185.782 94.9822C188.2 96.6137 189.539 99.3963 189.539 102.84C189.539 109.756 184.163 117.383 177.309 120.186C175.651 120.866 174.002 121.207 172.424 121.207ZM180.816 97.1842C179.717 97.1842 178.538 97.4345 177.309 97.9449C171.904 100.157 167.338 106.563 167.338 111.928C167.338 114.11 168.097 115.832 169.486 116.763C170.295 117.303 171.275 117.573 172.424 117.573C173.573 117.573 174.702 117.323 175.93 116.813C181.336 114.601 185.902 108.195 185.902 102.83C185.902 100.647 185.142 98.9259 183.754 97.995C182.964 97.4645 181.945 97.1742 180.816 97.1742V97.1842Z" fill="#4C5461"/>
<path d="M180.816 94.0012C182.584 94.0012 184.213 94.4717 185.522 95.3525C187.82 96.8939 189.079 99.5564 189.079 102.829C189.079 109.576 183.833 117.013 177.129 119.765C175.52 120.426 173.942 120.756 172.413 120.756C170.645 120.756 169.016 120.286 167.697 119.405C165.399 117.864 164.14 115.201 164.14 111.928C164.14 105.182 169.386 97.7447 176.09 94.9922C177.699 94.3316 179.277 94.0012 180.806 94.0012M172.413 118.024C173.572 118.024 174.811 117.753 176.09 117.233C181.645 114.961 186.341 108.365 186.341 102.839C186.341 100.497 185.512 98.6556 183.993 97.6346C183.124 97.0541 182.025 96.7438 180.806 96.7438C179.587 96.7438 178.408 97.0141 177.129 97.5345C171.574 99.8067 166.878 106.403 166.878 111.928C166.878 114.27 167.707 116.112 169.226 117.133C170.095 117.713 171.194 118.024 172.413 118.024ZM180.806 93.1004C179.187 93.1004 177.479 93.4507 175.75 94.1614C168.736 97.0341 163.241 104.841 163.241 111.928C163.241 115.521 164.65 118.434 167.198 120.156C168.686 121.157 170.475 121.657 172.413 121.657C174.032 121.657 175.74 121.307 177.469 120.596C184.483 117.723 189.978 109.916 189.978 102.829C189.978 99.2361 188.569 96.3134 186.021 94.6018C184.533 93.6009 182.744 93.0904 180.806 93.0904V93.1004ZM172.413 117.123C171.374 117.123 170.455 116.873 169.726 116.382C168.467 115.541 167.777 113.95 167.777 111.928C167.777 106.723 172.213 100.517 177.469 98.3653C178.648 97.8849 179.787 97.6446 180.806 97.6446C181.825 97.6446 182.764 97.8949 183.493 98.3853C184.752 99.2261 185.442 100.818 185.442 102.839C185.442 108.044 181.006 114.25 175.75 116.402C174.571 116.883 173.432 117.123 172.413 117.123Z" fill="#22571A"/>
<path d="M186.132 89.6972V91.4188C186.132 91.559 186.052 91.6991 185.903 91.7591L173.284 96.994C172.954 97.1242 172.584 97.1342 172.255 97.0041L166.42 94.792C166.31 94.7419 166.26 94.6418 166.26 94.5418V92.8402C166.26 92.7401 166.31 92.63 166.42 92.5799L179.298 87.2449C179.588 87.1148 179.908 87.1148 180.208 87.2349L185.883 89.3769C186.042 89.437 186.122 89.5671 186.122 89.7072L186.132 89.6972Z" fill="#8E9BB0" stroke="#22571A" stroke-width="0.9" stroke-linecap="round" stroke-linejoin="round"/>
<path d="M184.005 90.8282L173.284 95.2724C172.954 95.4125 172.595 95.4125 172.265 95.2924L167.709 93.5708" stroke="#22571A" stroke-width="0.9" stroke-linecap="round" stroke-linejoin="round"/>
<path d="M169.007 95.1323L165.63 96.7538C164.481 97.3043 163.562 98.2452 163.023 99.3962L161.764 102.119" stroke="#22571A" stroke-width="1.3" stroke-linecap="round" stroke-linejoin="round"/>
<path d="M176.62 107.083L157.447 100.697" stroke="#22571A" stroke-width="1.3" stroke-linecap="round" stroke-linejoin="round"/>
<path d="M117.672 135.23L136.835 116.102" stroke="#22571A" stroke-width="0.9" stroke-linecap="round" stroke-linejoin="round"/>
<path d="M130.901 132.938L124.146 116.102" stroke="#22571A" stroke-width="0.9" stroke-linecap="round" stroke-linejoin="round"/>
<path d="M124.256 135.23L131.04 114.57" stroke="#22571A" stroke-width="0.9" stroke-linecap="round" stroke-linejoin="round"/>
<path d="M137.974 121.657L116.793 129.054" stroke="#22571A" stroke-width="0.9" stroke-linecap="round" stroke-linejoin="round"/>
<path d="M133.729 127.663L120.53 122.117" stroke="#22571A" stroke-width="0.9" stroke-linecap="round" stroke-linejoin="round"/>
<path d="M153.311 116.342L152.641 115.792C151.083 114.52 150.573 112.358 151.392 110.517L153.61 105.542" stroke="#22571A" stroke-width="1.3" stroke-linecap="round" stroke-linejoin="round"/>
<path d="M152.311 107.754C152.152 107.754 151.992 107.734 151.822 107.694L147.675 106.753C146.497 106.483 145.747 105.302 146.017 104.121C146.287 102.94 147.466 102.189 148.645 102.459L152.791 103.4C153.97 103.67 154.719 104.851 154.45 106.032C154.22 107.053 153.311 107.744 152.311 107.744V107.754Z" fill="#4C5461" stroke="#22571A" stroke-width="0.9" stroke-linecap="round" stroke-linejoin="round"/>
<path d="M177.629 106.653C177.399 106.093 176.75 105.832 176.19 106.062L156.218 111.227L159.965 92.4998C160.084 91.8993 159.695 91.3287 159.105 91.2086C158.506 91.0885 157.936 91.4789 157.816 92.0694L153.62 113.289L151.532 115.521C148.924 115.101 146.436 114.04 144.328 112.438L130.141 101.638C129.661 101.268 128.972 101.368 128.602 101.849C128.232 102.329 128.332 103.02 128.812 103.39L142.999 114.19C145.387 116.012 148.215 117.223 151.182 117.693C151.182 117.693 150.043 122.097 155.508 120.756L177.04 108.074C177.599 107.834 177.859 107.194 177.629 106.633V106.653Z" fill="#AADC6C" stroke="#22571A" stroke-width="0.9" stroke-linecap="round" stroke-linejoin="round"/>
<path d="M122.627 139.794C120.639 139.794 118.801 139.263 117.302 138.263C114.704 136.511 113.275 133.528 113.275 129.845C113.275 122.438 119.02 114.28 126.364 111.267C128.142 110.537 129.901 110.166 131.599 110.166C133.588 110.166 135.426 110.697 136.925 111.698C139.522 113.449 140.951 116.432 140.951 120.116C140.951 127.523 135.196 135.68 127.863 138.693C126.084 139.424 124.326 139.794 122.627 139.794ZM131.599 114.12C130.43 114.12 129.171 114.39 127.863 114.931C122.098 117.293 117.222 124.119 117.222 129.845C117.222 132.167 118.031 133.999 119.5 134.979C120.359 135.56 121.408 135.85 122.627 135.85C123.846 135.85 125.055 135.58 126.364 135.04C132.129 132.677 137.005 125.851 137.005 120.126C137.005 117.803 136.195 115.972 134.727 114.991C133.867 114.42 132.818 114.12 131.599 114.12Z" fill="#4C5461"/>
<path d="M131.6 110.627C133.498 110.627 135.257 111.127 136.665 112.088C139.133 113.75 140.492 116.612 140.492 120.136C140.492 127.372 134.867 135.35 127.683 138.293C125.955 139.003 124.256 139.354 122.618 139.354C120.719 139.354 118.961 138.853 117.552 137.892C115.084 136.231 113.725 133.378 113.725 129.845C113.725 122.608 119.35 114.631 126.534 111.688C128.263 110.977 129.961 110.627 131.6 110.627ZM122.628 136.301C123.857 136.301 125.175 136.02 126.534 135.46C132.449 133.038 137.455 126.011 137.455 120.126C137.455 117.643 136.575 115.692 134.977 114.611C134.058 113.99 132.889 113.67 131.6 113.67C130.311 113.67 129.052 113.95 127.693 114.51C121.778 116.933 116.773 123.959 116.773 129.845C116.773 132.327 117.652 134.279 119.251 135.36C120.17 135.98 121.339 136.301 122.628 136.301ZM131.6 109.726C129.871 109.726 128.043 110.106 126.194 110.857C118.701 113.93 112.826 122.268 112.826 129.845C112.826 133.678 114.325 136.801 117.052 138.643C118.641 139.714 120.559 140.254 122.628 140.254C124.356 140.254 126.184 139.874 128.033 139.123C135.526 136.051 141.401 127.713 141.401 120.136C141.401 116.302 139.902 113.179 137.175 111.337C135.586 110.266 133.668 109.726 131.6 109.726ZM122.628 135.4C121.519 135.4 120.539 135.14 119.76 134.609C118.411 133.708 117.672 132.017 117.672 129.845C117.672 124.29 122.418 117.643 128.033 115.341C129.292 114.821 130.511 114.57 131.6 114.57C132.689 114.57 133.688 114.831 134.467 115.361C135.806 116.262 136.555 117.954 136.555 120.126C136.555 125.681 131.81 132.327 126.194 134.629C124.936 135.15 123.717 135.4 122.628 135.4Z" fill="#22571A"/>
<path d="M129.082 121.757C128.742 121.757 128.363 121.837 127.973 121.997C126.235 122.708 124.756 124.77 124.756 126.502C124.756 127.172 124.986 127.703 125.405 127.983C125.885 128.313 126.614 128.313 127.404 127.983C129.142 127.272 130.621 125.21 130.621 123.479C130.621 122.808 130.391 122.278 129.971 121.997C129.732 121.837 129.422 121.747 129.082 121.747V121.757Z" fill="#8E9BB0" stroke="#22571A" stroke-width="0.9" stroke-linecap="round" stroke-linejoin="round"/>
<path d="M147.645 91.3488L141.031 89.0967C138.483 88.2259 135.656 89.497 134.607 91.9794L134.417 92.4298C134.277 92.7501 134.027 93.0003 133.707 93.1304C133.388 93.2606 133.028 93.2505 132.708 93.1104L130.3 92.0294L128.262 91.1085C127.882 90.9384 127.643 90.548 127.653 90.1276L127.693 88.8164C127.773 86.284 126.224 84.0319 123.826 83.2212L118.541 81.4195C118.171 81.2894 117.761 81.4896 117.631 81.8699C117.502 82.2403 117.701 82.6506 118.081 82.7808L123.366 84.5824C125.165 85.193 126.324 86.8746 126.264 88.7764L126.224 90.0876C126.194 91.0885 126.763 92.0094 127.673 92.4198L129.281 93.1404L128.822 115.181C128.732 116.182 128.602 117.203 128.432 118.174L127.073 124.84C126.993 125.23 127.243 125.601 127.633 125.681C127.683 125.691 127.733 125.691 127.773 125.691C128.102 125.691 128.402 125.461 128.472 125.12L129.831 118.434C130.011 117.403 130.15 116.342 130.24 115.251L130.69 93.761L132.109 94.4016C132.468 94.5618 132.838 94.6418 133.218 94.6418C133.547 94.6418 133.887 94.5818 134.207 94.4517C134.896 94.1814 135.426 93.6609 135.716 92.9803L135.905 92.5299C136.665 90.7282 138.713 89.8173 140.561 90.4379L147.176 92.69C147.555 92.8201 147.955 92.62 148.085 92.2396C148.215 91.8592 148.015 91.4589 147.635 91.3287L147.645 91.3488Z" fill="#AADC6C" stroke="#22571A" stroke-width="0.9" stroke-linecap="round" stroke-linejoin="round"/>
<path d="M122.038 85.0229C121.858 85.0229 121.688 84.9928 121.509 84.9328L117.782 83.6616C116.923 83.3713 116.463 82.4304 116.753 81.5696C117.043 80.7088 117.982 80.2484 118.841 80.5387L122.568 81.8099C123.427 82.1001 123.887 83.041 123.597 83.9018C123.367 84.5925 122.728 85.0229 122.038 85.0229Z" fill="#4C5461" stroke="#22571A" stroke-width="0.9" stroke-linecap="round" stroke-linejoin="round"/>
<path d="M147.415 93.6809C147.235 93.6809 147.065 93.6509 146.886 93.5908L141.86 91.8793C141.001 91.589 140.541 90.6481 140.831 89.7873C141.121 88.9265 142.06 88.4661 142.919 88.7563L147.945 90.4679C148.804 90.7582 149.264 91.6991 148.974 92.5599C148.744 93.2505 148.105 93.6809 147.415 93.6809Z" fill="#4C5461" stroke="#22571A" stroke-width="0.9" stroke-linecap="round" stroke-linejoin="round"/>
<path d="M152.941 121.527C152.252 121.527 151.603 121.347 151.073 120.986C150.164 120.376 149.654 119.325 149.654 118.034C149.654 115.471 151.643 112.649 154.18 111.608C155.549 111.047 156.888 111.107 157.867 111.768C158.776 112.378 159.286 113.429 159.286 114.721C159.286 117.283 157.298 120.106 154.76 121.147C154.14 121.397 153.521 121.527 152.941 121.527ZM155.779 113.299C155.449 113.299 155.09 113.379 154.72 113.529C153.071 114.21 151.673 116.162 151.673 117.793C151.673 118.444 151.892 118.944 152.302 119.225C152.772 119.535 153.471 119.545 154.22 119.225C155.869 118.544 157.268 116.592 157.268 114.961C157.268 114.31 157.048 113.81 156.638 113.529C156.398 113.369 156.109 113.289 155.779 113.289V113.299Z" fill="#4C5461" stroke="#22571A" stroke-width="0.9" stroke-linecap="round" stroke-linejoin="round"/>
<path d="M154.68 116.963L155.439 117.363C157.217 118.294 158.157 120.306 157.727 122.268L156.568 127.593" stroke="#22571A" stroke-width="1.3" stroke-linecap="round" stroke-linejoin="round"/>
<path d="M161.693 132.557C161.383 132.557 161.064 132.487 160.764 132.347L156.907 130.535C155.808 130.025 155.339 128.714 155.848 127.613C156.358 126.512 157.667 126.041 158.766 126.552L162.622 128.363C163.721 128.874 164.191 130.185 163.681 131.286C163.312 132.087 162.512 132.557 161.693 132.557Z" fill="#4C5461" stroke="#22571A" stroke-width="0.9" stroke-linecap="round" stroke-linejoin="round"/>
<path d="M153.761 91.2086C153.561 91.3788 150.553 94.3415 152.142 95.943C155.889 99.6965 166.22 93.2505 162.333 89.9975C159.276 87.4451 156.938 88.4961 153.761 91.2186V91.2086Z" fill="#4C5461" stroke="#22571A" stroke-width="0.9" stroke-linecap="round" stroke-linejoin="round"/>
<path d="M155.359 95.0613C155.359 95.0613 157.278 95.0613 158.906 94.0813L155.359 95.0613Z" fill="white"/>
<path d="M155.359 95.0613C155.359 95.0613 157.278 95.0613 158.906 94.0813" stroke="#22571A" stroke-width="0.9" stroke-linecap="round" stroke-linejoin="round"/>
<path d="M135.685 96.0332L134.097 108.415C134.097 108.565 134.017 108.715 133.857 108.775L129.131 111.357C128.781 111.488 128.382 111.508 128.032 111.367L119.02 107.404C118.9 107.354 118.85 107.244 118.85 107.134L116.362 95.0222C116.362 94.9121 116.412 94.792 116.532 94.742L123.526 90.9985C123.836 90.8684 124.185 90.8684 124.505 90.9885L135.436 95.6929C135.605 95.7629 135.695 95.893 135.695 96.0432L135.685 96.0332Z" fill="#C17B4C" stroke="#22571A" stroke-width="0.9" stroke-linecap="round" stroke-linejoin="round"/>
<path d="M118.16 95.6928L128.151 99.9968" stroke="#22571A" stroke-width="0.9" stroke-linecap="round" stroke-linejoin="round"/>
<path d="M128.332 100.237V109.426" stroke="#22571A" stroke-width="0.9" stroke-linecap="round" stroke-linejoin="round"/>
<path d="M133.617 97.1642L128.332 99.9968" stroke="#22571A" stroke-width="0.9" stroke-linecap="round" stroke-linejoin="round"/>
<path d="M203.886 242.09C195.963 239.257 192.346 230.068 196.243 222.601C204.226 207.317 221.83 184.436 257.569 182.404C312.861 179.271 337.859 220.97 333.063 255.422C327.528 295.179 239.065 254.681 203.876 242.09H203.886Z" fill="#FF9894" stroke="#22571A" stroke-width="0.9" stroke-linecap="round" stroke-linejoin="round"/>
<path d="M246.458 180.952L247.727 188.299C248.227 191.192 249.675 192.854 253.702 193.174C264.013 194.005 267.53 186.758 268.429 184.756C268.609 184.356 268.689 183.925 268.689 183.495V173.896L246.448 180.952H246.458Z" fill="#FFE1C4" stroke="#22571A" stroke-width="0.9" stroke-linecap="round" stroke-linejoin="round"/>
<path d="M224.818 143.187C224.818 143.187 224.608 150.824 227.146 159.733C227.146 159.733 222.989 180.522 246.459 180.952C259.907 181.193 267.87 175.447 272.226 170.503C275.264 167.049 276.992 162.645 277.202 158.051C277.512 151.255 277.042 139.714 271.197 132.577C262.515 121.967 248.747 120.486 241.333 121.757C233.92 123.028 225.657 130.035 224.818 143.187Z" fill="#FFE1C4"/>
<path d="M267.021 175.177C269.149 173.686 270.858 172.054 272.216 170.503C275.254 167.049 276.982 162.645 277.192 158.051C277.502 151.255 277.032 139.714 271.187 132.577C262.505 121.967 248.737 120.486 241.323 121.757C233.91 123.028 225.647 130.035 224.808 143.187C224.808 143.187 224.598 150.824 227.136 159.733C227.136 159.733 222.98 180.522 246.449 180.952C248.048 180.983 249.566 180.922 251.015 180.792" fill="#FFE1C4"/>
<path d="M267.021 175.177C269.149 173.686 270.858 172.054 272.216 170.503C275.254 167.049 276.982 162.645 277.192 158.051C277.502 151.255 277.032 139.714 271.187 132.577C262.505 121.967 248.737 120.486 241.323 121.757C233.91 123.028 225.647 130.035 224.808 143.187C224.808 143.187 224.598 150.824 227.136 159.733C227.136 159.733 222.98 180.522 246.449 180.952C248.048 180.983 249.566 180.922 251.015 180.792" stroke="#22571A" stroke-width="0.9" stroke-linecap="round" stroke-linejoin="round"/>
<path d="M244.301 126.221C244.301 126.221 221.111 128.874 225.367 151.175C225.367 151.175 220.351 151.115 215.895 144.048C211.449 136.971 215.466 121.297 232.011 121.387C232.011 121.387 245.819 109.456 264.243 117.453C282.667 125.451 281.278 144.819 281.278 144.819C281.278 144.819 269.768 148.742 258.868 145.359C247.967 141.976 245.32 136.661 244.291 126.231L244.301 126.221Z" fill="#4C5461" stroke="#22571A" stroke-width="0.9" stroke-linecap="round" stroke-linejoin="round"/>
<path d="M273.705 146.41C273.705 146.41 274.494 140.425 281.268 142.427C288.043 144.428 288.502 162.575 274.844 163.806" fill="#FFE1C4"/>
<path d="M273.705 146.41C273.705 146.41 274.494 140.425 281.268 142.427C288.043 144.428 288.502 162.575 274.844 163.806" stroke="#22571A" stroke-width="0.9" stroke-linecap="round" stroke-linejoin="round"/>
<path d="M188.089 270.246L157.606 304.618L134.876 200.901L165.359 166.519L188.089 270.246Z" fill="white" stroke="#22571A" stroke-linecap="round" stroke-linejoin="round"/>
<path d="M162.591 182.244L181.835 270.026L162.162 292.206L142.929 204.424L162.591 182.244Z" stroke="#FF9894" stroke-width="0.9" stroke-linecap="round" stroke-linejoin="round"/>
<path d="M335.3 304.618H157.606L134.876 200.901H312.57L335.3 304.618Z" fill="white" stroke="#22571A" stroke-linecap="round" stroke-linejoin="round"/>
<path d="M167.831 224.692C169.376 222.961 168.878 219.99 166.719 218.055C164.559 216.121 161.556 215.955 160.011 217.686C158.466 219.416 158.964 222.387 161.124 224.322C163.283 226.257 166.286 226.423 167.831 224.692Z" stroke="#22571A" stroke-linecap="round" stroke-linejoin="round"/>
<path d="M176.18 244.512H162.112L159.515 232.911C158.645 229.017 161.083 225.864 164.97 225.864C168.857 225.864 172.703 229.017 173.572 232.911L176.17 244.512H176.18Z" fill="#8E9BB0" stroke="#22571A" stroke-width="0.9" stroke-linecap="round" stroke-linejoin="round"/>
<path d="M199.783 224.695C201.328 222.965 200.83 219.993 198.671 218.059C196.512 216.124 193.509 215.958 191.964 217.689C190.419 219.419 190.916 222.391 193.076 224.326C195.235 226.26 198.238 226.426 199.783 224.695Z" stroke="#22571A" stroke-linecap="round" stroke-linejoin="round"/>
<path d="M208.133 244.512H194.066L191.468 232.911C190.599 229.017 193.036 225.864 196.923 225.864C200.81 225.864 204.656 229.017 205.526 232.911L208.123 244.512H208.133Z" fill="#8E9BB0" stroke="#22571A" stroke-width="0.9" stroke-linecap="round" stroke-linejoin="round"/>
<path d="M231.751 224.691C233.296 222.961 232.798 219.989 230.639 218.055C228.479 216.12 225.476 215.954 223.931 217.685C222.386 219.415 222.884 222.387 225.044 224.322C227.203 226.256 230.206 226.422 231.751 224.691Z" stroke="#22571A" stroke-linecap="round" stroke-linejoin="round"/>
<path d="M240.094 244.512H226.026L223.429 232.911C222.56 229.017 224.997 225.864 228.884 225.864C232.771 225.864 236.617 229.017 237.486 232.911L240.084 244.512H240.094Z" fill="#8E9BB0" stroke="#22571A" stroke-width="0.9" stroke-linecap="round" stroke-linejoin="round"/>
<path d="M263.703 224.695C265.248 222.964 264.75 219.993 262.591 218.058C260.431 216.123 257.429 215.958 255.883 217.688C254.338 219.419 254.836 222.39 256.996 224.325C259.155 226.26 262.158 226.425 263.703 224.695Z" stroke="#22571A" stroke-linecap="round" stroke-linejoin="round"/>
<path d="M272.046 244.512H257.979L255.381 232.911C254.512 229.017 256.95 225.864 260.836 225.864C264.723 225.864 268.569 229.017 269.439 232.911L272.036 244.512H272.046Z" fill="#8E9BB0" stroke="#22571A" stroke-width="0.9" stroke-linecap="round" stroke-linejoin="round"/>
<path d="M295.673 224.701C297.218 222.97 296.72 219.999 294.56 218.064C292.401 216.129 289.398 215.964 287.853 217.694C286.308 219.425 286.806 222.396 288.965 224.331C291.125 226.266 294.128 226.431 295.673 224.701Z" stroke="#22571A" stroke-linecap="round" stroke-linejoin="round"/>
<path d="M304.009 244.512H289.942L287.344 232.911C286.475 229.017 288.912 225.864 292.799 225.864C296.686 225.864 300.532 229.017 301.401 232.911L303.999 244.512H304.009Z" fill="#8E9BB0" stroke="#22571A" stroke-width="0.9" stroke-linecap="round" stroke-linejoin="round"/>
<path d="M305.507 209.699L324.381 295.82H164.67L145.797 209.699H305.507" stroke="#FF9894" stroke-width="0.9" stroke-linecap="round" stroke-linejoin="round"/>
<path d="M153.48 244.522H313.181" stroke="#FF9894" stroke-width="0.9" stroke-linecap="round" stroke-linejoin="round"/>
<path d="M273.565 209.699L292.439 295.82" stroke="#FF9894" stroke-width="0.9" stroke-linecap="round" stroke-linejoin="round"/>
<path d="M241.623 209.699L260.497 295.82" stroke="#FF9894" stroke-width="0.9" stroke-linecap="round" stroke-linejoin="round"/>
<path d="M209.682 209.699L228.555 295.82" stroke="#FF9894" stroke-width="0.9" stroke-linecap="round" stroke-linejoin="round"/>
<path d="M177.739 209.699L196.613 295.82" stroke="#FF9894" stroke-width="0.9" stroke-linecap="round" stroke-linejoin="round"/>
<path d="M177.28 250.057L185.083 285.67" stroke="#22571A" stroke-linecap="round" stroke-linejoin="round"/>
<path d="M172.145 258.435L176.621 278.844" stroke="#22571A" stroke-linecap="round" stroke-linejoin="round"/>
<path d="M163.932 252.76L168.238 272.388" stroke="#22571A" stroke-linecap="round" stroke-linejoin="round"/>
<path d="M209.242 250.057L217.045 285.67" stroke="#22571A" stroke-linecap="round" stroke-linejoin="round"/>
<path d="M204.107 258.435L208.583 278.844" stroke="#22571A" stroke-linecap="round" stroke-linejoin="round"/>
<path d="M195.884 252.76L200.19 272.388" stroke="#22571A" stroke-linecap="round" stroke-linejoin="round"/>
<path d="M241.203 250.057L249.006 285.67" stroke="#22571A" stroke-linecap="round" stroke-linejoin="round"/>
<path d="M236.058 258.435L240.534 278.844" stroke="#22571A" stroke-linecap="round" stroke-linejoin="round"/>
<path d="M227.845 252.76L232.151 272.388" stroke="#22571A" stroke-linecap="round" stroke-linejoin="round"/>
<path d="M273.155 250.057L280.958 285.67" stroke="#22571A" stroke-linecap="round" stroke-linejoin="round"/>
<path d="M268.021 258.435L272.497 278.844" stroke="#22571A" stroke-linecap="round" stroke-linejoin="round"/>
<path d="M259.797 252.76L264.103 272.388" stroke="#22571A" stroke-linecap="round" stroke-linejoin="round"/>
<path d="M305.118 250.057L312.921 285.67" stroke="#22571A" stroke-linecap="round" stroke-linejoin="round"/>
<path d="M299.973 258.435L304.449 278.844" stroke="#22571A" stroke-linecap="round" stroke-linejoin="round"/>
<path d="M291.76 252.76L296.066 272.388" stroke="#22571A" stroke-linecap="round" stroke-linejoin="round"/>
<path d="M335.3 304.618L304.817 339L282.087 235.283L312.57 200.901L335.3 304.618Z" fill="white" stroke="#22571A" stroke-linecap="round" stroke-linejoin="round"/>
<path d="M308.904 214.964L328.147 302.756L308.484 324.927L289.241 237.145L308.904 214.964Z" stroke="#FF9894" stroke-width="0.9" stroke-linecap="round" stroke-linejoin="round"/>
<path d="M305.43 239.464C306.25 235.978 305.429 232.801 303.598 232.369C301.766 231.937 299.617 234.413 298.797 237.9C297.978 241.386 298.798 244.563 300.63 244.995C302.461 245.427 304.61 242.951 305.43 239.464Z" stroke="#22571A" stroke-linecap="round" stroke-linejoin="round"/>
<path d="M303.029 269.755L313.3 258.385L310.303 245.773C309.294 241.539 306.186 240.658 303.349 243.801C300.511 246.944 299.033 252.91 300.042 257.144L303.039 269.755H303.029Z" fill="#8E9BB0" stroke="#22571A" stroke-width="0.9" stroke-linecap="round" stroke-linejoin="round"/>
<path d="M297.943 275.631L317.606 253.45" stroke="#FF9894" stroke-width="0.9" stroke-linecap="round" stroke-linejoin="round"/>
<path d="M313.609 310.724L305.656 275.14" stroke="#22571A" stroke-linecap="round" stroke-linejoin="round"/>
<path d="M317.147 301.615L312.591 281.226" stroke="#22571A" stroke-linecap="round" stroke-linejoin="round"/>
<path d="M320.552 293.528L316.166 273.919" stroke="#22571A" stroke-linecap="round" stroke-linejoin="round"/>
<path d="M312.92 266.132C315.667 270.186 320.113 271.017 324.38 269.215C328.076 267.643 330.095 265.411 329.975 258.445C329.755 245.853 326.558 235.664 323.291 232.41C320.023 229.157 316.117 231.98 318.065 240.648C318.065 240.648 307.325 244.021 309.013 253.37C310.002 258.835 310.911 263.189 312.92 266.142V266.132Z" fill="#FFE1C4" stroke="#22571A" stroke-width="0.9" stroke-linecap="round" stroke-linejoin="round"/>
<path d="M140.342 225.864C131.869 225.864 130.14 255.802 148.484 255.842C159.345 255.862 152.911 225.864 140.342 225.864Z" fill="#FFE1C4" stroke="#22571A" stroke-width="0.9" stroke-linecap="round" stroke-linejoin="round"/>
<path d="M237.026 156.219C237.196 157.611 236.397 158.852 235.248 158.992C234.099 159.132 233.379 158.071 233.21 156.68C233.04 155.288 233.489 154.087 234.638 153.947C235.787 153.807 236.856 154.828 237.016 156.219H237.026Z" fill="#22571A"/>
<path d="M253.802 154.508C253.971 155.899 253.172 157.14 252.023 157.28C250.874 157.42 250.155 156.359 249.985 154.968C249.815 153.577 250.265 152.376 251.414 152.236C252.563 152.096 253.632 153.116 253.792 154.508H253.802Z" fill="#22571A"/>
<path d="M241.113 156.55C241.113 156.55 241.842 158.031 241.113 159.432C240.374 160.834 239.305 162.485 241.653 163.927" stroke="#22571A" stroke-linecap="round" stroke-linejoin="round"/>
<path d="M231.262 149.442C231.262 149.442 233.04 148.262 235.588 148.412L231.262 149.442Z" fill="white"/>
<path d="M231.262 149.442C231.262 149.442 233.04 148.262 235.588 148.412" stroke="#22571A" stroke-linecap="round" stroke-linejoin="round"/>
<path d="M249.675 146.71C249.675 146.71 251.673 145.98 254.121 146.71H249.675Z" fill="white"/>
<path d="M249.675 146.71C249.675 146.71 251.673 145.98 254.121 146.71" stroke="#22571A" stroke-linecap="round" stroke-linejoin="round"/>
<path d="M240.214 169.241C240.214 169.241 245.02 171.383 249.676 167.28" stroke="#22571A" stroke-linecap="round" stroke-linejoin="round"/>
<path d="M275.913 153.937C275.913 153.937 275.793 147.631 280.28 146.72" stroke="#22571A" stroke-linecap="round" stroke-linejoin="round"/>
<path d="M193.425 152.696C196.372 152.696 198.761 150.303 198.761 147.351C198.761 144.399 196.372 142.006 193.425 142.006C190.479 142.006 188.09 144.399 188.09 147.351C188.09 150.303 190.479 152.696 193.425 152.696Z" fill="white" stroke="#22571A" stroke-linecap="round" stroke-linejoin="round"/>
<path d="M299.133 112.428C302.08 112.428 304.469 110.035 304.469 107.083C304.469 104.132 302.08 101.738 299.133 101.738C296.187 101.738 293.798 104.132 293.798 107.083C293.798 110.035 296.187 112.428 299.133 112.428Z" fill="white" stroke="#22571A" stroke-linecap="round" stroke-linejoin="round"/>
<path d="M317.607 178.18C320.553 178.18 322.942 175.787 322.942 172.835C322.942 169.883 320.553 167.49 317.607 167.49C314.66 167.49 312.271 169.883 312.271 172.835C312.271 175.787 314.66 178.18 317.607 178.18Z" fill="white" stroke="#22571A" stroke-linecap="round" stroke-linejoin="round"/>
<path d="M205.585 162.535C207.235 162.535 208.572 161.195 208.572 159.542C208.572 157.89 207.235 156.55 205.585 156.55C203.935 156.55 202.598 157.89 202.598 159.542C202.598 161.195 203.935 162.535 205.585 162.535Z" fill="white" stroke="#22571A" stroke-linecap="round" stroke-linejoin="round"/>
<path d="M289.241 122.138C290.891 122.138 292.229 120.798 292.229 119.145C292.229 117.492 290.891 116.152 289.241 116.152C287.591 116.152 286.254 117.492 286.254 119.145C286.254 120.798 287.591 122.138 289.241 122.138Z" fill="white" stroke="#22571A" stroke-linecap="round" stroke-linejoin="round"/>
<path d="M302.12 176.218C303.77 176.218 305.108 174.878 305.108 173.225C305.108 171.572 303.77 170.232 302.12 170.232C300.47 170.232 299.133 171.572 299.133 173.225C299.133 174.878 300.47 176.218 302.12 176.218Z" fill="white" stroke="#22571A" stroke-linecap="round" stroke-linejoin="round"/>
<path d="M390.942 129.024C390.942 128.553 390.563 128.173 390.093 128.173C389.624 128.173 389.244 128.553 389.244 129.024V130.075H388.075V129.024C388.075 128.553 387.695 128.173 387.226 128.173C386.756 128.173 386.376 128.553 386.376 129.024V130.075H378.293L376.735 123.669L384.968 117.693C385.237 117.493 385.377 117.183 385.367 116.853V114.791C385.367 114.32 384.988 113.94 384.518 113.94C384.048 113.94 383.669 114.32 383.669 114.791V115.912H382.5V114.791C382.5 114.32 382.12 113.94 381.651 113.94C381.181 113.94 380.801 114.32 380.801 114.791V115.912H374.847L371.719 103.06C371.579 102.469 371.05 102.059 370.44 102.059C369.831 102.059 369.311 102.469 369.161 103.06L366.034 115.912H360.129V114.791C360.129 114.32 359.75 113.94 359.28 113.94C358.811 113.94 358.431 114.32 358.431 114.791V115.912H357.262V114.791C357.262 114.32 356.882 113.94 356.413 113.94C355.943 113.94 355.563 114.32 355.563 114.791V116.863C355.553 117.183 355.693 117.503 355.963 117.693L364.136 123.659L362.577 130.075H354.574V129.024C354.574 128.553 354.195 128.173 353.725 128.173C353.255 128.173 352.876 128.553 352.876 129.024V130.075H351.687V129.024C351.687 128.553 351.307 128.173 350.838 128.173C350.368 128.173 349.988 128.553 349.988 129.024V131.096H349.998C350.008 131.366 350.118 131.616 350.328 131.806L360.079 140.304L354.205 164.487C354.035 165.188 354.464 165.898 355.164 166.078C355.863 166.249 356.573 165.818 356.752 165.118L360.129 151.235H380.691L384.068 165.118C384.218 165.718 384.748 166.119 385.337 166.119C385.437 166.119 385.547 166.109 385.647 166.078C386.346 165.908 386.786 165.198 386.606 164.487L380.731 140.324L390.543 131.817C390.753 131.636 390.862 131.376 390.872 131.106H390.882V129.034L390.942 129.024ZM373.747 122.448H368.312L372.848 118.744L373.747 122.448ZM367.663 120.436L368.282 117.883H370.79L367.663 120.436ZM366.694 124.42H372.089L365.675 128.624L366.694 124.42ZM364.835 132.047H373.678L363.377 138.022L364.825 132.047H364.835ZM362.607 141.195H375.046L360.969 147.902L362.597 141.195H362.607ZM365.225 139.223L376.255 132.817L377.814 139.223H365.225ZM367.043 130.075L374.417 125.24L375.596 130.075H367.043ZM381.351 117.883L376.225 121.597L375.326 117.883H381.351ZM370.45 108.925L372.149 115.912H368.752L370.45 108.925ZM359.6 117.883H365.575L364.675 121.587L359.6 117.883ZM353.645 132.047H362.128L360.639 138.152L353.635 132.047H353.645ZM364.106 148.592L378.433 141.766L380.092 148.592H364.106ZM380.252 138.162L378.763 132.047H387.306L380.252 138.162Z" fill="#8E9BB0" stroke="#22571A" stroke-width="0.9" stroke-linecap="round" stroke-linejoin="round"/>
<path d="M389.105 162.285H351.877L351.078 169.041H389.904L389.105 162.285Z" fill="#B3C3DE" stroke="#22571A" stroke-width="0.9" stroke-linecap="round" stroke-linejoin="round"/>
<path d="M390.933 166.569H350.059L349.18 171.874H391.812L390.933 166.569Z" fill="#8E9BB0" stroke="#22571A" stroke-width="0.9" stroke-linecap="round" stroke-linejoin="round"/>
<path d="M408.018 95.2624L397.027 113.109C396.808 113.459 397.067 113.92 397.477 113.92H405.02C405.4 113.92 405.65 114.3 405.51 114.65L399.026 130.375C398.786 130.956 399.565 131.396 399.935 130.896L416.89 108.124C417.15 107.774 416.9 107.274 416.47 107.274H407.968C407.648 107.274 407.398 106.993 407.448 106.673L408.997 95.6127C409.077 95.0422 408.327 94.7719 408.018 95.2624Z" fill="#FFED66" stroke="#22571A" stroke-linecap="round" stroke-linejoin="round"/>
<path d="M338.978 128.273L331.145 140.995C330.985 141.245 331.175 141.576 331.465 141.576H336.84C337.11 141.576 337.29 141.846 337.19 142.096L332.574 153.307C332.404 153.717 332.964 154.037 333.223 153.677L345.303 137.452C345.493 137.202 345.303 136.851 345.003 136.851H338.938C338.709 136.851 338.529 136.651 338.569 136.421L339.678 128.533C339.738 128.123 339.198 127.933 338.978 128.283V128.273Z" fill="#FFED66" stroke="#22571A" stroke-linecap="round" stroke-linejoin="round"/>
</g>
</svg>
