<svg width="517" height="340" viewBox="0 0 517 340" fill="none" xmlns="http://www.w3.org/2000/svg">
<mask id="mask0_1188_80969" style="mask-type:alpha" maskUnits="userSpaceOnUse" x="0" y="0" width="517" height="340">
<rect width="517" height="340" rx="10" fill="#DEE2E6"/>
</mask>
<g mask="url(#mask0_1188_80969)">
<path d="M258.335 280.78C258.085 280.78 257.885 280.58 257.885 280.329V263.796C257.885 263.546 258.085 263.346 258.335 263.346C258.585 263.346 258.785 263.546 258.785 263.796V280.329C258.785 280.58 258.585 280.78 258.335 280.78ZM258.335 239.212C258.085 239.212 257.885 239.012 257.885 238.762V213.727C257.885 213.477 258.085 213.277 258.335 213.277C258.585 213.277 258.785 213.477 258.785 213.727V238.762C258.785 239.012 258.585 239.212 258.335 239.212ZM258.335 189.143C258.085 189.143 257.885 188.943 257.885 188.693V163.658C257.885 163.408 258.085 163.207 258.335 163.207C258.585 163.207 258.785 163.408 258.785 163.658V188.693C258.785 188.943 258.585 189.143 258.335 189.143ZM258.335 139.074C258.085 139.074 257.885 138.874 257.885 138.624V113.589C257.885 113.339 258.085 113.138 258.335 113.138C258.585 113.138 258.785 113.339 258.785 113.589V138.624C258.785 138.874 258.585 139.074 258.335 139.074ZM258.335 89.005C258.085 89.005 257.885 88.8047 257.885 88.5544V63.5198C257.885 63.2694 258.085 63.0692 258.335 63.0692C258.585 63.0692 258.785 63.2694 258.785 63.5198V88.5544C258.785 88.8047 258.585 89.005 258.335 89.005ZM258.335 38.9358C258.085 38.9358 257.885 38.7355 257.885 38.4852V13.4506C257.885 13.2003 258.085 13 258.335 13C258.585 13 258.785 13.2003 258.785 13.4506V38.4852C258.785 38.7355 258.585 38.9358 258.335 38.9358Z" fill="#22571A"/>
<path d="M322.544 260.081C322.384 260.081 322.234 260.001 322.154 259.851L309.658 238.171C309.538 237.961 309.608 237.68 309.828 237.56C310.038 237.44 310.318 237.51 310.438 237.73L322.934 259.41C323.054 259.621 322.984 259.901 322.764 260.021C322.694 260.061 322.614 260.081 322.544 260.081ZM297.553 216.721C297.393 216.721 297.243 216.641 297.163 216.491L284.667 194.811C284.547 194.601 284.617 194.32 284.837 194.2C285.047 194.08 285.327 194.15 285.447 194.371L297.942 216.051C298.062 216.261 297.992 216.541 297.772 216.661C297.702 216.701 297.623 216.721 297.553 216.721ZM272.561 173.362C272.401 173.362 272.251 173.281 272.171 173.131L259.675 151.451C259.555 151.231 259.625 150.961 259.845 150.84C260.055 150.72 260.335 150.79 260.455 151.001L272.951 172.681C273.071 172.891 273.001 173.171 272.781 173.291C272.711 173.331 272.631 173.352 272.561 173.352V173.362ZM247.569 130.002C247.41 130.002 247.26 129.922 247.18 129.771L234.684 108.091C234.564 107.871 234.634 107.601 234.854 107.481C235.064 107.36 235.344 107.43 235.464 107.641L247.959 129.321C248.079 129.541 248.009 129.811 247.789 129.932C247.719 129.972 247.639 129.992 247.569 129.992V130.002ZM222.578 86.6418C222.418 86.6418 222.268 86.5616 222.188 86.4114L209.692 64.7315C209.572 64.5112 209.642 64.2408 209.862 64.1206C210.072 64.0005 210.352 64.0706 210.472 64.2809L222.968 85.9608C223.088 86.1811 223.018 86.4515 222.798 86.5717C222.728 86.6117 222.648 86.6317 222.578 86.6317V86.6418ZM197.586 43.2819C197.426 43.2819 197.276 43.2017 197.196 43.0515L184.701 21.3716C184.581 21.1513 184.651 20.8809 184.871 20.7608C185.081 20.6406 185.361 20.7107 185.48 20.921L197.976 42.6009C198.096 42.8212 198.026 43.0916 197.806 43.2118C197.736 43.2518 197.656 43.2718 197.586 43.2718V43.2819Z" fill="#22571A"/>
<path d="M368.139 212.155C368.059 212.155 367.989 212.135 367.919 212.095L346.276 199.578C346.056 199.458 345.986 199.177 346.106 198.967C346.226 198.747 346.506 198.676 346.716 198.797L368.358 211.314C368.578 211.434 368.648 211.714 368.528 211.925C368.448 212.065 368.298 212.155 368.139 212.155ZM324.853 187.12C324.773 187.12 324.703 187.1 324.633 187.06L302.991 174.543C302.771 174.423 302.701 174.143 302.821 173.932C302.941 173.712 303.221 173.642 303.43 173.762L325.073 186.279C325.293 186.399 325.363 186.68 325.243 186.89C325.163 187.03 325.013 187.12 324.853 187.12ZM281.568 162.086C281.488 162.086 281.418 162.066 281.348 162.026L259.705 149.509C259.485 149.388 259.415 149.108 259.535 148.898C259.655 148.687 259.935 148.607 260.145 148.737L281.788 161.255C282.008 161.375 282.078 161.655 281.958 161.866C281.878 162.006 281.728 162.096 281.568 162.096V162.086ZM238.282 137.051C238.203 137.051 238.133 137.031 238.063 136.991L216.42 124.474C216.2 124.354 216.13 124.073 216.25 123.863C216.37 123.643 216.65 123.573 216.86 123.703L238.502 136.22C238.722 136.34 238.792 136.621 238.672 136.831C238.592 136.971 238.442 137.061 238.282 137.061V137.051ZM194.997 112.017C194.917 112.017 194.847 111.997 194.777 111.957L167.456 96.0247C167.237 95.9045 167.167 95.6241 167.287 95.4138C167.406 95.2035 167.686 95.1234 167.896 95.2536L195.217 111.186C195.437 111.306 195.507 111.586 195.387 111.796C195.307 111.937 195.157 112.027 194.997 112.027V112.017ZM151.712 86.9822C151.632 86.9822 151.562 86.9621 151.492 86.9221L129.849 74.4048C129.629 74.2846 129.559 74.0042 129.679 73.794C129.799 73.5837 130.079 73.5036 130.289 73.6337L151.932 86.151C152.152 86.2712 152.222 86.5516 152.102 86.7619C152.022 86.9021 151.872 86.9922 151.712 86.9922V86.9822Z" fill="#22571A"/>
<path d="M402.157 148.177H379.734C379.485 148.177 379.285 147.976 379.285 147.726C379.285 147.476 379.485 147.275 379.734 147.275H402.157C402.407 147.275 402.607 147.476 402.607 147.726C402.607 147.976 402.407 148.177 402.157 148.177ZM356.742 148.177H333.75C333.5 148.177 333.3 147.976 333.3 147.726C333.3 147.476 333.5 147.275 333.75 147.275H356.742C356.992 147.275 357.192 147.476 357.192 147.726C357.192 147.976 356.992 148.177 356.742 148.177ZM310.758 148.177H287.766C287.516 148.177 287.316 147.976 287.316 147.726C287.316 147.476 287.516 147.275 287.766 147.275H310.758C311.008 147.275 311.208 147.476 311.208 147.726C311.208 147.976 311.008 148.177 310.758 148.177ZM264.773 148.177H241.781C241.531 148.177 241.331 147.976 241.331 147.726C241.331 147.476 241.531 147.275 241.781 147.275H264.773C265.023 147.275 265.223 147.476 265.223 147.726C265.223 147.976 265.023 148.177 264.773 148.177ZM218.789 148.177H195.797C195.547 148.177 195.347 147.976 195.347 147.726C195.347 147.476 195.547 147.275 195.797 147.275H218.789C219.039 147.275 219.239 147.476 219.239 147.726C219.239 147.976 219.039 148.177 218.789 148.177ZM172.804 148.177H149.812C149.562 148.177 149.362 147.976 149.362 147.726C149.362 147.476 149.562 147.275 149.812 147.275H172.804C173.054 147.275 173.254 147.476 173.254 147.726C173.254 147.976 173.054 148.177 172.804 148.177ZM126.82 148.177H103.828C103.578 148.177 103.378 147.976 103.378 147.726C103.378 147.476 103.578 147.275 103.828 147.275H126.82C127.07 147.275 127.27 147.476 127.27 147.726C127.27 147.976 127.07 148.177 126.82 148.177Z" fill="#22571A"/>
<path d="M130.819 221.428C130.659 221.428 130.509 221.348 130.429 221.197C130.309 220.987 130.379 220.707 130.599 220.587L151.372 208.57C151.582 208.45 151.862 208.52 151.982 208.74C152.102 208.951 152.032 209.231 151.812 209.351L131.039 221.368C130.969 221.408 130.889 221.428 130.819 221.428ZM172.375 197.395C172.215 197.395 172.065 197.314 171.985 197.164C171.865 196.954 171.935 196.674 172.155 196.553L192.928 184.537C193.138 184.417 193.418 184.487 193.538 184.707C193.658 184.917 193.588 185.198 193.368 185.318L172.595 197.335C172.525 197.375 172.445 197.395 172.375 197.395ZM213.931 173.361C213.771 173.361 213.621 173.281 213.541 173.131C213.421 172.921 213.491 172.64 213.711 172.52L234.484 160.504C234.694 160.383 234.974 160.454 235.094 160.664C235.214 160.884 235.144 161.155 234.924 161.275L214.151 173.291C214.081 173.331 214.001 173.351 213.931 173.351V173.361ZM255.487 149.328C255.327 149.328 255.177 149.248 255.097 149.098C254.977 148.878 255.047 148.607 255.267 148.487L276.04 136.47C276.25 136.35 276.53 136.42 276.65 136.631C276.77 136.851 276.7 137.121 276.48 137.242L255.707 149.258C255.637 149.298 255.557 149.318 255.487 149.318V149.328ZM297.043 125.295C296.883 125.295 296.733 125.215 296.653 125.065C296.533 124.844 296.603 124.574 296.823 124.454L317.596 112.437C317.806 112.317 318.086 112.387 318.206 112.597C318.326 112.808 318.256 113.088 318.036 113.208L297.263 125.225C297.193 125.265 297.113 125.285 297.043 125.285V125.295ZM338.599 101.262C338.439 101.262 338.289 101.182 338.209 101.032C338.089 100.811 338.159 100.541 338.379 100.421L359.152 88.4041C359.362 88.2839 359.642 88.354 359.762 88.5643C359.882 88.7846 359.812 89.055 359.592 89.1751L338.819 101.192C338.749 101.232 338.669 101.252 338.599 101.252V101.262ZM380.155 77.2286C379.995 77.2286 379.845 77.1485 379.765 76.9983C379.645 76.778 379.715 76.5076 379.935 76.3875L396.629 66.7341C396.839 66.614 397.119 66.6841 397.239 66.8944C397.359 67.1147 397.289 67.385 397.069 67.5052L380.375 77.1585C380.305 77.1986 380.225 77.2186 380.155 77.2186V77.2286Z" fill="#22571A"/>
<path d="M179.232 285.727C179.152 285.727 179.082 285.707 179.012 285.667C178.792 285.546 178.722 285.266 178.842 285.056L190.838 264.247C190.958 264.027 191.238 263.957 191.448 264.077C191.668 264.197 191.738 264.477 191.618 264.688L179.622 285.496C179.542 285.637 179.392 285.727 179.232 285.727ZM203.224 244.099C203.144 244.099 203.074 244.079 203.004 244.039C202.784 243.919 202.714 243.639 202.834 243.428L214.83 222.619C214.95 222.399 215.23 222.329 215.44 222.449C215.66 222.569 215.73 222.85 215.61 223.06L203.614 243.869C203.534 244.009 203.384 244.099 203.224 244.099ZM227.216 202.472C227.136 202.472 227.066 202.452 226.996 202.412C226.776 202.291 226.706 202.011 226.826 201.801L238.822 180.992C238.942 180.772 239.222 180.702 239.432 180.822C239.652 180.942 239.722 181.222 239.602 181.433L227.606 202.241C227.526 202.382 227.376 202.472 227.216 202.472ZM251.208 160.844C251.128 160.844 251.058 160.824 250.988 160.784C250.768 160.664 250.698 160.384 250.818 160.173L262.814 139.364C262.934 139.144 263.214 139.074 263.424 139.204C263.644 139.324 263.714 139.605 263.594 139.815L251.598 160.624C251.518 160.764 251.368 160.854 251.208 160.854V160.844ZM275.2 119.217C275.12 119.217 275.05 119.197 274.98 119.157C274.76 119.036 274.69 118.756 274.81 118.546L286.806 97.737C286.926 97.5267 287.206 97.4466 287.416 97.5768C287.635 97.6969 287.705 97.9773 287.586 98.1876L275.59 118.996C275.51 119.137 275.36 119.227 275.2 119.227V119.217ZM299.192 77.5892C299.112 77.5892 299.042 77.5691 298.972 77.5291C298.752 77.4089 298.682 77.1285 298.802 76.9182L310.798 56.1095C310.918 55.8892 311.198 55.8191 311.407 55.9493C311.627 56.0694 311.697 56.3498 311.577 56.5601L299.581 77.3689C299.501 77.509 299.352 77.5992 299.192 77.5992V77.5892ZM323.183 35.9617C323.104 35.9617 323.034 35.9416 322.964 35.9016C322.744 35.7814 322.674 35.501 322.794 35.2907L334.79 14.482C334.91 14.2617 335.189 14.1916 335.399 14.3218C335.619 14.4419 335.689 14.7223 335.569 14.9326L323.573 35.7414C323.493 35.8815 323.343 35.9717 323.183 35.9717V35.9617Z" fill="#22571A"/>
<path d="M245.619 248.585C245.619 248.585 245.58 248.585 245.57 248.585C236.992 247.564 228.555 245.511 220.498 242.457C220.268 242.367 220.148 242.106 220.238 241.876C220.328 241.646 220.588 241.526 220.818 241.616C228.805 244.64 237.172 246.683 245.679 247.684C245.929 247.714 246.099 247.934 246.069 248.185C246.039 248.415 245.849 248.585 245.619 248.585ZM271.311 248.545C271.091 248.545 270.891 248.375 270.861 248.145C270.831 247.894 271.011 247.674 271.251 247.644C279.748 246.603 288.105 244.54 296.082 241.486C296.312 241.395 296.572 241.516 296.662 241.746C296.752 241.976 296.632 242.237 296.402 242.327C288.355 245.401 279.928 247.484 271.361 248.535C271.341 248.535 271.321 248.535 271.301 248.535L271.311 248.545ZM197.886 230.55C197.796 230.55 197.706 230.52 197.636 230.47C190.538 225.574 184.03 219.816 178.292 213.357C178.122 213.166 178.142 212.886 178.332 212.726C178.512 212.556 178.802 212.576 178.962 212.766C184.65 219.165 191.098 224.873 198.136 229.729C198.346 229.869 198.395 230.15 198.256 230.35C198.166 230.48 198.026 230.55 197.886 230.55ZM318.965 230.36C318.825 230.36 318.685 230.29 318.595 230.17C318.455 229.97 318.505 229.679 318.705 229.539C325.722 224.662 332.16 218.934 337.828 212.516C337.998 212.325 338.278 212.315 338.458 212.475C338.648 212.636 338.658 212.926 338.498 213.106C332.79 219.575 326.292 225.353 319.215 230.28C319.135 230.33 319.045 230.36 318.955 230.36H318.965ZM163.977 192.378C163.817 192.378 163.657 192.288 163.577 192.137C159.539 184.497 156.45 176.366 154.37 167.994C154.31 167.754 154.46 167.503 154.7 167.453C154.94 167.393 155.19 167.543 155.24 167.784C157.299 176.085 160.368 184.146 164.367 191.727C164.487 191.947 164.397 192.217 164.177 192.338C164.107 192.378 164.037 192.388 163.967 192.388L163.977 192.378ZM352.753 192.067C352.683 192.067 352.613 192.047 352.543 192.017C352.323 191.897 352.243 191.627 352.353 191.406C356.332 183.816 359.371 175.745 361.4 167.433C361.46 167.193 361.71 167.043 361.94 167.103C362.18 167.163 362.33 167.403 362.27 167.644C360.221 176.035 357.152 184.166 353.143 191.827C353.063 191.977 352.903 192.067 352.743 192.067H352.753ZM151.681 142.789C151.431 142.789 151.231 142.589 151.231 142.339V142.098C151.231 133.426 152.271 124.794 154.31 116.443C154.37 116.202 154.61 116.052 154.85 116.112C155.09 116.172 155.24 116.413 155.18 116.653C153.151 124.935 152.121 133.486 152.121 142.098V142.339C152.121 142.589 151.921 142.789 151.671 142.789H151.681ZM364.879 142.439C364.629 142.439 364.429 142.238 364.429 141.988C364.429 133.386 363.38 124.824 361.34 116.553C361.28 116.313 361.43 116.062 361.67 116.012C361.91 115.952 362.16 116.102 362.21 116.343C364.269 124.684 365.309 133.316 365.319 141.998C365.319 142.248 365.119 142.449 364.869 142.449L364.879 142.439ZM163.867 92.9403C163.797 92.9403 163.727 92.9203 163.657 92.8903C163.437 92.7701 163.357 92.4997 163.467 92.2794C167.476 84.6389 172.414 77.489 178.142 71.0201C178.312 70.8298 178.592 70.8198 178.782 70.98C178.972 71.1502 178.982 71.4306 178.822 71.6209C173.144 78.0397 168.246 85.1396 164.277 92.71C164.197 92.8602 164.037 92.9503 163.877 92.9503L163.867 92.9403ZM352.643 92.8402C352.483 92.8402 352.323 92.7501 352.243 92.5999C348.265 85.0394 343.366 77.9496 337.678 71.5408C337.508 71.3505 337.528 71.0701 337.718 70.8999C337.908 70.7296 338.188 70.7497 338.358 70.9399C344.086 77.4089 349.034 84.5487 353.043 92.1793C353.163 92.3996 353.073 92.67 352.853 92.7901C352.783 92.8302 352.713 92.8402 352.643 92.8402ZM197.696 54.6875C197.556 54.6875 197.416 54.6174 197.326 54.4972C197.186 54.2969 197.236 54.0166 197.436 53.8664C204.533 48.9496 212.211 44.894 220.258 41.8397C220.488 41.7496 220.748 41.8698 220.838 42.1001C220.928 42.3304 220.808 42.5908 220.578 42.6809C212.601 45.7151 204.993 49.7306 197.946 54.6074C197.866 54.6574 197.776 54.6875 197.686 54.6875H197.696ZM318.775 54.6274C318.685 54.6274 318.595 54.5974 318.515 54.5473C311.467 49.6706 303.84 45.665 295.863 42.6308C295.633 42.5407 295.513 42.2804 295.603 42.05C295.693 41.8197 295.952 41.6996 296.182 41.7897C304.23 44.8439 311.927 48.8895 319.035 53.8063C319.235 53.9465 319.295 54.2269 319.145 54.4371C319.055 54.5673 318.915 54.6274 318.775 54.6274ZM245.37 36.5524C245.15 36.5524 244.95 36.3822 244.92 36.1519C244.89 35.9015 245.07 35.6812 245.31 35.6512C249.578 35.1305 253.937 34.8701 258.265 34.8701H258.275C262.564 34.8701 266.882 35.1305 271.111 35.6312C271.361 35.6612 271.531 35.8815 271.501 36.1319C271.471 36.3822 271.241 36.5524 271.001 36.5224C266.802 36.0217 262.524 35.7714 258.275 35.7714H258.265C253.977 35.7714 249.648 36.0317 245.42 36.5424C245.4 36.5424 245.38 36.5424 245.37 36.5424V36.5524Z" fill="#22571A"/>
<path d="M272.521 262.805C272.291 262.805 272.091 262.645 272.061 262.404C272.031 262.154 272.211 261.934 272.451 261.904C280.268 260.982 288.015 259.28 295.503 256.847C295.743 256.767 295.993 256.897 296.073 257.137C296.153 257.378 296.023 257.628 295.783 257.708C288.245 260.161 280.428 261.884 272.561 262.805C272.551 262.805 272.531 262.805 272.521 262.805ZM248.839 263.256C248.839 263.256 248.799 263.256 248.789 263.256H248.619C240.741 262.615 232.924 261.213 225.387 259.1C225.147 259.03 225.007 258.779 225.077 258.549C225.147 258.309 225.397 258.169 225.627 258.239C233.114 260.342 240.871 261.724 248.689 262.354H248.869C249.119 262.394 249.299 262.605 249.279 262.855C249.259 263.085 249.069 263.256 248.849 263.266L248.839 263.256ZM317.356 248.205C317.196 248.205 317.036 248.125 316.946 247.975C316.826 247.754 316.906 247.484 317.116 247.364C323.973 243.508 330.491 238.952 336.469 233.835C336.659 233.675 336.939 233.695 337.099 233.885C337.259 234.075 337.239 234.356 337.049 234.516C331.021 239.673 324.463 244.259 317.546 248.145C317.476 248.185 317.406 248.205 317.336 248.205H317.356ZM203.454 250.478C203.384 250.478 203.304 250.468 203.234 250.428C196.177 246.833 189.449 242.507 183.211 237.58C183.021 237.43 182.981 237.14 183.141 236.949C183.291 236.749 183.581 236.719 183.771 236.879C189.959 241.766 196.646 246.062 203.644 249.637C203.864 249.747 203.954 250.017 203.844 250.238C203.764 250.388 203.614 250.478 203.454 250.488V250.478ZM353.213 217.532C353.113 217.532 353.003 217.502 352.924 217.432C352.734 217.282 352.694 216.992 352.854 216.801C357.742 210.613 362.02 203.914 365.599 196.904C365.709 196.684 365.979 196.594 366.199 196.704C366.419 196.814 366.509 197.084 366.399 197.305C362.8 204.374 358.482 211.124 353.563 217.352C353.473 217.462 353.353 217.522 353.223 217.522L353.213 217.532ZM166.427 221.228C166.297 221.228 166.167 221.178 166.067 221.067C160.909 215.029 156.33 208.46 152.451 201.54C152.331 201.32 152.411 201.05 152.621 200.93C152.841 200.809 153.111 200.879 153.231 201.1C157.08 207.969 161.628 214.488 166.747 220.487C166.906 220.677 166.886 220.957 166.697 221.117C166.617 221.188 166.517 221.218 166.417 221.228H166.427ZM374.636 175.454C374.636 175.454 374.546 175.454 374.506 175.434C374.266 175.364 374.126 175.114 374.196 174.884C376.306 167.373 377.695 159.572 378.315 151.732V151.621C378.345 151.371 378.565 151.181 378.805 151.201C379.055 151.221 379.235 151.431 379.225 151.682V151.812C378.585 159.713 377.185 167.563 375.066 175.134C375.016 175.334 374.836 175.454 374.646 175.464L374.636 175.454ZM143.344 180.051C143.155 180.051 142.965 179.931 142.905 179.74C140.445 172.19 138.736 164.369 137.806 156.478C137.776 156.228 137.956 156.007 138.196 155.977C138.456 155.947 138.666 156.128 138.696 156.368C139.616 164.199 141.325 171.96 143.764 179.46C143.844 179.7 143.714 179.951 143.474 180.031C143.434 180.041 143.394 180.051 143.344 180.051ZM378.345 128.369C378.115 128.369 377.915 128.209 377.885 127.969C376.975 120.138 375.276 112.367 372.847 104.877C372.767 104.637 372.897 104.386 373.137 104.306C373.377 104.226 373.627 104.356 373.706 104.596C376.156 112.147 377.865 119.978 378.785 127.859C378.815 128.109 378.635 128.329 378.395 128.359C378.385 128.359 378.365 128.359 378.355 128.359L378.345 128.369ZM137.796 133.146C137.796 133.146 137.766 133.146 137.746 133.146C137.496 133.126 137.316 132.906 137.336 132.655L137.356 132.415C137.996 124.464 139.396 116.583 141.545 108.973C141.615 108.732 141.865 108.592 142.105 108.662C142.345 108.732 142.485 108.983 142.415 109.223C140.285 116.773 138.886 124.604 138.256 132.495L138.236 132.735C138.216 132.966 138.026 133.146 137.806 133.146H137.796ZM363.78 83.4573C363.62 83.4573 363.46 83.3772 363.37 83.227C359.521 76.3575 354.983 69.8285 349.875 63.8302C349.715 63.6399 349.735 63.3595 349.925 63.1993C350.114 63.0391 350.394 63.0591 350.554 63.2494C355.703 69.2977 360.271 75.8668 364.15 82.7864C364.27 83.0067 364.19 83.277 363.98 83.3972C363.91 83.4373 363.84 83.4573 363.77 83.4573H363.78ZM153.061 81.5747C156.03 76.4076 159.389 71.4507 163.088 66.7742C163.238 66.574 163.528 66.5439 163.718 66.7042C163.907 66.8544 163.947 67.1448 163.788 67.335C160.099 72.0115 156.74 76.9683 153.781 82.1355C153.701 82.2757 153.471 82.4259 153.161 82.2256C152.931 82.0754 152.951 81.785 153.061 81.5847V81.5747ZM333.18 47.5176C333.08 47.5176 332.97 47.4876 332.89 47.4175C326.712 42.5207 320.025 38.2248 313.027 34.6399C312.807 34.5297 312.717 34.2593 312.827 34.029C312.937 33.8087 313.207 33.7186 313.427 33.8287C320.475 37.4337 327.212 41.7697 333.44 46.6965C333.63 46.8467 333.67 47.1371 333.51 47.3274C333.42 47.4375 333.3 47.4976 333.17 47.4976L333.18 47.5176ZM179.892 50.4116C179.762 50.4116 179.632 50.3616 179.532 50.2514C179.372 50.0612 179.392 49.7808 179.582 49.6206C185.62 44.4634 192.188 39.8871 199.096 36.0118C199.306 35.8916 199.585 35.9717 199.705 36.182C199.825 36.4023 199.745 36.6727 199.535 36.7928C192.678 40.6381 186.16 45.1844 180.172 50.3015C180.092 50.3716 179.992 50.4016 179.892 50.4116ZM291.184 26.038C291.184 26.038 291.094 26.038 291.044 26.0179C283.527 23.895 275.73 22.5031 267.872 21.8722C267.622 21.8522 267.412 21.6319 267.432 21.3916C267.452 21.1412 267.622 20.961 267.882 20.971H267.952C275.86 21.6018 283.717 23.0138 291.294 25.1467C291.534 25.2168 291.674 25.4672 291.604 25.6975C291.554 25.8878 291.374 26.0179 291.184 26.028V26.038ZM221.038 27.3498C220.838 27.3498 220.658 27.2296 220.598 27.0394C220.518 26.799 220.648 26.5487 220.888 26.4686C228.426 24.0152 236.243 22.3128 244.12 21.3916C244.36 21.3615 244.59 21.5418 244.62 21.7821C244.65 22.0324 244.47 22.2527 244.23 22.2828C236.413 23.194 228.656 24.8864 221.178 27.3197C221.138 27.3298 221.098 27.3398 221.048 27.3398L221.038 27.3498Z" fill="#22571A"/>
<path d="M258.274 234.216C309.056 234.216 350.223 192.978 350.223 142.108C350.223 91.2389 309.056 50.0011 258.274 50.0011C207.492 50.0011 166.325 91.2389 166.325 142.108C166.325 192.978 207.492 234.216 258.274 234.216Z" fill="#2C9FDC" stroke="#22571A" stroke-width="0.9" stroke-linecap="round" stroke-linejoin="round"/>
<path d="M208.551 170.738C198.924 170.738 194.926 168.555 194.176 163.738C193.166 157.319 202.953 149.849 208.551 142.098C216.348 131.313 219.207 114.781 207.861 114.781C196.515 114.781 189.377 126.577 196.005 103.405C199.954 89.6259 196.435 81.5747 192.936 77.2988C176.492 93.9418 166.325 116.833 166.325 142.098C166.325 142.128 166.325 142.148 166.325 142.178C166.325 147.516 168.305 152.663 171.743 156.739C178.261 164.479 186.738 171.599 196.675 173.392C220.717 177.728 192.156 178.739 197.475 194.671C202.793 210.603 227.255 219.846 239.041 221.518C246.948 222.64 233.283 210.513 233.562 187.211C233.852 162.426 218.178 170.728 208.551 170.728V170.738Z" fill="#80C93C"/>
<path d="M233.212 220.326C235.361 220.887 237.331 221.288 239.05 221.528C246.957 222.65 233.292 210.523 233.572 187.221C233.862 162.436 218.187 170.738 208.56 170.738C198.934 170.738 194.935 168.555 194.185 163.738C193.765 161.055 195.225 158.191 197.484 155.196" stroke="#22571A" stroke-width="0.9" stroke-linecap="round" stroke-linejoin="round"/>
<path d="M202.093 149.689C203.573 148.017 207.311 143.821 208.551 142.108C216.348 131.323 219.207 114.791 207.861 114.791C196.515 114.791 189.377 126.587 196.005 103.415C199.954 89.6359 196.435 81.5847 192.936 77.3088C176.492 93.9518 166.325 116.843 166.325 142.108C166.325 142.138 166.325 142.158 166.325 142.188C166.325 147.526 168.305 152.673 171.743 156.749C178.261 164.489 186.738 171.609 196.675 173.402C220.717 177.738 192.156 178.749 197.475 194.681C201.293 206.127 214.979 214.108 226.765 218.324" stroke="#22571A" stroke-width="0.9" stroke-linecap="round" stroke-linejoin="round"/>
<path d="M211.119 77.2687C208.2 75.1458 208.45 70.7097 211.539 68.8471C219.387 64.1106 240.04 52.9051 248.197 60.5957C258.373 70.1889 236.521 83.8478 236.291 93.0705C236.061 102.293 218.677 95.3537 217.697 85.9908C217.137 80.5933 213.679 79.1313 211.119 77.2687Z" fill="#80C93C"/>
<path d="M211.119 77.2687C208.2 75.1458 208.45 70.7097 211.539 68.8471C219.387 64.1106 240.04 52.9051 248.197 60.5957C256.204 68.1361 244.388 78.2 238.87 86.6417" fill="#80C93C"/>
<path d="M211.119 77.2687C208.2 75.1458 208.45 70.7097 211.539 68.8471C219.387 64.1106 240.04 52.9051 248.197 60.5957C256.204 68.1361 244.388 78.2 238.87 86.6417" stroke="#22571A" stroke-width="0.9" stroke-linecap="round" stroke-linejoin="round"/>
<path d="M236.291 93.0605C236.061 102.283 218.677 95.3437 217.698 85.9807C217.338 82.5159 215.788 80.6734 214.049 79.3115" fill="#80C93C"/>
<path d="M236.291 93.0605C236.061 102.283 218.677 95.3437 217.698 85.9807C217.338 82.5159 215.788 80.6734 214.049 79.3115" stroke="#22571A" stroke-width="0.9" stroke-linecap="round" stroke-linejoin="round"/>
<path d="M305.758 63.2093C302.029 60.9562 297.521 60.1651 293.372 61.4869C289.224 62.8088 285.705 66.0032 284.915 72.5622C282.556 92.1393 299.4 105.147 306.598 93.1707C310.866 86.0609 300.73 77.7294 300.19 73.2432C299.77 69.7584 305.368 75.8568 306.838 77.5892C310.186 81.5446 316.174 86.4815 309.257 96.9759C305.978 101.953 295.701 110.825 306.838 120.298C320.273 131.724 323.212 116.453 331.109 113.809C335.898 112.207 337.897 117.995 338.007 122.621C338.067 125.415 335.508 127.528 332.779 126.977C324.182 125.245 299.57 125.195 306.848 152.092C311.876 170.668 331.049 158.03 328.73 172.891C326.411 187.751 305.578 206.317 324.682 201.12C327.181 200.439 329.67 199.007 332.089 197.054C343.495 181.713 350.243 162.697 350.243 142.098C350.243 108.632 332.419 79.3316 305.768 63.2093H305.758Z" fill="#80C93C"/>
<path d="M328.72 172.901C326.401 187.761 305.568 206.327 324.672 201.13C327.171 200.449 329.66 199.017 332.079 197.064C343.485 181.723 350.233 162.707 350.233 142.108C350.233 108.642 332.409 79.3416 305.758 63.2193C302.029 60.9662 297.521 60.1751 293.372 61.4969C289.224 62.8188 285.705 66.0132 284.915 72.5722C282.556 92.1493 299.4 105.157 306.598 93.1807C309.987 87.5329 304.288 81.114 301.529 76.4676" stroke="#22571A" stroke-width="0.9" stroke-linecap="round" stroke-linejoin="round"/>
<path d="M321.982 121.53C324.961 118.806 327.53 115.011 331.109 113.809C335.898 112.207 337.897 117.995 338.007 122.621C338.067 125.415 335.508 127.528 332.779 126.977C324.182 125.245 299.57 125.195 306.847 152.092C310.526 165.681 321.772 162.567 326.641 165.731" stroke="#22571A" stroke-width="0.9" stroke-linecap="round" stroke-linejoin="round"/>
<path d="M300.2 73.2432C299.78 69.7584 305.378 75.8568 306.848 77.5892C310.197 81.5446 316.185 86.4815 309.267 96.976C305.988 101.953 295.712 110.825 306.848 120.298C311.896 124.584 315.455 125.115 318.364 123.963" stroke="#22571A" stroke-width="0.9" stroke-linecap="round" stroke-linejoin="round"/>
<path d="M295.941 101.192C287.984 97.4265 279.877 91.7787 282.226 99.95C284.575 108.121 295.451 111.336 295.941 108.121C296.431 104.907 298.79 102.534 295.941 101.192Z" fill="#80C93C"/>
<path d="M294.412 109.313C295.261 109.193 295.831 108.802 295.941 108.121C296.431 104.907 298.79 102.534 295.941 101.192C287.984 97.4265 279.877 91.7787 282.226 99.95C283.605 104.757 287.934 107.841 291.363 108.922" fill="#80C93C"/>
<path d="M294.412 109.313C295.261 109.193 295.831 108.802 295.941 108.121C296.431 104.907 298.79 102.534 295.941 101.192C287.984 97.4265 279.877 91.7787 282.226 99.95C283.605 104.757 287.934 107.841 291.363 108.922" stroke="#22571A" stroke-width="0.9" stroke-linecap="round" stroke-linejoin="round"/>
<path d="M202.643 77.3188C202.643 77.3188 210.26 83.4173 213.049 87.7432C215.838 92.0692 212.319 104.276 207.861 98.9287C203.402 93.5813 196.165 76.8081 202.643 77.3088V77.3188Z" fill="#80C93C"/>
<path d="M207.771 81.815C209.76 83.7077 211.85 85.8907 213.049 87.7432C215.838 92.0692 212.319 104.276 207.861 98.9287C203.402 93.5813 196.165 76.8081 202.643 77.3088C202.643 77.3088 204.032 78.4304 205.852 80.0426" fill="#80C93C"/>
<path d="M207.771 81.815C209.76 83.7077 211.85 85.8907 213.049 87.7432C215.838 92.0692 212.319 104.276 207.861 98.9287C203.402 93.5813 196.165 76.8081 202.643 77.3088C202.643 77.3088 204.032 78.4304 205.852 80.0426" stroke="#22571A" stroke-width="0.9" stroke-linecap="round" stroke-linejoin="round"/>
<path d="M280.556 128.079C268.5 127.138 263.612 139.825 262.932 141.798H262.852C262.922 139.945 263.012 128.65 254.955 125.475C246.168 122.01 235.751 124.244 232.802 117.024C232.802 117.024 227.624 139.845 245.098 144.031C248.587 144.872 251.656 144.972 254.215 144.712C256.774 144.451 258.913 146.394 258.913 148.928V168.304C258.913 169.837 260.153 171.068 261.672 171.068C263.202 171.068 264.431 169.826 264.431 168.304V146.264C264.431 145.403 265.421 144.932 266.091 145.463C274.148 151.721 283.415 144.752 288.073 138.113C292.752 131.433 295.551 130.001 295.551 130.001C290.393 130.612 289.093 128.74 280.536 128.069L280.556 128.079Z" fill="#AADC6C"/>
<path d="M238.03 121.7C235.661 120.839 233.802 119.477 232.802 117.024C232.802 117.024 227.624 139.845 245.098 144.031C248.587 144.872 251.656 144.972 254.215 144.712C256.774 144.451 258.913 146.394 258.913 148.928V166.662" stroke="#22571A" stroke-width="0.9" stroke-linecap="round" stroke-linejoin="round"/>
<path d="M269.139 147.205C276.387 150.009 284.014 143.941 288.103 138.123C292.781 131.443 295.58 130.012 295.58 130.012C290.422 130.622 289.122 128.75 280.565 128.079C268.509 127.138 263.621 139.825 262.941 141.798H262.861C262.931 139.945 263.021 128.65 254.964 125.475C250.106 123.563 244.737 123.382 240.419 122.391" stroke="#22571A" stroke-width="0.9" stroke-linecap="round" stroke-linejoin="round"/>
<path d="M258.924 168.314C258.924 169.846 260.163 171.078 261.683 171.078C263.212 171.078 264.442 169.836 264.442 168.314V146.274C264.442 145.873 264.662 145.553 264.962 145.383C265.302 145.192 265.752 145.192 266.111 145.473C266.551 145.813 266.991 146.114 267.441 146.374" stroke="#22571A" stroke-width="0.9" stroke-linecap="round" stroke-linejoin="round"/>
<path d="M260.022 141.958C260.022 141.958 256.453 131.654 245.957 131.133" stroke="#22571A" stroke-width="0.9" stroke-linecap="round" stroke-linejoin="round"/>
<path d="M265.37 141.958C265.37 141.958 269.399 136.911 277.826 135.129" stroke="#22571A" stroke-width="0.9" stroke-linecap="round" stroke-linejoin="round"/>
<path d="M236.812 90.5472C236.812 90.5472 237.342 89.1953 237.822 88.3641" stroke="#22571A" stroke-width="0.9" stroke-linecap="round" stroke-linejoin="round"/>
<path d="M328.23 167.443C328.23 167.443 328.91 168.425 328.89 170.007" stroke="#22571A" stroke-width="0.9" stroke-linecap="round" stroke-linejoin="round"/>
<path d="M341.197 181.953C339.858 184.757 338.368 187.481 336.759 190.115L350.184 205.906L358.162 201.681C358.162 201.681 347.455 187.411 341.197 181.953Z" fill="#FFE1C4" stroke="#22571A" stroke-width="0.9" stroke-linecap="round" stroke-linejoin="round"/>
<path d="M345.526 185.599C342.517 186.64 339.378 190.976 338.828 193.409L350.234 207.018L358.162 197.946L345.516 185.589L345.526 185.599Z" fill="#71D3E6" stroke="#22571A" stroke-width="0.9" stroke-linecap="round" stroke-linejoin="round"/>
<path d="M384.092 262.525C384.092 262.525 387.221 276.154 391.599 280.069C395.978 283.984 398.637 267.381 397.067 264.718C395.498 262.054 389.58 258.77 389.58 258.77L384.092 262.525Z" fill="#8E9BB0" stroke="#22571A" stroke-width="0.9" stroke-linecap="round" stroke-linejoin="round"/>
<path d="M359.571 254.494C359.571 254.494 365.729 265.669 369.168 266.14C372.607 266.61 370.668 256.176 370.668 256.176L367.019 253.042L359.581 254.494H359.571Z" fill="#8E9BB0" stroke="#22571A" stroke-width="0.9" stroke-linecap="round" stroke-linejoin="round"/>
<path d="M364.549 240.745C364.549 240.745 378.774 260.492 384.722 266.751C384.722 266.751 389.72 266.771 392.699 259.871L374.246 227.126L364.549 240.745Z" fill="#468A3B" stroke="#22571A" stroke-width="0.9" stroke-linecap="round" stroke-linejoin="round"/>
<path d="M361.42 231.822C361.42 231.822 347.345 230.901 349.694 241.466C352.043 252.03 361.42 257.508 361.42 257.508L369.707 254.494L361.42 231.822Z" fill="#468A3B" stroke="#22571A" stroke-width="0.9" stroke-linecap="round" stroke-linejoin="round"/>
<path d="M358.761 215.059C365.149 215.059 370.327 209.872 370.327 203.473C370.327 197.074 365.149 191.887 358.761 191.887C352.374 191.887 347.195 197.074 347.195 203.473C347.195 209.872 352.374 215.059 358.761 215.059Z" fill="#FFE1C4" stroke="#22571A" stroke-width="0.9" stroke-linecap="round" stroke-linejoin="round"/>
<path d="M370.297 202.702C369.897 196.674 364.919 191.907 358.801 191.887C359.201 197.915 364.179 202.682 370.297 202.702Z" fill="#4C5461" stroke="#22571A" stroke-width="0.9" stroke-linecap="round" stroke-linejoin="round"/>
<path d="M371.267 196.423C375.584 196.423 379.084 192.917 379.084 188.593C379.084 184.268 375.584 180.762 371.267 180.762C366.949 180.762 363.449 184.268 363.449 188.593C363.449 192.917 366.949 196.423 371.267 196.423Z" fill="#4C5461" stroke="#22571A" stroke-width="0.9" stroke-linecap="round" stroke-linejoin="round"/>
<path d="M358.081 215.87C351.204 209.471 329.471 192.468 326.442 193.559C325.292 193.97 324.783 194.931 324.643 195.622C323.293 202.271 332.49 208.129 339.997 213.867C348.015 219.996 350.944 222.269 350.944 222.269L364.549 240.735C364.549 240.735 376.585 239.333 377.835 225.243C378.634 216.251 373.136 211.214 369.058 208.74C367.138 212.485 363.26 215.059 358.761 215.059" fill="#FFE1C4"/>
<path d="M358.081 215.87C351.204 209.471 329.471 192.468 326.442 193.559C325.292 193.97 324.783 194.931 324.643 195.622C323.293 202.271 332.49 208.129 339.997 213.867C348.015 219.996 350.944 222.269 350.944 222.269L364.549 240.735C364.549 240.735 376.585 239.333 377.835 225.243C378.634 216.251 373.136 211.214 369.058 208.74C367.138 212.485 363.26 215.059 358.761 215.059" stroke="#22571A" stroke-width="0.9" stroke-linecap="round" stroke-linejoin="round"/>
<path d="M358.081 215.87C353.982 212.055 345.205 204.444 338.267 199.578L331.939 208.45C334.009 210.693 337.418 212.926 340.027 215.069C347.904 221.528 350.233 223.05 350.233 223.05L364.149 241.546C364.149 241.546 377.934 237.74 377.834 225.243C377.764 216.211 373.136 211.214 369.057 208.74C367.138 212.486 363.259 215.059 358.76 215.059" fill="#71D3E6"/>
<path d="M358.081 215.87C353.982 212.055 345.205 204.444 338.267 199.578L331.939 208.45C334.009 210.693 337.418 212.926 340.027 215.069C347.904 221.528 350.233 223.05 350.233 223.05L364.149 241.546C364.149 241.546 377.934 237.74 377.834 225.243C377.764 216.211 373.136 211.214 369.057 208.74C367.138 212.486 363.259 215.059 358.76 215.059" stroke="#22571A" stroke-width="0.9" stroke-linecap="round" stroke-linejoin="round"/>
<path d="M417.241 224.552C416.612 214.128 419.591 206.918 419.591 206.918C419.591 206.918 411.613 202.842 406.305 207.699C400.987 212.556 391.92 215.059 385.822 209.582C382.713 206.788 374.846 205.806 369.788 207.018C368.298 211.684 363.93 215.069 358.771 215.069C358.591 215.069 358.421 215.049 358.251 215.039C357.922 217.172 358.461 220.887 364.879 223.521C374.406 227.436 376.745 232.053 380.034 237.73C383.313 243.408 393.48 246.242 401.297 241.456C409.114 236.669 421 242.777 421 242.777C421 242.777 417.871 234.967 417.251 224.542L417.241 224.552Z" fill="#FF9894" stroke="#22571A" stroke-width="0.9" stroke-linecap="round" stroke-linejoin="round"/>
<path d="M367.968 202.702C368.358 201.721 369.387 201.13 370.287 201.13C372.096 201.13 373.566 202.602 373.566 204.414C373.566 206.227 372.096 207.699 370.287 207.699C369.877 207.699 369.477 207.619 369.117 207.479" fill="#FFE1C4"/>
<path d="M367.968 202.702C368.358 201.721 369.387 201.13 370.287 201.13C372.096 201.13 373.566 202.602 373.566 204.414C373.566 206.227 372.096 207.699 370.287 207.699C369.877 207.699 369.477 207.619 369.117 207.479" stroke="#22571A" stroke-width="0.9" stroke-linecap="round" stroke-linejoin="round"/>
<path d="M360.428 200.001C360.504 199.302 360.156 198.692 359.651 198.636C359.146 198.581 358.675 199.102 358.599 199.801C358.523 200.499 358.87 201.11 359.375 201.165C359.881 201.22 360.352 200.699 360.428 200.001Z" fill="#22571A"/>
<path d="M353.99 196.734C354.066 196.036 353.719 195.425 353.214 195.37C352.708 195.315 352.237 195.836 352.161 196.534C352.085 197.233 352.433 197.843 352.938 197.899C353.443 197.954 353.914 197.433 353.99 196.734Z" fill="#22571A"/>
<path d="M355.033 198.646C355.033 198.646 354.503 199.347 354.023 199.347C353.543 199.347 353.593 200.269 354.213 200.749" stroke="#22571A" stroke-width="0.9" stroke-linecap="round" stroke-linejoin="round"/>
<path d="M352.144 202.292C354.133 202.512 358.282 204.855 358.282 204.855C358.282 204.855 357.622 208.009 354.103 207.108C351.344 206.397 352.144 202.281 352.144 202.281V202.292Z" fill="white" stroke="#22571A" stroke-width="0.9" stroke-linecap="round" stroke-linejoin="round"/>
<path d="M323.063 303.011C323.063 303.011 323.833 317.751 327.582 317.441C331.331 317.13 334.25 309.99 334.25 307.847C334.25 305.704 332.72 300.938 332.72 300.938L323.063 303.011Z" fill="#8E9BB0" stroke="#22571A" stroke-width="0.9" stroke-linecap="round" stroke-linejoin="round"/>
<path d="M347.194 294.589C347.194 294.589 348.524 298.394 350.123 299.896C352.802 302.41 358.211 304.082 363.239 301.649C368.737 298.995 352.882 287.078 352.882 287.078L347.194 294.589Z" fill="#8E9BB0" stroke="#22571A" stroke-width="0.9" stroke-linecap="round" stroke-linejoin="round"/>
<path d="M324.672 235.898C324.672 235.898 340.926 249.136 355.861 251.049C370.796 252.961 369.707 254.494 369.707 254.494C369.707 254.494 365.488 260.011 365.958 265.969C366.428 271.928 360.79 276.364 355.871 276.103C350.953 275.843 347.214 280.069 347.204 283.674C347.194 287.279 324.682 235.908 324.682 235.908L324.672 235.898Z" fill="#FF9894" stroke="#22571A" stroke-width="0.9" stroke-linecap="round" stroke-linejoin="round"/>
<path d="M311.197 262.535C311.197 262.535 319.374 300.217 322.423 305.414C322.423 305.414 331.96 304.272 334.879 302.65L328.022 273.9C328.022 273.9 344.126 294.489 346.555 296.942C346.555 296.942 354.413 296.311 355.872 287.87C355.872 287.87 335.859 260.652 335.049 256.106L311.207 262.525L311.197 262.535Z" fill="#468A3B" stroke="#22571A" stroke-width="0.9" stroke-linecap="round" stroke-linejoin="round"/>
<path d="M325.382 240.745C322.303 239.673 317.825 241.005 314.036 242.637L298.801 224.803C296.132 226.114 293.393 227.306 290.584 228.368L306.259 247.724C306.649 248.205 306.918 248.756 307.058 249.357L311.777 269.554C311.777 269.554 318.195 270.556 324.672 267.962C337.028 263.025 337.818 259.871 337.818 259.871C337.818 259.871 331.69 242.928 325.382 240.735V240.745Z" fill="#FFE1C4" stroke="#22571A" stroke-width="0.9" stroke-linecap="round" stroke-linejoin="round"/>
<path d="M325.382 240.745C322.304 239.673 317.825 241.005 314.036 242.637L300.501 226.245C298.122 227.166 295.223 229.559 293.193 232.593L306.259 247.724C306.649 248.205 306.919 248.756 307.059 249.356L311.777 269.554C311.777 269.554 318.195 270.556 324.673 267.962C337.029 263.025 337.818 259.871 337.818 259.871C337.818 259.871 331.69 242.928 325.382 240.735V240.745Z" fill="#2C9FDC" stroke="#22571A" stroke-width="0.9" stroke-linecap="round" stroke-linejoin="round"/>
<path d="M312.617 244.9C318.507 244.9 323.283 240.117 323.283 234.216C323.283 228.314 318.507 223.531 312.617 223.531C306.726 223.531 301.95 228.314 301.95 234.216C301.95 240.117 306.726 244.9 312.617 244.9Z" fill="#FFE1C4" stroke="#22571A" stroke-width="0.9" stroke-linecap="round" stroke-linejoin="round"/>
<path d="M311.327 223.611C313.137 226.925 316.655 229.179 320.694 229.179C321.134 229.179 321.564 229.149 321.984 229.088C320.174 225.774 316.655 223.521 312.617 223.521C312.177 223.521 311.747 223.551 311.327 223.611Z" fill="#4C5461" stroke="#22571A" stroke-width="0.9" stroke-linecap="round" stroke-linejoin="round"/>
<path d="M320.084 244.66C320.084 244.66 317.585 216.831 318.255 211.043C318.924 205.255 322.953 202.432 325.512 205.396C328.071 208.36 330.381 246.382 330.381 246.382" fill="#FFE1C4"/>
<path d="M320.084 244.66C320.084 244.66 317.585 216.831 318.255 211.043C318.924 205.255 322.953 202.432 325.512 205.396C328.071 208.36 330.381 246.382 330.381 246.382" stroke="#22571A" stroke-width="0.9" stroke-linecap="round" stroke-linejoin="round"/>
<path d="M330.381 246.382C330.381 246.382 330.331 231.832 329.032 219.966C326.233 219.175 319.565 219.706 317.945 220.697C318.445 230.881 320.095 244.66 320.095 244.66" fill="#2C9FDC"/>
<path d="M330.381 246.382C330.381 246.382 330.331 231.832 329.032 219.966C326.233 219.175 319.565 219.706 317.945 220.697C318.445 230.881 320.095 244.66 320.095 244.66" stroke="#22571A" stroke-width="0.9" stroke-linecap="round" stroke-linejoin="round"/>
<path d="M306.799 234.656C308.668 233.955 314.476 234.316 314.476 234.316C314.476 234.316 315.236 238.842 310.247 238.742C306.419 238.662 306.799 234.656 306.799 234.656Z" fill="white" stroke="#22571A" stroke-width="0.9" stroke-linecap="round" stroke-linejoin="round"/>
<path d="M312.797 230.21C313.333 230.21 313.767 229.775 313.767 229.239C313.767 228.702 313.333 228.267 312.797 228.267C312.261 228.267 311.827 228.702 311.827 229.239C311.827 229.775 312.261 230.21 312.797 230.21Z" fill="#22571A"/>
<path d="M305.879 230.12C306.415 230.12 306.849 229.685 306.849 229.149C306.849 228.612 306.415 228.177 305.879 228.177C305.343 228.177 304.909 228.612 304.909 229.149C304.909 229.685 305.343 230.12 305.879 230.12Z" fill="#22571A"/>
<path d="M309.389 229.85C309.389 229.85 308.229 229.89 308.349 230.871C308.419 231.402 309.059 231.732 309.059 231.732" stroke="#22571A" stroke-width="0.9" stroke-linecap="round" stroke-linejoin="round"/>
<path d="M319.864 253.352C320.184 253.392 320.433 253.432 320.613 253.472C320.793 253.522 320.993 253.592 321.193 253.682C321.843 254.093 322.333 254.684 322.653 255.445C323.163 256.656 323.123 257.808 322.543 258.92C321.923 260.101 320.763 261.053 319.064 261.764C317.634 262.364 316.295 262.515 315.035 262.224C313.936 261.964 313.236 261.483 312.946 260.782C312.496 259.711 312.926 258.91 314.216 258.369C314.695 258.169 315.275 258.169 315.965 258.369C316.655 258.559 317.474 258.459 318.424 258.058C319.174 257.748 319.454 257.347 319.254 256.877C319.144 256.626 318.494 256.626 317.285 256.877C317.105 256.897 316.715 256.947 316.115 257.027C315.565 257.107 315.115 257.157 314.765 257.187C313.596 257.287 312.666 257.157 311.966 256.787C311.347 256.436 310.887 255.915 310.597 255.214C310.127 254.083 310.187 253.001 310.787 251.95C311.426 250.818 312.596 249.897 314.296 249.176C315.725 248.575 317.055 248.405 318.294 248.645C319.374 248.866 320.054 249.296 320.323 249.947C320.743 250.949 320.303 251.72 319.004 252.26C318.534 252.461 317.954 252.471 317.275 252.3C316.595 252.13 315.785 252.24 314.835 252.641C314.096 252.971 313.816 253.362 313.996 253.813C314.096 254.043 314.745 254.013 315.935 253.722C316.115 253.702 316.495 253.652 317.095 253.552C317.644 253.462 318.094 253.402 318.434 253.362C319.054 253.302 319.524 253.292 319.844 253.322L319.864 253.352Z" fill="white" stroke="#22571A" stroke-width="0.9" stroke-linecap="round" stroke-linejoin="round"/>
<path d="M177.952 186.96L166.855 196.223L168.825 204.735L181.67 193.479C181.73 193.429 181.78 193.359 181.84 193.309C180.461 191.246 179.171 189.133 177.952 186.96Z" fill="#FFE1C4" stroke="#22571A" stroke-width="0.9" stroke-linecap="round" stroke-linejoin="round"/>
<path d="M172.883 190.926C172.883 190.926 175.542 192.197 177.821 196.994L169.314 204.745L166.325 195.963L172.883 190.926Z" fill="#AADC6C" stroke="#22571A" stroke-width="0.9" stroke-linecap="round" stroke-linejoin="round"/>
<path d="M149.492 257.528C149.492 257.528 146.563 262.294 146.153 263.496C145.743 264.698 152.301 270.546 155.95 270.546C159.599 270.546 154.08 259.27 154.08 259.27L149.502 257.538L149.492 257.528Z" fill="#8E9BB0" stroke="#22571A" stroke-width="0.9" stroke-linecap="round" stroke-linejoin="round"/>
<path d="M156.589 232.193C156.589 232.193 170.524 231.902 169.665 239.363C168.805 246.823 155.659 262.174 155.659 262.174C155.659 262.174 150.861 262.174 147.622 258.108L156.599 232.193H156.589Z" fill="#468A3B" stroke="#22571A" stroke-width="0.9" stroke-linecap="round" stroke-linejoin="round"/>
<path d="M159.119 214.638C165.689 214.638 171.015 209.303 171.015 202.722C171.015 196.141 165.689 190.806 159.119 190.806C152.549 190.806 147.223 196.141 147.223 202.722C147.223 209.303 152.549 214.638 159.119 214.638Z" fill="#FFE1C4" stroke="#22571A" stroke-width="0.9" stroke-linecap="round" stroke-linejoin="round"/>
<path d="M161.918 193.199C163.737 194.34 165.876 195.011 168.186 195.021C166.006 192.448 162.757 190.816 159.119 190.816C152.551 190.816 147.223 196.153 147.223 202.732C147.223 202.802 147.223 202.862 147.223 202.932C148.162 203.173 149.142 203.313 150.162 203.313C156.11 203.313 161.028 198.927 161.898 193.209L161.918 193.199Z" fill="#4C5461" stroke="#22571A" stroke-width="0.9" stroke-linecap="round" stroke-linejoin="round"/>
<path d="M134.537 266.23C134.537 266.23 131.888 274.711 128.639 276.915C125.39 279.118 124.07 266.45 124.07 264.638C124.07 262.825 128.709 258.679 128.709 258.679L134.527 266.23H134.537Z" fill="#8E9BB0" stroke="#22571A" stroke-width="0.9" stroke-linecap="round" stroke-linejoin="round"/>
<path d="M155.189 240.094C155.189 240.094 139.125 262.104 134.536 267.361C134.536 267.361 127.999 266.04 126.999 259.45L143.603 230.28L155.189 240.094Z" fill="#468A3B" stroke="#22571A" stroke-width="0.9" stroke-linecap="round" stroke-linejoin="round"/>
<path d="M176.893 206.157L185.979 197.685C186.809 196.894 188.129 197.004 188.829 197.905L189.228 198.426C190.838 200.509 190.528 203.493 188.519 205.195L179.062 213.237L176.893 206.167V206.157Z" fill="#FFE1C4" stroke="#22571A" stroke-width="0.9" stroke-linecap="round" stroke-linejoin="round"/>
<path d="M178.752 203.974L166.276 212.225C164.287 213.737 161.808 214.638 159.119 214.638C157.169 214.638 155.33 214.158 153.711 213.327L142.374 226.024C142.154 226.265 142.035 226.585 142.045 226.915C142.354 235.557 152.121 239.172 155.19 240.094C155.73 240.254 156.3 240.044 156.61 239.583C158.049 237.4 162.368 230.951 166.526 225.534C171.625 218.894 183.89 209.812 183.89 209.812C181.781 204.404 178.752 203.984 178.752 203.984V203.974Z" fill="#AADC6C" stroke="#22571A" stroke-width="0.9" stroke-linecap="round" stroke-linejoin="round"/>
<path d="M159.119 214.638C154.44 214.638 150.412 211.925 148.462 207.989C146.303 207.288 141.215 206.207 134.537 208.42C125.58 211.394 120.702 216.451 115.134 210.002C109.565 203.553 98.2592 207.098 98.2592 207.098C98.2592 207.098 105.737 222.73 96 241.546C96 241.546 108.356 236.318 113.574 240.144C117.753 243.208 127.999 243.468 136.536 238.581C146.893 232.663 142.034 224.292 162.448 214.148C161.388 214.448 160.278 214.628 159.119 214.628V214.638Z" fill="#FF9894" stroke="#22571A" stroke-width="0.9" stroke-linecap="round" stroke-linejoin="round"/>
<path d="M160.879 202.482C161.387 202.482 161.799 201.912 161.799 201.21C161.799 200.507 161.387 199.938 160.879 199.938C160.371 199.938 159.959 200.507 159.959 201.21C159.959 201.912 160.371 202.482 160.879 202.482Z" fill="#22571A"/>
<path d="M167.626 199.928C168.134 199.928 168.546 199.359 168.546 198.656C168.546 197.954 168.134 197.385 167.626 197.385C167.118 197.385 166.706 197.954 166.706 198.656C166.706 199.359 167.118 199.928 167.626 199.928Z" fill="#22571A"/>
<path d="M165.457 200.459C165.457 200.459 165.907 201.21 166.387 201.27C166.867 201.33 166.707 202.231 166.047 202.642" stroke="#22571A" stroke-width="0.9" stroke-linecap="round" stroke-linejoin="round"/>
<path d="M167.935 204.394C165.936 204.394 161.558 206.277 161.558 206.277C161.558 206.277 161.868 209.491 165.466 208.971C168.285 208.57 167.945 204.394 167.945 204.394H167.935Z" fill="white" stroke="#22571A" stroke-width="0.9" stroke-linecap="round" stroke-linejoin="round"/>
<path d="M149.602 208.42C149.142 208.67 148.613 208.81 148.043 208.81C146.203 208.81 144.714 207.318 144.714 205.476C144.714 203.633 146.203 202.141 148.043 202.141C149.052 202.141 149.952 202.592 150.562 203.293" fill="#FFE1C4"/>
<path d="M149.602 208.42C149.142 208.67 148.613 208.81 148.043 208.81C146.203 208.81 144.714 207.318 144.714 205.476C144.714 203.633 146.203 202.141 148.043 202.141C149.052 202.141 149.952 202.592 150.562 203.293" stroke="#22571A" stroke-width="0.9" stroke-linecap="round" stroke-linejoin="round"/>
<path d="M195.286 206.537C194.666 213.407 192.517 237.14 190.718 242.367L200.185 244.35C200.185 244.35 202.494 222.72 202.774 213.717C202.804 210.943 203.244 208.931 199.945 206.227C198.915 205.386 197.775 204.965 196.826 205.015C196.006 205.055 195.366 205.716 195.286 206.537Z" fill="#FFE1C4" stroke="#22571A" stroke-width="0.9" stroke-linecap="round" stroke-linejoin="round"/>
<path d="M201.155 227.767C201.155 227.767 192.867 235.607 182.421 235.968C182.421 235.968 182.791 244.74 185.78 248.665C185.78 248.665 199.645 237.49 201.165 227.767H201.155Z" fill="#4C5461" stroke="#22571A" stroke-width="0.9" stroke-linecap="round" stroke-linejoin="round"/>
<path d="M196.876 236.469C196.876 236.469 174.874 250.538 151.672 255.585C151.672 255.585 148.203 270.606 159.129 276.093C170.055 281.581 171.785 285.316 171.785 285.316L202.804 242.357L196.876 236.458V236.469Z" fill="#FF9894" stroke="#22571A" stroke-width="0.9" stroke-linecap="round" stroke-linejoin="round"/>
<path d="M222.818 227.116L206.113 245.03L214.65 248.676C216.48 246.162 225.877 235.357 230.585 229.97C227.936 229.139 225.347 228.177 222.818 227.116Z" fill="#FFE1C4" stroke="#22571A" stroke-width="0.9" stroke-linecap="round" stroke-linejoin="round"/>
<path d="M164.856 292.857C164.856 292.857 154.82 295.961 155.19 298.845C155.56 301.729 165.426 302.89 168.745 302.24C172.064 301.589 172.634 297.193 172.634 297.193L164.856 292.867V292.857Z" fill="#8E9BB0" stroke="#22571A" stroke-width="0.9" stroke-linecap="round" stroke-linejoin="round"/>
<path d="M187.33 304.042C187.33 304.042 185.461 306.355 185.82 310.611C186.18 314.867 192.448 320.274 194.777 318.983C197.107 317.691 196.627 305.264 196.627 305.264L187.33 304.032V304.042Z" fill="#8E9BB0" stroke="#22571A" stroke-width="0.9" stroke-linecap="round" stroke-linejoin="round"/>
<path d="M183.571 258.669L163.588 292.516C163.588 292.516 163.918 295.781 172.565 299.215L190.029 277.405L186.08 304.913C186.08 304.913 189.479 309.169 197.356 307.206L207.283 266.039L183.571 258.669Z" fill="#468A3B" stroke="#22571A" stroke-width="0.9" stroke-linecap="round" stroke-linejoin="round"/>
<path d="M193.687 217.572C192.757 226.315 192.037 238.511 190.718 242.367C188.648 248.395 181.851 259.691 181.851 259.691C181.851 259.691 184.72 264.017 193.986 268.353C200.144 271.237 207.282 270.546 207.282 270.546C207.282 270.546 212.2 252.05 214.659 248.675C217.119 245.301 228.135 233.665 228.135 233.665C226.905 231.612 223.357 229.008 221.057 228.337L206.122 245.03L200.194 244.349C200.194 244.349 202.444 228.367 202.993 218.634C201.534 217.542 196.766 216.221 193.697 217.572H193.687Z" fill="#FFED66" stroke="#22571A" stroke-linecap="round" stroke-linejoin="round"/>
<path d="M207.872 247.484C213.945 247.484 218.869 242.552 218.869 236.469C218.869 230.385 213.945 225.453 207.872 225.453C201.799 225.453 196.876 230.385 196.876 236.469C196.876 242.552 201.799 247.484 207.872 247.484Z" fill="#FFE1C4" stroke="#22571A" stroke-width="0.9" stroke-linecap="round" stroke-linejoin="round"/>
<path d="M197.477 232.894C197.557 232.894 197.637 232.904 197.716 232.904C202.535 232.904 206.623 229.789 208.113 225.463C208.033 225.463 207.953 225.453 207.873 225.453C203.055 225.453 198.966 228.568 197.477 232.894Z" fill="#4C5461" stroke="#22571A" stroke-width="0.9" stroke-linecap="round" stroke-linejoin="round"/>
<path d="M214.021 236.839C212.172 236.078 206.364 236.288 206.364 236.288C206.364 236.288 205.484 240.795 210.462 240.825C214.291 240.855 214.021 236.839 214.021 236.839Z" fill="white" stroke="#22571A" stroke-width="0.9" stroke-linecap="round" stroke-linejoin="round"/>
<path d="M208.183 232.223C208.719 232.223 209.153 231.788 209.153 231.251C209.153 230.715 208.719 230.28 208.183 230.28C207.647 230.28 207.213 230.715 207.213 231.251C207.213 231.788 207.647 232.223 208.183 232.223Z" fill="#22571A"/>
<path d="M215.101 232.333C215.637 232.333 216.071 231.898 216.071 231.361C216.071 230.825 215.637 230.39 215.101 230.39C214.565 230.39 214.131 230.825 214.131 231.361C214.131 231.898 214.565 232.333 215.101 232.333Z" fill="#22571A"/>
<path d="M211.571 231.963C211.571 231.963 212.721 232.033 212.581 233.014C212.501 233.545 211.851 233.855 211.851 233.855" stroke="#22571A" stroke-width="0.9" stroke-linecap="round" stroke-linejoin="round"/>
<path d="M202.675 256.516C202.865 256.767 203.015 256.977 203.105 257.147C203.195 257.317 203.285 257.498 203.354 257.718C203.514 258.469 203.424 259.23 203.095 260.001C202.575 261.203 201.715 261.974 200.515 262.324C199.236 262.695 197.746 262.515 196.057 261.774C194.637 261.153 193.598 260.292 192.938 259.18C192.358 258.209 192.228 257.368 192.528 256.667C192.988 255.605 193.858 255.355 195.147 255.916C195.617 256.126 196.027 256.546 196.357 257.177C196.697 257.808 197.337 258.329 198.276 258.739C199.026 259.06 199.496 258.99 199.706 258.519C199.816 258.269 199.356 257.798 198.336 257.097C198.196 256.977 197.896 256.737 197.417 256.356C196.977 256.016 196.627 255.725 196.367 255.495C195.487 254.714 194.937 253.953 194.717 253.192C194.537 252.501 194.597 251.81 194.897 251.119C195.387 249.997 196.217 249.286 197.387 248.996C198.646 248.676 200.116 248.886 201.815 249.617C203.235 250.238 204.284 251.079 204.964 252.14C205.554 253.072 205.714 253.863 205.434 254.514C205.004 255.505 204.144 255.725 202.855 255.164C202.385 254.954 201.975 254.554 201.625 253.943C201.275 253.332 200.635 252.821 199.686 252.411C198.936 252.1 198.456 252.17 198.266 252.611C198.166 252.841 198.636 253.292 199.676 253.953C199.816 254.073 200.116 254.313 200.595 254.674C201.035 255.014 201.395 255.295 201.655 255.505C202.125 255.916 202.465 256.246 202.655 256.496L202.675 256.516Z" fill="white" stroke="#22571A" stroke-width="0.9" stroke-linecap="round" stroke-linejoin="round"/>
<path d="M265.822 308.458C265.822 308.458 257.995 313.385 256.985 311.622C255.975 309.86 258.305 301.388 259.634 299.486C260.964 297.583 266.822 296.962 266.822 296.962L265.812 308.468L265.822 308.458Z" fill="#8E9BB0" stroke="#22571A" stroke-width="0.9" stroke-linecap="round" stroke-linejoin="round"/>
<path d="M270.361 272.809C270.361 272.809 279.828 281.531 279.568 289.362C279.308 297.193 265.813 308.448 265.813 308.448L260.964 297.583C260.964 297.583 265.683 295.06 265.053 290.633C264.423 286.207 258.365 285.326 258.365 285.326L259.375 272.809H270.351H270.361Z" fill="#468A3B" stroke="#22571A" stroke-width="0.9" stroke-linecap="round" stroke-linejoin="round"/>
<path d="M252.827 312.003C252.827 312.003 251.867 322.938 253.886 326.984C255.905 331.029 262.963 322.027 262.473 316.99C261.983 311.953 261.783 311.612 261.783 311.612L252.827 311.993V312.003Z" fill="#8E9BB0" stroke="#22571A" stroke-width="0.9" stroke-linecap="round" stroke-linejoin="round"/>
<path d="M252.597 247.484C252.597 247.484 231.324 268.112 214.52 278.026C214.52 278.026 222.917 278.957 224.036 285.316C225.156 291.675 225.546 295.57 233.283 295.49C241.021 295.41 248.118 293.537 251.847 299.716L252.587 247.484H252.597Z" fill="#FF9894" stroke="#22571A" stroke-width="0.9" stroke-linecap="round" stroke-linejoin="round"/>
<path d="M262.413 276.093H248.708C248.708 276.093 248.408 296.321 252.067 314.386C252.067 314.386 258.125 316.029 263.043 313.375L262.563 285.086" fill="#468A3B"/>
<path d="M262.413 276.093H248.708C248.708 276.093 248.408 296.321 252.067 314.386C252.067 314.386 258.125 316.029 263.043 313.375L262.563 285.086" stroke="#22571A" stroke-width="0.9" stroke-linecap="round" stroke-linejoin="round"/>
<path d="M275.289 276.554L274.879 253.753L291.453 228.037C286.585 229.93 281.507 231.412 276.279 232.453L265.532 246.272L255.116 247.494L242.5 232.864C238.262 232.133 234.133 231.101 230.114 229.809C234.523 237.48 243.45 253.032 246.139 257.678C249.748 263.917 248.718 276.103 248.718 276.103" fill="#FFE1C4"/>
<path d="M275.289 276.554L274.879 253.753L291.453 228.037C286.585 229.93 281.507 231.412 276.279 232.453L265.532 246.272L255.116 247.494L242.5 232.864C238.262 232.133 234.133 231.101 230.114 229.809C234.523 237.48 243.45 253.032 246.139 257.678C249.748 263.917 248.718 276.103 248.718 276.103" stroke="#22571A" stroke-width="0.9" stroke-linecap="round" stroke-linejoin="round"/>
<path d="M286.035 237.13C283.776 233.454 280.677 231.742 276.269 232.443L265.522 246.262L255.106 247.484L242.49 232.854C238.671 233.244 235.323 235.427 233.743 237.73C238.152 245.401 243.57 252.951 246.119 257.658C248.468 261.994 248.008 276.324 248.008 276.324C248.008 276.324 251.927 278.977 263.153 278.967C274.379 278.957 275.269 276.544 275.269 276.544L274.859 253.742L286.015 237.12L286.035 237.13Z" fill="#FD8C30" stroke="#22571A" stroke-width="0.9" stroke-linecap="round" stroke-linejoin="round"/>
<path d="M260.974 253.753C267.748 253.753 273.24 248.251 273.24 241.466C273.24 234.68 267.748 229.179 260.974 229.179C254.2 229.179 248.708 234.68 248.708 241.466C248.708 248.251 254.2 253.753 260.974 253.753Z" fill="#FFE1C4" stroke="#22571A" stroke-width="0.9" stroke-linecap="round" stroke-linejoin="round"/>
<path d="M271.91 235.918C269.891 231.922 265.752 229.179 260.974 229.179C255.766 229.179 251.327 232.433 249.548 237.019C250.837 237.48 252.207 237.74 253.656 237.74C257.525 237.74 260.974 235.938 263.223 233.134C265.352 234.906 268.082 235.968 271.051 235.968C271.34 235.968 271.62 235.948 271.91 235.928V235.918Z" fill="#4C5461" stroke="#22571A" stroke-width="0.9" stroke-linecap="round" stroke-linejoin="round"/>
<path d="M249.048 242.407C247.468 242.407 245.759 240.845 245.759 239.263C245.759 237.68 247.038 236.399 248.618 236.399C249.488 236.399 250.267 236.789 250.787 237.4" fill="#FFE1C4"/>
<path d="M249.048 242.407C247.468 242.407 245.759 240.845 245.759 239.263C245.759 237.68 247.038 236.399 248.618 236.399C249.488 236.399 250.267 236.789 250.787 237.4" stroke="#22571A" stroke-width="0.9" stroke-linecap="round" stroke-linejoin="round"/>
<path d="M272.839 241.185C274.418 241.185 276.128 239.623 276.128 238.041C276.128 236.459 274.848 235.177 273.269 235.177C272.399 235.177 271.619 235.567 271.1 236.178" fill="#FFE1C4"/>
<path d="M272.839 241.185C274.418 241.185 276.128 239.623 276.128 238.041C276.128 236.459 274.848 235.177 273.269 235.177C272.399 235.177 271.619 235.567 271.1 236.178" stroke="#22571A" stroke-width="0.9" stroke-linecap="round" stroke-linejoin="round"/>
<path d="M256.845 240.594C257.381 240.594 257.815 240.159 257.815 239.623C257.815 239.086 257.381 238.652 256.845 238.652C256.309 238.652 255.875 239.086 255.875 239.623C255.875 240.159 256.309 240.594 256.845 240.594Z" fill="#22571A"/>
<path d="M265.462 240.374C265.998 240.374 266.432 239.939 266.432 239.403C266.432 238.866 265.998 238.431 265.462 238.431C264.926 238.431 264.492 238.866 264.492 239.403C264.492 239.939 264.926 240.374 265.462 240.374Z" fill="#22571A"/>
<path d="M261.393 240.484C261.393 240.484 261.523 241.586 261.993 241.646C262.463 241.706 262.253 242.637 261.543 242.817" stroke="#22571A" stroke-width="0.9" stroke-linecap="round" stroke-linejoin="round"/>
<path d="M258.164 244.269C258.164 244.269 258.524 246.022 261.503 246.022C264.482 246.022 264.632 243.919 264.632 243.919" stroke="#22571A" stroke-width="0.9" stroke-linecap="round" stroke-linejoin="round"/>
<path d="M265.931 263.326C266.221 263.466 266.441 263.596 266.601 263.696C266.761 263.806 266.921 263.937 267.081 264.097C267.561 264.698 267.821 265.419 267.861 266.26C267.931 267.572 267.501 268.643 266.591 269.494C265.611 270.396 264.202 270.896 262.353 270.996C260.803 271.076 259.493 270.766 258.414 270.065C257.464 269.454 256.974 268.763 256.934 268.002C256.874 266.851 257.544 266.23 258.944 266.16C259.454 266.13 260.003 266.33 260.583 266.75C261.163 267.161 261.973 267.351 263.002 267.291C263.812 267.251 264.202 266.971 264.182 266.45C264.172 266.18 263.552 265.959 262.323 265.789C262.153 265.749 261.763 265.659 261.173 265.539C260.623 265.429 260.183 265.329 259.853 265.238C258.714 264.938 257.884 264.497 257.354 263.917C256.884 263.386 256.634 262.735 256.594 261.974C256.535 260.752 256.954 259.751 257.874 258.96C258.854 258.109 260.273 257.638 262.113 257.538C263.662 257.458 264.972 257.738 266.051 258.389C267.001 258.96 267.491 259.591 267.521 260.302C267.581 261.383 266.901 261.964 265.501 262.034C264.992 262.064 264.442 261.884 263.862 261.483C263.282 261.093 262.482 260.922 261.453 260.983C260.643 261.043 260.243 261.313 260.273 261.804C260.283 262.054 260.903 262.244 262.123 262.374C262.293 262.414 262.682 262.495 263.272 262.615C263.822 262.715 264.262 262.815 264.592 262.885C265.202 263.035 265.641 263.186 265.931 263.326Z" fill="white" stroke="#22571A" stroke-width="0.9" stroke-linecap="round" stroke-linejoin="round"/>
</g>
</svg>
