<svg width="345" height="278" viewBox="0 0 345 278" fill="none" xmlns="http://www.w3.org/2000/svg">
<g clip-path="url(#clip0_1025_14327)">
<path d="M343.491 180.315L151.579 276.828C149.799 277.719 147.71 277.789 145.881 277.008L1.42948 215.337C0.159996 214.796 0.110016 213.003 1.34951 212.392L189.513 119.245L343.311 176.8C344.88 177.391 345 179.574 343.501 180.325L343.491 180.315Z" fill="#EDBD95" stroke="#22571A" stroke-width="0.9" stroke-linecap="round" stroke-linejoin="round"/>
<path d="M273.349 184.893C273.349 184.893 272.119 171.944 265.012 166.385C265.012 166.385 275.048 165.754 278.177 180.917C278.177 180.917 276.428 153.136 291.931 146.065C291.931 146.065 285.394 159.595 288.053 176.741C288.053 176.741 290.902 165.815 300.868 163.912C300.868 163.912 293.071 175.799 295.11 183.02" fill="#CF8E59"/>
<path d="M273.349 184.893C273.349 184.893 272.119 171.944 265.012 166.385C265.012 166.385 275.048 165.754 278.177 180.917C278.177 180.917 276.428 153.136 291.931 146.065C291.931 146.065 285.394 159.595 288.053 176.741C288.053 176.741 290.902 165.815 300.868 163.912C300.868 163.912 293.071 175.799 295.11 183.02" stroke="#22571A" stroke-width="0.9" stroke-linecap="round" stroke-linejoin="round"/>
<path d="M31.1773 220.324C31.1773 220.324 31.1773 212.472 25.2397 208.687C25.2397 208.687 34.356 208.957 35.8754 218.251C35.8754 218.251 36.6851 201.466 51.2792 198.231C51.2792 198.231 44.212 205.923 45.1417 216.388C45.1417 216.388 48.6502 210.019 57.8065 209.518C57.8065 209.518 49.7498 216.148 50.9693 220.614" fill="#CF8E59"/>
<path d="M31.1773 220.324C31.1773 220.324 31.1773 212.472 25.2397 208.687C25.2397 208.687 34.356 208.957 35.8754 218.251C35.8754 218.251 36.6851 201.466 51.2792 198.231C51.2792 198.231 44.212 205.923 45.1417 216.388C45.1417 216.388 48.6502 210.019 57.8065 209.518C57.8065 209.518 49.7498 216.148 50.9693 220.614" stroke="#22571A" stroke-width="0.9" stroke-linecap="round" stroke-linejoin="round"/>
<path d="M86.8947 57.5447C84.0559 64.6652 76.1591 68.2104 76.1591 68.2104C76.1591 68.2104 72.8604 60.1986 75.6993 53.0681C78.5381 45.9476 86.4349 42.4023 86.4349 42.4023C86.4349 42.4023 89.7336 50.4142 86.8947 57.5447Z" fill="#E89F64" stroke="#22571A" stroke-width="0.9" stroke-linecap="round" stroke-linejoin="round"/>
<path d="M76.1689 68.2105L83.1461 50.5244" stroke="#22571A" stroke-width="0.9" stroke-linecap="round" stroke-linejoin="round"/>
<path d="M23.1504 178.152C17.2128 175.458 14.4939 168.558 14.4939 168.558C14.4939 168.558 21.4011 166.014 27.3387 168.708C33.2763 171.402 35.9952 178.302 35.9952 178.302C35.9952 178.302 29.088 180.846 23.1504 178.152Z" fill="#E89F64" stroke="#22571A" stroke-width="0.9" stroke-linecap="round" stroke-linejoin="round"/>
<path d="M14.4939 168.558L29.2279 175.187" stroke="#22571A" stroke-width="0.9" stroke-linecap="round" stroke-linejoin="round"/>
<path d="M43.3822 147.187C43.3822 147.187 43.852 156.951 35.3555 162.489" stroke="#22571A" stroke-width="0.9" stroke-linecap="round" stroke-linejoin="round"/>
<path d="M300.918 96.5918C300.918 96.5918 288.293 98.1341 289.182 113.266C290.072 128.399 276.667 129.54 276.667 129.54" stroke="#22571A" stroke-width="0.9" stroke-linecap="round" stroke-linejoin="round"/>
<path d="M136.244 0.450195C136.244 0.450195 98.7597 29.7734 111.015 39.2274C123.27 48.6813 135.425 10.8555 97.4802 44.4251" stroke="#22571A" stroke-width="0.9" stroke-linecap="round" stroke-linejoin="round"/>
<path d="M213.553 25.9174C212.554 24.8158 211.444 24.305 210.405 24.0947C209.245 24.936 208.185 25.8273 207.216 26.7787C202.838 31.075 199.859 36.513 198.579 42.5119L172.89 163.741C172.46 165.764 173.749 167.747 175.769 168.177C176.028 168.237 176.288 168.257 176.548 168.257C178.278 168.257 179.827 167.056 180.197 165.293L205.886 44.0642C206.856 39.5075 209.115 35.3814 212.444 32.1266C213.223 31.3655 214.093 30.6544 215.073 29.9734C215.123 28.8217 214.823 27.3595 213.563 25.9174H213.553Z" fill="#B0BACF" stroke="#22571A" stroke-width="0.9" stroke-miterlimit="10"/>
<path d="M231.106 16.8843C230.127 15.0616 227.867 14.3806 226.048 15.3621L214.243 21.7114C212.844 22.4625 211.574 23.2537 210.405 24.0949C211.434 24.3053 212.544 24.816 213.553 25.9176C214.813 27.3598 215.113 28.8119 215.063 29.9736C215.892 29.3928 216.782 28.8419 217.782 28.3112L229.587 21.9618C231.406 20.9803 232.086 18.717 231.106 16.8943V16.8843Z" fill="#FF9894" stroke="#22571A" stroke-width="0.9" stroke-linecap="round" stroke-linejoin="round"/>
<path d="M285.404 46.3879C285.024 46.3879 284.634 46.3177 284.255 46.1876L225.868 25.0864C224.109 24.4455 223.189 22.5026 223.829 20.74C224.469 18.9774 226.408 18.0661 228.167 18.697L286.554 39.7981C288.313 40.4391 289.232 42.3819 288.593 44.1445C288.093 45.5266 286.793 46.3879 285.404 46.3879Z" fill="#FF9894" stroke="#22571A" stroke-width="0.9" stroke-linecap="round" stroke-linejoin="round"/>
<path d="M81.5566 194.256L77.4483 192.393C74.1397 190.891 71.0009 190.821 68.0721 192.884C66.3628 194.086 65.0533 195.798 64.1837 197.741C63.8138 198.562 63.504 199.424 63.314 200.205C61.7447 206.624 64.0038 211.972 67.9921 213.925C69.8814 215.127 72.4104 216.138 74.9793 217.15C75.2692 217.29 75.5591 217.41 75.869 217.5C80.0273 218.662 84.6654 214.396 86.2447 207.976C87.8241 201.557 86.0348 195.928 81.5666 194.256H81.5566Z" fill="#5D697D" stroke="#22571A" stroke-width="0.9" stroke-linecap="round" stroke-linejoin="round"/>
<path d="M75.8589 217.5C74.0597 216.999 72.6403 215.557 71.7406 213.564C70.5711 210.961 70.2912 207.415 71.1808 203.78C71.9006 200.826 73.28 198.332 74.9593 196.609" stroke="#22571A" stroke-width="0.9" stroke-linecap="round" stroke-linejoin="round"/>
<path d="M78.5078 194.326C79.5174 194.016 80.557 193.986 81.5566 194.266" stroke="#22571A" stroke-width="0.9" stroke-linecap="round" stroke-linejoin="round"/>
<path d="M82.3065 204.711C82.3264 205.382 82.2565 206.093 82.0766 206.814C81.3768 209.679 79.2977 211.581 77.4384 211.071C75.5792 210.56 74.6496 207.806 75.3493 204.942C76.049 202.077 78.1282 200.175 79.9874 200.685C80.6771 200.876 81.2369 201.376 81.6367 202.077" fill="#B0BACF"/>
<path d="M82.3065 204.711C82.3264 205.382 82.2565 206.093 82.0766 206.814C81.3768 209.679 79.2977 211.581 77.4384 211.071C75.5792 210.56 74.6496 207.806 75.3493 204.942C76.049 202.077 78.1282 200.175 79.9874 200.685C80.6771 200.876 81.2369 201.376 81.6367 202.077" stroke="#22571A" stroke-width="0.9" stroke-miterlimit="10"/>
<path d="M243.671 190.35L171.89 160.947C171.35 160.727 170.741 160.737 170.201 160.977L79.0078 202.238C78.2481 202.589 77.7483 203.35 77.7483 204.191V206.965C77.7483 207.816 78.2481 208.587 79.0278 208.928L149.509 239.713C150.069 239.954 150.699 239.954 151.258 239.693L243.751 197.03C244.511 196.68 244.99 195.919 244.99 195.087V192.333C244.99 191.462 244.471 190.681 243.661 190.35H243.671Z" fill="#B0BACF" stroke="#22571A" stroke-width="0.9" stroke-miterlimit="10"/>
<path d="M87.7144 204.492L147.55 229.999C148.81 230.54 150.239 230.52 151.488 229.949L232.176 192.854C233.485 192.254 233.465 190.391 232.156 189.81L172.9 163.731L87.7044 201.157C86.255 201.798 86.265 203.871 87.7244 204.492H87.7144Z" fill="#8E9BB0"/>
<path d="M269.63 82.0308L181.536 49.2424C180.737 48.9019 179.827 48.9119 179.027 49.2624L56.6169 102.481C55.7073 102.871 55.1975 103.843 55.3674 104.814L67.5125 173.636C67.7024 174.707 68.4221 175.619 69.4317 176.039L148.869 209.178C149.699 209.519 150.629 209.509 151.438 209.128L253.637 161.788C254.247 161.508 254.686 160.957 254.826 160.296L270.88 84.4643C271.1 83.4629 270.57 82.4414 269.62 82.0408L269.63 82.0308Z" fill="#DEE5F4" stroke="#22571A" stroke-width="0.9" stroke-miterlimit="10"/>
<path d="M126.249 132.805L175.379 110.472C176.758 109.841 178.337 109.791 179.767 110.332L201.948 118.705L157.406 139.665C151.748 142.419 146.68 142.46 140.993 139.766L126.259 132.805H126.249Z" fill="#B0BACF"/>
<path d="M67.8123 108.75L145.361 141.098C148.43 142.38 151.888 142.32 154.907 140.937L259.564 93.0469" stroke="#22571A" stroke-width="0.9" stroke-linecap="round" stroke-linejoin="round"/>
<path d="M156.136 228.486L152.028 226.624C148.719 225.121 145.581 225.051 142.652 227.114C140.943 228.316 139.633 230.029 138.764 231.972C138.394 232.793 138.084 233.654 137.894 234.435C136.325 240.855 138.584 246.202 142.572 248.155C144.461 249.357 146.99 250.369 149.559 251.38C149.849 251.52 150.139 251.641 150.449 251.731C154.607 252.892 159.245 248.626 160.825 242.207C162.404 235.787 160.615 230.159 156.146 228.486H156.136Z" fill="#5D697D" stroke="#22571A" stroke-width="0.9" stroke-linecap="round" stroke-linejoin="round"/>
<path d="M150.439 251.731C148.64 251.23 147.22 249.788 146.32 247.795C145.151 245.191 144.871 241.646 145.761 238.01C146.48 235.056 147.86 232.562 149.539 230.84" stroke="#22571A" stroke-width="0.9" stroke-linecap="round" stroke-linejoin="round"/>
<path d="M153.078 228.556C154.087 228.246 155.127 228.216 156.126 228.496" stroke="#22571A" stroke-width="0.9" stroke-linecap="round" stroke-linejoin="round"/>
<path d="M156.876 238.942C156.896 239.613 156.826 240.324 156.646 241.045C155.947 243.909 153.868 245.812 152.008 245.301C150.149 244.79 149.219 242.036 149.919 239.172C150.619 236.308 152.698 234.405 154.557 234.916C155.247 235.106 155.807 235.607 156.207 236.308" fill="#B0BACF"/>
<path d="M156.876 238.942C156.896 239.613 156.826 240.324 156.646 241.045C155.947 243.909 153.868 245.812 152.008 245.301C150.149 244.79 149.219 242.036 149.919 239.172C150.619 236.308 152.698 234.405 154.557 234.916C155.247 235.106 155.807 235.607 156.207 236.308" stroke="#22571A" stroke-width="0.9" stroke-miterlimit="10"/>
<path d="M164.803 228.146L225.079 200.335" stroke="#22571A" stroke-width="0.9" stroke-linecap="round" stroke-linejoin="round"/>
<path d="M82.4365 205.573L134.126 228.147" stroke="#22571A" stroke-width="0.9" stroke-linecap="round" stroke-linejoin="round"/>
<path d="M156.666 157.432L258.055 111.044" stroke="#22571A" stroke-width="0.9" stroke-linecap="round" stroke-linejoin="round"/>
<path d="M156.666 174.687L256.076 129.21" stroke="#22571A" stroke-width="0.9" stroke-linecap="round" stroke-linejoin="round"/>
<path d="M155.367 192.543L253.487 147.657" stroke="#22571A" stroke-width="0.9" stroke-linecap="round" stroke-linejoin="round"/>
<path d="M150.439 144.513L149.819 200.605" stroke="#22571A" stroke-width="0.9" stroke-linecap="round" stroke-linejoin="round"/>
<path d="M66.2329 124.914L143.771 157.262" stroke="#22571A" stroke-width="0.9" stroke-linecap="round" stroke-linejoin="round"/>
<path d="M67.8123 141.749L143.771 173.436" stroke="#22571A" stroke-width="0.9" stroke-linecap="round" stroke-linejoin="round"/>
<path d="M69.4617 160.797L145.361 192.444" stroke="#22571A" stroke-width="0.9" stroke-linecap="round" stroke-linejoin="round"/>
<path d="M171.001 140.026L170.471 194.066" stroke="#22571A" stroke-width="0.9" stroke-linecap="round" stroke-linejoin="round"/>
<path d="M191.223 130.622L189.643 185.082" stroke="#22571A" stroke-width="0.9" stroke-linecap="round" stroke-linejoin="round"/>
<path d="M210.464 122.11L207.356 178.233" stroke="#22571A" stroke-width="0.9" stroke-linecap="round" stroke-linejoin="round"/>
<path d="M229.707 113.066L224.918 171.242" stroke="#22571A" stroke-width="0.9" stroke-linecap="round" stroke-linejoin="round"/>
<path d="M247.589 104.895L241.982 163.391" stroke="#22571A" stroke-width="0.9" stroke-linecap="round" stroke-linejoin="round"/>
<path d="M129.707 143.361L130.767 196.61" stroke="#22571A" stroke-width="0.9" stroke-linecap="round" stroke-linejoin="round"/>
<path d="M110.405 136.181L112.515 189.7" stroke="#22571A" stroke-width="0.9" stroke-linecap="round" stroke-linejoin="round"/>
<path d="M91.4727 127.849L94.9912 181.828" stroke="#22571A" stroke-width="0.9" stroke-linecap="round" stroke-linejoin="round"/>
<path d="M73.26 119.866L78.0681 173.966" stroke="#22571A" stroke-width="0.9" stroke-linecap="round" stroke-linejoin="round"/>
<path d="M179.797 57.9746L178.048 102C177.958 104.213 176.638 106.196 174.619 107.127L126.688 129.2" stroke="#22571A" stroke-width="0.9" stroke-linecap="round" stroke-linejoin="round"/>
<path d="M182.606 107.988L206.056 117.522" stroke="#22571A" stroke-width="0.9" stroke-linecap="round" stroke-linejoin="round"/>
<path d="M275.188 50.4634C274.019 49.3818 272.789 49.0513 271.72 49.0312C271.43 49.2916 271.13 49.542 270.86 49.8124C266.482 54.1087 263.503 59.5468 262.223 65.5456L236.534 186.774C236.104 188.797 237.393 190.78 239.413 191.211C239.673 191.271 239.932 191.291 240.192 191.291C241.922 191.291 243.471 190.089 243.841 188.327L269.53 67.0979C270.5 62.5412 272.759 58.4151 276.088 55.1603C276.338 54.9199 276.598 54.6896 276.867 54.4593C276.907 53.3476 276.618 51.8454 275.188 50.4634Z" fill="#B0BACF" stroke="#22571A" stroke-width="0.9" stroke-miterlimit="10"/>
<path d="M294.75 39.9283C293.771 38.1056 291.511 37.4246 289.692 38.406L277.887 44.7554C275.488 46.0473 273.469 47.4594 271.719 49.0317C272.789 49.0417 274.019 49.3722 275.188 50.4638C276.617 51.8458 276.907 53.348 276.867 54.4597C278.147 53.338 279.636 52.3065 281.426 51.3451L293.231 44.9957C295.05 44.0143 295.73 41.7509 294.75 39.9283Z" fill="#FF9894" stroke="#22571A" stroke-width="0.9" stroke-linecap="round" stroke-linejoin="round"/>
<path d="M249.569 185.953L245.46 184.09C242.152 182.588 239.013 182.518 236.084 184.581C234.375 185.783 233.065 187.495 232.196 189.438C231.826 190.26 231.516 191.121 231.326 191.902C229.757 198.321 232.016 203.669 236.004 205.622C237.893 206.824 240.422 207.835 242.991 208.847C243.281 208.987 243.571 209.107 243.881 209.197C248.039 210.359 252.677 206.093 254.257 199.673C255.826 193.254 254.047 187.626 249.579 185.953H249.569Z" fill="#5D697D" stroke="#22571A" stroke-width="0.9" stroke-linecap="round" stroke-linejoin="round"/>
<path d="M243.881 209.188C242.082 208.687 240.662 207.245 239.763 205.252C238.593 202.648 238.313 199.103 239.203 195.467C239.923 192.513 241.302 190.019 242.981 188.297" stroke="#22571A" stroke-width="0.9" stroke-linecap="round" stroke-linejoin="round"/>
<path d="M246.52 186.013C247.529 185.703 248.569 185.673 249.569 185.953" stroke="#22571A" stroke-width="0.9" stroke-linecap="round" stroke-linejoin="round"/>
<path d="M250.318 196.399C250.338 197.07 250.268 197.781 250.089 198.502C249.389 201.366 247.31 203.269 245.45 202.758C243.591 202.237 242.662 199.493 243.361 196.629C244.061 193.765 246.14 191.862 247.999 192.373C248.689 192.563 249.249 193.064 249.649 193.765" fill="#B0BACF"/>
<path d="M250.318 196.399C250.338 197.07 250.268 197.781 250.089 198.502C249.389 201.366 247.31 203.269 245.45 202.758C243.591 202.237 242.662 199.493 243.361 196.629C244.061 193.765 246.14 191.862 247.999 192.373C248.689 192.563 249.249 193.064 249.649 193.765" stroke="#22571A" stroke-width="0.9" stroke-miterlimit="10"/>
<path d="M175.669 66.1465L83.9058 106.045" stroke="#22571A" stroke-width="0.9" stroke-miterlimit="10" stroke-linecap="round"/>
<path d="M174.429 80.6885L96.7905 114.448" stroke="#22571A" stroke-width="0.9" stroke-miterlimit="10" stroke-linecap="round"/>
<path d="M174.429 95.4502L113.114 122.11" stroke="#22571A" stroke-width="0.9" stroke-miterlimit="10" stroke-linecap="round"/>
<path d="M162.834 63.8838L163.734 107.989" stroke="#22571A" stroke-width="0.9" stroke-miterlimit="10" stroke-linecap="round"/>
<path d="M146.24 70.293L149.539 114.027" stroke="#22571A" stroke-width="0.9" stroke-miterlimit="10" stroke-linecap="round"/>
<path d="M129.787 77.2129L136.424 120.316" stroke="#22571A" stroke-width="0.9" stroke-miterlimit="10" stroke-linecap="round"/>
<path d="M112.514 84.3037L121.201 126.155" stroke="#22571A" stroke-width="0.9" stroke-miterlimit="10" stroke-linecap="round"/>
<path d="M94.9912 93.0371L101.119 119.867" stroke="#22571A" stroke-width="0.9" stroke-miterlimit="10" stroke-linecap="round"/>
<path d="M185.814 66.1465L250.068 89.541" stroke="#22571A" stroke-width="0.9" stroke-miterlimit="10" stroke-linecap="round"/>
<path d="M185.814 81.8906L237.384 100.668" stroke="#22571A" stroke-width="0.9" stroke-miterlimit="10" stroke-linecap="round"/>
<path d="M184.625 95.8408L220.161 108.78" stroke="#22571A" stroke-width="0.9" stroke-miterlimit="10" stroke-linecap="round"/>
<path d="M193.941 106.457L197.67 62.9424" stroke="#22571A" stroke-width="0.9" stroke-miterlimit="10" stroke-linecap="round"/>
<path d="M209.735 112.755L216.262 69.2412" stroke="#22571A" stroke-width="0.9" stroke-miterlimit="10" stroke-linecap="round"/>
<path d="M228.297 106.456L233.955 75.3506" stroke="#22571A" stroke-width="0.9" stroke-miterlimit="10" stroke-linecap="round"/>
<path d="M212.944 232.152C212.944 232.152 212.444 221.106 220.57 215.388C220.57 215.388 207.756 216.349 206.206 229.528C206.206 229.528 204.007 205.954 183.256 202.318C183.256 202.318 193.681 212.704 193.042 227.485C193.042 227.485 187.694 218.743 174.779 218.612C174.779 218.612 186.544 227.435 185.105 233.795" fill="#CF8E59"/>
<path d="M212.944 232.152C212.944 232.152 212.444 221.106 220.57 215.388C220.57 215.388 207.756 216.349 206.206 229.528C206.206 229.528 204.007 205.954 183.256 202.318C183.256 202.318 193.681 212.704 193.042 227.485C193.042 227.485 187.694 218.743 174.779 218.612C174.779 218.612 186.544 227.435 185.105 233.795" stroke="#22571A" stroke-width="0.9" stroke-linecap="round" stroke-linejoin="round"/>
</g>
<defs>
<clipPath id="clip0_1025_14327">
<rect width="345" height="278" fill="white"/>
</clipPath>
</defs>
</svg>
