<svg width="270" height="211" viewBox="0 0 270 211" fill="none" xmlns="http://www.w3.org/2000/svg">
<g opacity="0.8" clip-path="url(#clip0_1116_70036)">
<path d="M60.4483 122.65C51.4267 122.65 49.1337 128.521 49.1337 128.521C47.9822 128.122 46.7306 127.902 45.4389 127.902C42.6252 127.902 40.0619 128.931 38.1294 130.608C36.267 129.63 34.1442 129.08 31.8813 129.08C27.5257 129.08 23.6707 131.137 21.2876 134.303C18.9746 133.384 16.3712 133.005 13.6477 133.324C7.38956 134.063 2.37306 138.566 0.851086 144.298C0.290359 146.435 0.320398 148.702 0.971241 150.809C3.13405 157.828 10.5837 160.544 17.0321 160.195C23.0699 160.195 30.9701 154.423 31.8913 154.423C38.9305 153.864 45.4489 149.091 45.4489 149.091L60.1279 142.8C60.1279 142.8 64.8741 141.302 68.1383 138.616C70.5314 136.649 71.4326 133.434 70.4814 130.538C67.878 122.62 60.4483 122.64 60.4483 122.64V122.65Z" fill="#00BA78" stroke="#22571A" stroke-width="0.9" stroke-linecap="round" stroke-linejoin="round"/>
<path d="M10.2633 143.25C10.2633 143.25 13.7378 140.314 17.5227 142.87" stroke="#22571A" stroke-width="0.9" stroke-linecap="round" stroke-linejoin="round"/>
<path d="M21.8483 137.378C21.8483 137.378 24.3115 135.291 26.995 137.109" stroke="#22571A" stroke-width="0.9" stroke-linecap="round" stroke-linejoin="round"/>
<path d="M37.8491 140.993C37.8491 140.993 40.142 139.056 42.6353 140.743" stroke="#22571A" stroke-width="0.9" stroke-linecap="round" stroke-linejoin="round"/>
<path d="M47.7119 132.756C47.7119 132.756 48.8734 131.776 50.135 132.626" stroke="#22571A" stroke-width="0.9" stroke-linecap="round" stroke-linejoin="round"/>
<path d="M54.9012 134.853C54.9012 134.853 56.4431 133.543 58.1253 134.683" stroke="#22571A" stroke-width="0.9" stroke-linecap="round" stroke-linejoin="round"/>
<path d="M17.5728 138.438C17.5728 138.438 19.1148 137.128 20.7969 138.268" stroke="#22571A" stroke-width="0.9" stroke-linecap="round" stroke-linejoin="round"/>
<path d="M202.973 124.886L206.478 124.078V101.251L202.973 102.05V124.886Z" fill="#C17B4C" stroke="#22571A" stroke-width="0.9" stroke-linecap="round" stroke-linejoin="round"/>
<path d="M208.46 106.534C212.736 104.956 219.084 100.393 217.892 88.6099C217.892 88.6099 218.924 80.7115 216.931 75.4592C216.701 74.8501 216.601 74.2011 216.651 73.552C216.861 70.866 217.182 63.4668 215.049 58.1746C214.899 57.7852 214.798 57.3858 214.778 56.9764C214.698 55.2888 214.258 50.4659 211.955 47.5203C211.955 47.5203 211.194 32.702 204.986 32.732C203.454 32.732 202.803 34.779 202.022 36.6362C201.231 38.0042 199.729 38.7032 198.768 40.87C197.947 42.8371 197.636 45.9625 197.136 47.4903C195.984 50.9752 194.592 54.6797 194.712 59.1332C194.732 59.7423 194.592 60.3414 194.332 60.8906C193.411 62.8977 191.398 68.1499 192.57 73.4322C192.72 74.1212 192.68 74.8301 192.429 75.4892C191.608 77.7059 189.936 83.1579 191.308 87.841C191.498 88.5 191.588 89.189 191.538 89.878C191.448 90.9964 191.869 92.8736 191.648 95.0105C191.298 98.3256 192.099 100.193 193.25 101.461C195.483 103.907 196.775 105.904 201.131 106.793C203.514 107.282 206.187 107.392 208.47 106.554L208.46 106.534Z" fill="#80C93C" stroke="#22571A" stroke-width="0.9" stroke-linecap="round" stroke-linejoin="round"/>
<path d="M195.754 81.4305C195.754 81.4305 196.074 79.3436 198.477 80.0525C198.477 80.0525 199.629 77.5163 201.601 78.6845" stroke="#22571A" stroke-width="0.9" stroke-linecap="round" stroke-linejoin="round"/>
<path d="M208.06 59.3028C208.06 59.3028 209.441 58.0447 210.753 59.7322C210.753 59.7322 212.265 59.193 212.806 60.3213" stroke="#22571A" stroke-width="0.9" stroke-linecap="round" stroke-linejoin="round"/>
<path d="M200.58 47.3805C200.58 47.3805 201.561 45.673 203.464 46.5617" stroke="#22571A" stroke-width="0.9" stroke-linecap="round" stroke-linejoin="round"/>
<path d="M204.836 95.1104C204.836 95.1104 206.007 92.5142 207.93 95.1104C207.93 95.1104 210.212 92.7539 211.584 96.6681" stroke="#22571A" stroke-width="0.9" stroke-linecap="round" stroke-linejoin="round"/>
<path d="M196.495 65.394C196.495 65.394 196.985 63.1073 199.388 63.307" stroke="#22571A" stroke-width="0.9" stroke-linecap="round" stroke-linejoin="round"/>
<path d="M163.432 111.286L166.936 110.478V87.6511L163.432 88.45V111.286Z" fill="#C17B4C" stroke="#22571A" stroke-width="0.9" stroke-linecap="round" stroke-linejoin="round"/>
<path d="M168.919 92.9334C173.195 91.3558 179.543 86.7925 178.351 75.0098C178.351 75.0098 179.383 67.1114 177.39 61.8591C177.16 61.25 177.06 60.601 177.11 59.9519C177.32 57.2659 177.64 49.8667 175.508 44.5745C175.357 44.1851 175.257 43.7857 175.237 43.3763C175.157 41.6887 174.716 36.8658 172.414 33.9202C172.414 33.9202 171.653 19.1019 165.444 19.1319C163.912 19.1319 163.262 21.1789 162.481 23.0361C161.69 24.4041 160.188 25.1031 159.226 27.2699C158.405 29.237 158.095 32.3624 157.594 33.8902C156.443 37.3751 155.051 41.0796 155.171 45.5331C155.191 46.1422 155.051 46.7413 154.791 47.2905C153.869 49.2976 151.857 54.5498 153.028 59.8321C153.179 60.5211 153.139 61.23 152.888 61.8891C152.067 64.1058 150.395 69.5578 151.767 74.2409C151.957 74.8999 152.047 75.5889 151.997 76.2779C151.907 77.3963 152.327 79.2735 152.107 81.4104C151.757 84.7255 152.558 86.5928 153.709 87.8609C155.942 90.3073 157.234 92.3044 161.589 93.1931C163.973 93.6824 166.646 93.7922 168.929 92.9534L168.919 92.9334Z" fill="#468A3B" stroke="#22571A" stroke-width="0.9" stroke-linecap="round" stroke-linejoin="round"/>
<path d="M156.212 67.8304C156.212 67.8304 156.533 65.7435 158.936 66.4524C158.936 66.4524 160.088 63.9162 162.06 65.0844" stroke="#22571A" stroke-width="0.9" stroke-linecap="round" stroke-linejoin="round"/>
<path d="M168.518 45.7127C168.518 45.7127 169.9 44.4546 171.212 46.1421C171.212 46.1421 172.724 45.6029 173.265 46.7313" stroke="#22571A" stroke-width="0.9" stroke-linecap="round" stroke-linejoin="round"/>
<path d="M161.039 33.7804C161.039 33.7804 162.02 32.0729 163.923 32.9616" stroke="#22571A" stroke-width="0.9" stroke-linecap="round" stroke-linejoin="round"/>
<path d="M165.294 81.5103C165.294 81.5103 166.466 78.9141 168.388 81.5103C168.388 81.5103 170.671 79.1538 172.043 83.068" stroke="#22571A" stroke-width="0.9" stroke-linecap="round" stroke-linejoin="round"/>
<path d="M156.953 51.7939C156.953 51.7939 157.444 49.5072 159.847 49.7069" stroke="#22571A" stroke-width="0.9" stroke-linecap="round" stroke-linejoin="round"/>
<path d="M244.607 144.528L248.102 143.719V120.892L244.607 121.691V144.528Z" fill="#C17B4C" stroke="#22571A" stroke-width="0.9" stroke-linecap="round" stroke-linejoin="round"/>
<path d="M250.084 126.175C254.36 124.597 260.708 120.034 259.516 108.251C259.516 108.251 260.548 100.353 258.555 95.1003C258.325 94.4912 258.225 93.8422 258.275 93.1931C258.485 90.5071 258.806 83.1079 256.673 77.8157C256.523 77.4263 256.422 77.0269 256.402 76.6175C256.322 74.93 255.882 70.107 253.579 67.1614C253.579 67.1614 252.818 52.3431 246.61 52.3731C245.078 52.3731 244.427 54.4201 243.646 56.2774C242.855 57.6453 241.353 58.3443 240.392 60.5111C239.571 62.4782 239.26 65.6037 238.76 67.1314C237.608 70.6163 236.216 74.3208 236.336 78.7743C236.356 79.3834 236.216 79.9825 235.956 80.5317C235.035 82.5388 233.022 87.7911 234.194 93.0733C234.344 93.7623 234.304 94.4712 234.053 95.1303C233.232 97.347 231.56 102.799 232.932 107.482C233.122 108.141 233.212 108.83 233.162 109.519C233.072 110.637 233.493 112.515 233.272 114.652C232.922 117.967 233.723 119.834 234.874 121.102C237.107 123.549 238.399 125.546 242.755 126.434C245.138 126.924 247.811 127.033 250.094 126.195L250.084 126.175Z" fill="#468A3B" stroke="#22571A" stroke-width="0.9" stroke-linecap="round" stroke-linejoin="round"/>
<path d="M237.388 101.072C237.388 101.072 237.708 98.9847 240.111 99.6936C240.111 99.6936 241.263 97.1574 243.235 98.3257" stroke="#22571A" stroke-width="0.9" stroke-linecap="round" stroke-linejoin="round"/>
<path d="M249.684 78.9439C249.684 78.9439 251.065 77.6858 252.377 79.3733C252.377 79.3733 253.889 78.8341 254.43 79.9625" stroke="#22571A" stroke-width="0.9" stroke-linecap="round" stroke-linejoin="round"/>
<path d="M242.204 67.0217C242.204 67.0217 243.185 65.3142 245.088 66.2029" stroke="#22571A" stroke-width="0.9" stroke-linecap="round" stroke-linejoin="round"/>
<path d="M246.469 114.752C246.469 114.752 247.641 112.155 249.564 114.752C249.564 114.752 251.846 112.395 253.218 116.309" stroke="#22571A" stroke-width="0.9" stroke-linecap="round" stroke-linejoin="round"/>
<path d="M238.129 85.0351C238.129 85.0351 238.619 82.7484 241.022 82.9482" stroke="#22571A" stroke-width="0.9" stroke-linecap="round" stroke-linejoin="round"/>
<path d="M233.553 177.13L238.96 174.913L228.256 170.19L222.358 172.237L233.553 177.13Z" fill="white" stroke="#22571A" stroke-width="0.9" stroke-linecap="round" stroke-linejoin="round"/>
<path d="M269.549 162.102L133.143 105.036C133.143 105.036 133.413 87.0919 148.232 88.6996C163.041 90.3072 170.05 105.085 170.05 105.085C170.05 105.085 174.086 99.7134 182.436 102.669C190.787 105.625 193.481 112.874 193.481 112.874C193.481 112.874 197.516 110.727 202.102 113.413C206.688 116.099 209.602 122.73 209.602 122.73C209.602 122.73 215.299 119.864 220.416 125.226L225.532 130.598C225.532 130.598 236.847 128.99 246.81 141.881C253.278 140.543 257.854 147.793 257.854 147.793C257.854 147.793 268.628 148.332 269.559 162.102H269.549Z" fill="#00BA78" stroke="#22571A" stroke-width="0.9" stroke-linecap="round" stroke-linejoin="round"/>
<path d="M178.962 151.048C178.391 144.807 174.977 140.064 171.342 140.454C168.889 140.713 161.569 144.098 161.569 144.098C157.845 145.536 155.492 149.96 156.032 156.46C156.603 162.701 159.457 166.316 163.963 166.535C165.495 166.745 167.717 165.866 167.717 165.866C169.82 165.088 171.452 164.229 174.757 162.661C177.65 161.273 179.473 156.49 178.972 151.038L178.962 151.048Z" fill="#4C5461" stroke="#22571A" stroke-width="0.9" stroke-linecap="round" stroke-linejoin="round"/>
<path d="M162.445 163.446C164.467 163.271 165.821 159.851 165.47 155.808C165.119 151.764 163.195 148.627 161.173 148.802C159.151 148.977 157.797 152.396 158.148 156.44C158.499 160.484 160.423 163.62 162.445 163.446Z" fill="#8E9BB0" stroke="#22571A" stroke-width="0.9" stroke-linecap="round" stroke-linejoin="round"/>
<path d="M161.866 161.03C162.842 160.95 163.455 158.716 163.236 156.039C163.016 153.362 162.048 151.257 161.072 151.336C160.097 151.416 159.484 153.65 159.703 156.327C159.922 159.004 160.891 161.109 161.866 161.03Z" stroke="#22571A" stroke-width="0.9" stroke-linecap="round" stroke-linejoin="round"/>
<path d="M130.309 131.187C129.738 124.947 126.324 120.203 122.689 120.593C120.236 120.853 112.916 124.238 112.916 124.238C109.192 125.675 106.838 130.099 107.379 136.599C107.95 142.84 110.804 146.455 115.309 146.675C116.841 146.884 119.064 146.006 119.064 146.006C121.167 145.227 122.799 144.368 126.103 142.8C128.997 141.412 130.82 136.629 130.319 131.177L130.309 131.187Z" fill="#4C5461" stroke="#22571A" stroke-width="0.9" stroke-linecap="round" stroke-linejoin="round"/>
<path d="M113.797 143.592C115.819 143.417 117.173 139.997 116.822 135.954C116.471 131.91 114.547 128.773 112.525 128.948C110.503 129.123 109.148 132.542 109.5 136.586C109.851 140.63 111.775 143.766 113.797 143.592Z" fill="#8E9BB0" stroke="#22571A" stroke-width="0.9" stroke-linecap="round" stroke-linejoin="round"/>
<path d="M113.215 141.171C114.191 141.091 114.804 138.857 114.584 136.18C114.365 133.503 113.397 131.398 112.421 131.477C111.445 131.557 110.832 133.791 111.052 136.468C111.271 139.145 112.239 141.25 113.215 141.171Z" stroke="#22571A" stroke-width="0.9" stroke-linecap="round" stroke-linejoin="round"/>
<path d="M238.449 115.57C238.449 106.434 232.952 98.1857 224.511 94.6509L145.779 61.6494C142.335 60.2115 138.459 60.2115 135.025 61.6694L103.624 74.9698C101.952 75.6788 100.54 76.8171 99.499 78.2051C98.2374 79.8926 97.5164 81.9696 97.5164 84.1563V127.603C97.5164 128.99 98.3575 130.249 99.6392 130.788L105.897 133.414C106.118 130.828 106.758 128.541 107.71 126.794C108.801 124.777 110.303 123.479 112.045 123.299C115.309 122.949 118.434 126.574 119.915 131.896C120.286 133.234 120.556 134.672 120.696 136.19C120.807 137.378 120.827 138.536 120.767 139.655L154.51 153.774C154.671 151.168 155.261 148.841 156.162 147.024L122.719 133.064L122.569 131.796C121.948 126.584 118.544 122.121 113.677 120.124L99.1686 114.172L99.1986 84.8753C99.1986 83.0779 99.6993 81.3205 100.64 79.7828L101.171 78.9141L180.734 112.245C189.185 115.79 194.672 124.028 194.672 133.164V162.272C197.336 162.511 200.039 162.112 202.543 161.053L238.439 145.866V115.58L238.449 115.57Z" fill="white" stroke="#22571A" stroke-width="0.9" stroke-linecap="round" stroke-linejoin="round"/>
<path d="M197.947 131.017V163.63L235.696 147.823L235.716 115.091L197.947 131.017Z" fill="#5D697D" stroke="#22571A" stroke-width="0.9" stroke-linecap="round" stroke-linejoin="round"/>
<path d="M235.716 111.256C235.716 110.737 235.495 110.248 235.105 109.908L230.689 106.004C230.168 105.545 229.437 105.425 228.797 105.685L204.946 115.59C203.834 116.049 202.883 116.838 202.212 117.837L198.978 122.69C198.317 123.688 197.957 124.857 197.957 126.055V131.007L235.716 115.081V111.256Z" fill="#2C9FDC" stroke="#22571A" stroke-width="0.9" stroke-linecap="round" stroke-linejoin="round"/>
<path d="M238.449 145.856L202.553 161.043C200.049 162.102 197.346 162.511 194.682 162.262C193.04 162.112 191.428 161.712 189.876 161.073L168.709 152.236C169.009 153.425 169.229 154.703 169.36 156.021C169.49 157.389 169.5 158.717 169.41 159.985L190.036 168.632C191.528 169.251 193.1 169.611 194.682 169.711C196.875 169.85 199.088 169.481 201.151 168.612L235.185 154.203C237.157 153.365 238.449 151.437 238.449 149.291V145.836V145.856Z" fill="white" stroke="#22571A" stroke-width="0.9" stroke-linecap="round" stroke-linejoin="round"/>
<path d="M194.662 132.635L99.1986 92.6738L99.1786 114.162L113.687 120.114C118.554 122.111 121.958 126.574 122.579 131.786L122.729 133.055L156.172 147.014C157.274 144.787 158.846 143.339 160.708 143.15C164.073 142.79 167.297 146.655 168.719 152.246L189.886 161.083C191.428 161.732 193.05 162.122 194.692 162.272V133.164C194.692 132.985 194.672 132.815 194.672 132.635H194.662Z" fill="#5D697D" stroke="#22571A" stroke-width="0.9" stroke-linecap="round" stroke-linejoin="round"/>
<path d="M172.814 123.399L185.33 128.381V164.638L172.804 159.655L172.814 123.399Z" fill="#B0BACF" stroke="#22571A" stroke-width="0.9" stroke-miterlimit="10"/>
<path d="M125.553 103.528L138.059 108.511V144.767L125.533 139.785L125.553 103.528Z" fill="#B0BACF" stroke="#22571A" stroke-width="0.9" stroke-miterlimit="10"/>
<path d="M131.06 106.094V141.742" stroke="#22571A" stroke-width="0.9" stroke-linecap="round" stroke-linejoin="round"/>
<path d="M178.592 125.835V161.822" stroke="#22571A" stroke-width="0.9" stroke-linecap="round" stroke-linejoin="round"/>
<path d="M180.744 112.245L101.181 78.9141L100.65 79.7828C99.7093 81.3105 99.2086 83.0779 99.2086 84.8753V92.6838L194.662 132.645C194.452 123.718 189.025 115.72 180.744 112.245Z" fill="#4C5461" stroke="#22571A" stroke-width="0.9" stroke-linecap="round" stroke-linejoin="round"/>
<path d="M200.61 142.021V134.752C200.61 134.213 200.29 133.724 199.789 133.524L199.238 133.294C198.768 133.095 198.227 133.095 197.756 133.294L195.574 134.213C195.073 134.423 194.752 134.902 194.752 135.441V142.82C194.752 143.36 195.083 143.849 195.584 144.058L196.134 144.288C196.615 144.488 197.146 144.488 197.626 144.288L199.689 143.419C200.25 143.18 200.62 142.631 200.62 142.031L200.61 142.021Z" fill="#4C5461" stroke="#22571A" stroke-width="0.9" stroke-linecap="round" stroke-linejoin="round"/>
<path d="M196.675 136.25V142.401" stroke="#22571A" stroke-width="0.9" stroke-linecap="round" stroke-linejoin="round"/>
<path d="M195.233 127.503L196.174 129.07C196.365 129.39 196.465 129.749 196.465 130.119L196.435 134.383C196.435 134.572 196.585 134.712 196.775 134.732C196.775 134.732 197.546 135.062 198.477 134.413C198.547 134.343 198.587 134.253 198.587 134.153V129.62C198.587 129.23 198.477 128.841 198.257 128.511L196.935 126.434C196.665 126.015 196.134 125.865 195.684 126.065C195.133 126.304 194.913 126.993 195.223 127.503H195.233Z" fill="#4C5461" stroke="#22571A" stroke-width="0.9" stroke-linecap="round" stroke-linejoin="round"/>
<path d="M242.354 128.122V120.853C242.354 120.313 242.034 119.824 241.533 119.624L240.982 119.395C240.512 119.195 239.971 119.195 239.5 119.395L237.318 120.313C236.817 120.523 236.497 121.002 236.497 121.542V128.921C236.497 129.46 236.827 129.949 237.328 130.159L237.878 130.389C238.359 130.588 238.89 130.588 239.37 130.389L241.433 129.52C241.994 129.28 242.364 128.731 242.364 128.132L242.354 128.122Z" fill="#4C5461" stroke="#22571A" stroke-width="0.9" stroke-linecap="round" stroke-linejoin="round"/>
<path d="M238.429 122.36V128.501" stroke="#22571A" stroke-width="0.9" stroke-linecap="round" stroke-linejoin="round"/>
<path d="M236.977 113.603L237.918 115.171C238.109 115.49 238.209 115.85 238.209 116.219L238.179 120.483C238.179 120.673 238.329 120.812 238.519 120.832C238.519 120.832 239.29 121.162 240.221 120.513C240.291 120.443 240.332 120.353 240.332 120.253V115.72C240.332 115.331 240.221 114.941 240.001 114.612L238.679 112.535C238.409 112.115 237.878 111.965 237.428 112.165C236.877 112.405 236.657 113.094 236.967 113.603H236.977Z" fill="#4C5461" stroke="#22571A" stroke-width="0.9" stroke-linecap="round" stroke-linejoin="round"/>
<path d="M200.981 163.879V164.289C200.981 165.657 202.382 166.585 203.654 166.056L206.808 164.718C207.499 164.428 207.95 163.749 207.95 162.99V161.353C207.95 160.983 207.569 160.734 207.229 160.874L201.291 163.39C201.101 163.47 200.981 163.659 200.981 163.869V163.879Z" fill="#2C9FDC" stroke="#22571A" stroke-width="0.9" stroke-linecap="round" stroke-linejoin="round"/>
<path d="M228.676 151.897V153.914C228.676 154.523 229.297 154.942 229.868 154.703L233.132 153.315C234.134 152.895 234.784 151.917 234.784 150.829V149.74C234.784 149.371 234.404 149.121 234.063 149.261L228.997 151.418C228.807 151.498 228.686 151.687 228.686 151.897H228.676Z" fill="#2C9FDC" stroke="#22571A" stroke-width="0.9" stroke-linecap="round" stroke-linejoin="round"/>
<path d="M215.489 157.998V162.551L224.591 158.697V154.134L215.489 157.998Z" fill="#FFE863" stroke="#22571A" stroke-width="0.9" stroke-linecap="round" stroke-linejoin="round"/>
<path d="M209.161 122.909C209.051 122.949 208.961 122.949 208.881 122.909C208.801 122.87 208.761 122.78 208.761 122.67L208.781 118.196C208.781 118.087 208.821 117.967 208.901 117.857C208.981 117.747 209.071 117.667 209.181 117.617L211.654 116.609C211.765 116.559 211.855 116.569 211.935 116.609C212.015 116.649 212.045 116.739 212.045 116.848V117.088C212.045 117.198 212.005 117.308 211.925 117.428C211.845 117.547 211.754 117.617 211.644 117.667L210.062 118.316C210.062 118.316 210.012 118.356 210.012 118.386V119.445C210.012 119.445 210.012 119.495 210.062 119.475L211.354 118.945C211.464 118.895 211.554 118.905 211.634 118.945C211.714 118.985 211.744 119.075 211.744 119.195V119.435C211.744 119.554 211.704 119.664 211.624 119.774C211.544 119.884 211.454 119.964 211.344 120.004L210.052 120.533C210.052 120.533 210.002 120.573 210.002 120.613V122.161C209.992 122.27 209.952 122.38 209.872 122.49C209.792 122.6 209.702 122.68 209.592 122.73L209.161 122.909Z" fill="white"/>
<path d="M216.781 119.414C216.781 119.414 216.801 119.474 216.801 119.524C216.801 119.564 216.791 119.604 216.761 119.654C216.711 119.754 216.651 119.814 216.571 119.854L216 120.093C215.88 120.143 215.77 120.153 215.67 120.133C215.569 120.113 215.489 120.054 215.429 119.974L214.728 118.825C214.728 118.825 214.688 118.805 214.658 118.815L214.178 119.015C214.178 119.015 214.128 119.055 214.128 119.085L214.108 120.483C214.108 120.593 214.067 120.703 213.987 120.812C213.907 120.922 213.817 121.002 213.707 121.052L213.276 121.232C213.166 121.272 213.076 121.272 213.006 121.232C212.936 121.192 212.896 121.102 212.896 120.992L212.956 116.519C212.956 116.409 212.996 116.289 213.076 116.179C213.156 116.069 213.246 115.99 213.357 115.94L214.838 115.33C216.16 114.791 216.811 115.081 216.791 116.199C216.781 116.918 216.491 117.527 215.93 118.047C215.9 118.066 215.9 118.096 215.91 118.116L216.791 119.434L216.781 119.414ZM214.208 116.569C214.208 116.569 214.158 116.609 214.158 116.639L214.138 117.967C214.138 117.967 214.158 118.007 214.188 117.997L214.678 117.797C214.969 117.677 215.189 117.527 215.339 117.338C215.489 117.148 215.569 116.928 215.569 116.679C215.569 116.439 215.499 116.299 215.359 116.259C215.219 116.219 214.999 116.259 214.688 116.379L214.198 116.579L214.208 116.569Z" fill="white"/>
<path d="M218.053 119.235C217.943 119.275 217.852 119.275 217.782 119.235C217.712 119.195 217.672 119.105 217.672 118.995L217.762 114.522C217.762 114.412 217.802 114.292 217.882 114.182C217.963 114.072 218.053 113.992 218.163 113.943L220.586 112.954C220.696 112.904 220.786 112.914 220.856 112.954C220.926 112.994 220.966 113.084 220.956 113.204V113.443C220.956 113.553 220.906 113.663 220.826 113.783C220.746 113.903 220.656 113.972 220.546 114.022L219.004 114.651C219.004 114.651 218.954 114.691 218.954 114.721L218.934 115.61C218.934 115.61 218.954 115.65 218.984 115.64L220.225 115.131C220.336 115.081 220.426 115.091 220.496 115.131C220.566 115.171 220.606 115.261 220.596 115.37V115.62C220.596 115.73 220.546 115.84 220.466 115.95C220.386 116.059 220.296 116.139 220.185 116.189L218.944 116.698C218.944 116.698 218.894 116.738 218.894 116.768L218.874 117.787C218.874 117.787 218.894 117.827 218.924 117.817L220.536 117.148C220.646 117.108 220.736 117.108 220.806 117.148C220.876 117.188 220.916 117.278 220.916 117.387V117.637C220.916 117.747 220.866 117.857 220.786 117.967C220.706 118.076 220.616 118.156 220.506 118.196L218.023 119.225L218.053 119.235Z" fill="white"/>
<path d="M222.298 117.487C222.198 117.527 222.108 117.527 222.028 117.487C221.948 117.447 221.918 117.358 221.918 117.248L222.048 112.774C222.048 112.665 222.088 112.545 222.168 112.435C222.248 112.325 222.338 112.245 222.448 112.195L224.861 111.207C224.972 111.157 225.062 111.167 225.132 111.207C225.202 111.247 225.242 111.336 225.232 111.456V111.696C225.222 111.806 225.182 111.916 225.102 112.035C225.022 112.145 224.932 112.225 224.821 112.275L223.289 112.904C223.289 112.904 223.239 112.944 223.239 112.974L223.209 113.863C223.209 113.863 223.229 113.903 223.259 113.893L224.501 113.383C224.611 113.334 224.701 113.344 224.771 113.383C224.841 113.423 224.882 113.513 224.871 113.623V113.873C224.861 113.983 224.821 114.092 224.741 114.202C224.661 114.312 224.571 114.392 224.461 114.442L223.229 114.951C223.229 114.951 223.179 114.991 223.179 115.021L223.149 116.04C223.149 116.04 223.169 116.079 223.199 116.07L224.801 115.41C224.902 115.371 224.992 115.371 225.072 115.41C225.152 115.45 225.182 115.54 225.172 115.65V115.9C225.162 116.01 225.122 116.119 225.042 116.229C224.962 116.339 224.871 116.419 224.771 116.459L222.308 117.477L222.298 117.487Z" fill="white"/>
<path d="M21.8483 118.865C21.8483 118.865 25.2127 125.296 27.0951 131.936C27.7159 134.143 28.0163 136.419 28.0464 138.706L27.5057 159.156L31.9514 160.364L32.6323 138.936C32.7324 135.92 33.6236 132.975 35.2857 130.448C36.3672 128.801 37.7289 127.103 39.2208 126.115L34.7751 124.707C34.7751 124.707 31.4408 128.231 30.5296 131.956C30.5296 131.956 28.6071 124.098 26.6946 120.982L21.8483 118.865Z" fill="#C17B4C" stroke="#22571A" stroke-width="0.9" stroke-linecap="round" stroke-linejoin="round"/>
<path d="M59.8076 80.7812C61.3896 74.6702 59.5973 67.8702 54.6909 63.4666C48.4829 57.8948 39.4311 58.1145 33.5135 63.6264C26.4243 61.2898 18.3939 63.4067 13.2772 69.6875C9.19194 74.7001 7.90026 81.2206 9.22198 87.2018C8.37087 87.9307 7.56984 88.7495 6.82888 89.6582C-0.00998902 98.0458 0.96127 110.707 9.00169 117.917C13.3974 121.861 19.0047 123.359 24.3015 122.53C33.4734 130.488 47.031 129.33 54.761 119.844C59.1467 114.462 60.7087 107.552 59.6073 101.061C64.9642 95.23 65.0443 86.2631 59.7975 80.7612L59.8076 80.7812Z" fill="#80C93C" stroke="#22571A" stroke-width="0.9" stroke-linecap="round" stroke-linejoin="round"/>
<path d="M29.8287 70.3167C29.8287 70.3167 32.3519 68.3995 34.9753 70.3167C34.9753 70.3167 38.3097 68.2996 40.7328 71.4251" stroke="#22571A" stroke-width="0.9" stroke-linecap="round" stroke-linejoin="round"/>
<path d="M47.4015 82.4986C47.4015 82.4986 50.2251 81.4901 51.7471 84.2061" stroke="#22571A" stroke-width="0.9" stroke-linecap="round" stroke-linejoin="round"/>
<path d="M14.8793 91.765C14.8793 91.765 14.3787 88.4399 18.3138 88.34C18.3138 88.34 18.8845 84.8152 23.2401 85.624" stroke="#22571A" stroke-width="0.9" stroke-linecap="round" stroke-linejoin="round"/>
<path d="M23.9711 103.268C23.9711 103.268 27.005 102.08 29.3781 104.776" stroke="#22571A" stroke-width="0.9" stroke-linecap="round" stroke-linejoin="round"/>
<path d="M76.4491 134.433L20.4164 157.838C19.9659 158.028 19.6655 158.467 19.6655 158.957V164.229C19.6655 164.718 19.9558 165.157 20.4164 165.347L128.286 210.411C128.737 210.601 129.248 210.601 129.698 210.411L185.49 187.155C185.941 186.965 186.241 186.526 186.241 186.037V180.765C186.241 180.275 185.951 179.836 185.49 179.646L77.3903 134.443C77.0899 134.313 76.7495 134.313 76.4491 134.443V134.433Z" fill="white" stroke="#22571A" stroke-width="0.9" stroke-linecap="round" stroke-linejoin="round"/>
<path d="M22.9397 159.795L128.527 203.901" stroke="#22571A" stroke-width="0.9" stroke-linecap="round" stroke-linejoin="round"/>
<path d="M130.479 204.01L183.278 182.013" stroke="#22571A" stroke-width="0.9" stroke-linecap="round" stroke-linejoin="round"/>
<path d="M93.1507 183.241V143.819L91.2983 143.05L88.0341 144.428V183.85L89.8865 184.609L93.1507 183.241Z" fill="#F1F3F6" stroke="#22571A" stroke-width="0.9" stroke-linecap="round" stroke-linejoin="round"/>
<path d="M90.4572 182.432V146.105" stroke="#22571A" stroke-width="0.9" stroke-linecap="round" stroke-linejoin="round"/>
<path d="M32.0115 158.397V118.975L30.1591 118.206L26.8948 119.584V159.006L28.7472 159.765L32.0115 158.397Z" fill="#F1F3F6" stroke="#22571A" stroke-width="0.9" stroke-linecap="round" stroke-linejoin="round"/>
<path d="M29.318 157.588V121.262" stroke="#22571A" stroke-width="0.9" stroke-linecap="round" stroke-linejoin="round"/>
<path d="M121.397 126.764L54.06 98.5752C53.4693 98.3256 52.7984 98.4354 52.3078 98.8349L23.0098 117.308C22.6193 117.627 22.399 118.107 22.399 118.616V120.922C22.399 121.601 22.8095 122.22 23.4403 122.49L90.7776 150.679C91.3684 150.928 92.0393 150.818 92.5299 150.419L121.828 131.946C122.218 131.627 122.439 131.147 122.439 130.638V128.332C122.439 127.653 122.028 127.033 121.397 126.764Z" fill="white" stroke="#22571A" stroke-width="0.9" stroke-linecap="round" stroke-linejoin="round"/>
<path d="M25.8034 119.654L89.7763 146.435" stroke="#22571A" stroke-width="0.9" stroke-linecap="round" stroke-linejoin="round"/>
<path d="M92.2295 146.085L119.965 128.911" stroke="#22571A" stroke-width="0.9" stroke-linecap="round" stroke-linejoin="round"/>
<path d="M90.9679 143.389L115.6 127.832C115.72 127.762 115.7 127.583 115.57 127.533L53.6195 101.611C53.5694 101.591 53.5093 101.591 53.4593 101.621L28.5269 117.378C28.4068 117.448 28.4268 117.627 28.557 117.677L90.1768 143.459C90.4372 143.569 90.7276 143.539 90.9679 143.389Z" fill="#2C9FDC" stroke="#22571A" stroke-width="0.9" stroke-linecap="round" stroke-linejoin="round"/>
<path d="M45.0284 152.576L35.9065 156.38C35.8264 156.41 35.7864 156.49 35.7864 156.57V162.391C35.7864 162.471 35.8364 162.551 35.9065 162.581L60.0478 172.876C60.3282 172.996 60.6486 172.996 60.929 172.876L69.9206 169.131C70.0007 169.102 70.0408 169.022 70.0408 168.942V163.12C70.0408 163.04 69.9907 162.961 69.9206 162.931L45.6592 152.576C45.4589 152.496 45.2286 152.496 45.0284 152.576Z" fill="#FFE863" stroke="#22571A" stroke-width="0.9" stroke-linecap="round" stroke-linejoin="round"/>
<path d="M44.5678 151.148L33.8339 155.631C33.7437 155.671 33.6837 155.751 33.6837 155.851V156.889C33.6837 156.989 33.7437 157.069 33.8339 157.109L60.3282 168.343C60.6586 168.482 61.0291 168.482 61.3595 168.343L71.9433 163.929C72.0334 163.889 72.0934 163.809 72.0934 163.709V162.671C72.0934 162.571 72.0334 162.491 71.9433 162.451L45.2987 151.148C45.0584 151.048 44.7981 151.048 44.5578 151.148H44.5678Z" fill="#FFE863" stroke="#22571A" stroke-width="0.9" stroke-linecap="round" stroke-linejoin="round"/>
<path d="M60.6186 171.428V169.801" stroke="#22571A" stroke-width="0.9" stroke-linecap="round" stroke-linejoin="round"/>
<path d="M72.3237 147.413L67.7278 149.291C67.6477 149.321 67.6076 149.401 67.6076 149.48V175.882C67.6076 175.961 67.6577 176.041 67.7278 176.071L79.4129 181.064C79.6933 181.184 80.0137 181.184 80.2941 181.064L84.7699 179.247C84.85 179.217 84.89 179.137 84.89 179.057V152.656C84.89 152.576 84.84 152.496 84.7699 152.466L72.9646 147.413C72.7643 147.334 72.534 147.334 72.3337 147.413H72.3237Z" fill="#4C5461" stroke="#22571A" stroke-width="0.9" stroke-linecap="round" stroke-linejoin="round"/>
<path d="M69.1196 151.478L78.672 155.462V176.051L69.1096 172.077L69.1196 151.478Z" fill="#76E9FC" stroke="#22571A" stroke-width="0.9" stroke-linecap="round" stroke-linejoin="round"/>
<path d="M80.2941 155.002L83.4181 153.734" stroke="#22571A" stroke-width="0.9" stroke-linecap="round" stroke-linejoin="round"/>
<path d="M80.3441 177.938V157.279" stroke="#22571A" stroke-width="0.9" stroke-linecap="round" stroke-linejoin="round"/>
<path d="M150.787 164.81C150.928 164.023 150.494 163.287 149.819 163.167C149.144 163.047 148.483 163.588 148.343 164.375C148.202 165.163 148.636 165.898 149.311 166.018C149.986 166.138 150.647 165.597 150.787 164.81Z" fill="white" stroke="#22571A" stroke-width="0.9" stroke-linecap="round" stroke-linejoin="round"/>
<path d="M149.344 154.593C149.344 154.593 148.312 159.386 147.962 163.879C147.962 163.879 149.934 164.708 151.106 163.889L152.448 154.443" fill="#FFE863"/>
<path d="M149.344 154.593C149.344 154.593 148.312 159.386 147.962 163.879C147.962 163.879 149.934 164.708 151.106 163.889L152.448 154.443" stroke="#22571A" stroke-width="0.9" stroke-linecap="round" stroke-linejoin="round"/>
<path d="M149.744 162.981C149.744 162.981 149.404 165.607 149.554 167.824C149.694 169.781 149.734 177.739 149.734 179.546C149.734 179.786 149.874 180.006 150.085 180.116C150.665 180.405 151.907 180.844 153.279 180.235C153.279 180.235 155.021 181.304 157.024 180.555L158.465 179.886C158.566 179.836 158.626 179.726 158.596 179.616C158.526 179.357 158.295 178.887 157.594 178.628C157.594 178.628 157.825 167.135 157.334 163.32L149.754 162.991L149.744 162.981Z" fill="#8E9BB0" stroke="#22571A" stroke-width="0.9" stroke-linecap="round" stroke-linejoin="round"/>
<path d="M149.253 163.6C150.185 164.019 154.03 165.547 158.155 164.159C158.275 164.119 158.355 164.009 158.355 163.889C158.395 162.741 158.546 156.999 158.135 154.932C157.674 152.626 155.632 151.567 153.809 151.308C151.987 151.048 150.085 151.897 149.434 154.034C148.843 155.941 149.003 162.032 149.043 163.29C149.043 163.43 149.133 163.56 149.264 163.62L149.253 163.6Z" fill="#FFE863" stroke="#22571A" stroke-width="0.9" stroke-linecap="round" stroke-linejoin="round"/>
<path d="M151.877 167.913C151.877 167.913 152.307 169.062 152.978 169.501L153.279 180.225" stroke="#22571A" stroke-width="0.9" stroke-linecap="round" stroke-linejoin="round"/>
<path d="M157.487 167.712C158.173 167.696 158.713 167.035 158.694 166.235C158.676 165.436 158.104 164.801 157.419 164.817C156.733 164.833 156.193 165.494 156.212 166.294C156.231 167.093 156.802 167.728 157.487 167.712Z" fill="#FFE1C4" stroke="#22571A" stroke-width="0.9" stroke-linecap="round" stroke-linejoin="round"/>
<path d="M155.101 156.2C155.101 156.2 155.261 163.11 155.732 165.856C155.732 165.856 157.835 166.276 158.816 165.247L158.255 155.721" fill="#FFE863"/>
<path d="M155.101 156.2C155.101 156.2 155.261 163.11 155.732 165.856C155.732 165.856 157.835 166.276 158.816 165.247L158.255 155.721" stroke="#22571A" stroke-width="0.9" stroke-linecap="round" stroke-linejoin="round"/>
<path d="M155.311 145.217C154.2 144.618 152.808 144.568 151.556 145.297C150.305 146.025 149.544 147.533 149.724 149.001C149.844 149.95 150.275 150.739 150.896 151.318C151.276 151.338 151.727 151.338 152.207 151.298C153.058 151.218 153.88 150.898 154.52 150.329C155.281 149.63 155.602 148.801 155.692 147.993C155.752 147.483 155.932 146.984 156.223 146.565C156.313 146.435 156.403 146.295 156.453 146.175C156.132 145.786 155.752 145.466 155.311 145.237V145.217Z" fill="white" stroke="#22571A" stroke-width="0.9" stroke-linecap="round" stroke-linejoin="round"/>
<path d="M155.692 147.953C155.602 148.781 155.291 149.62 154.51 150.329C153.879 150.898 153.048 151.218 152.197 151.298C151.717 151.338 151.266 151.338 150.896 151.318C152.007 152.366 153.719 152.706 155.241 151.937C156.463 151.318 157.264 150.04 157.304 148.672C157.334 147.653 156.984 146.804 156.443 146.155C156.363 146.335 156.273 146.495 156.172 146.645C155.902 147.034 155.732 147.483 155.682 147.953H155.692Z" fill="#FFE1C4" stroke="#22571A" stroke-width="0.9" stroke-linecap="round" stroke-linejoin="round"/>
<path d="M105.853 172.252C105.993 171.464 105.56 170.729 104.885 170.609C104.21 170.489 103.549 171.03 103.408 171.817C103.268 172.604 103.701 173.34 104.376 173.46C105.051 173.58 105.713 173.039 105.853 172.252Z" fill="#FFE1C4" stroke="#22571A" stroke-width="0.9" stroke-linecap="round" stroke-linejoin="round"/>
<path d="M104.395 162.032C104.395 162.032 103.364 166.825 103.014 171.318C103.014 171.318 104.986 172.147 106.158 171.328L107.499 161.882" fill="#FD8C30"/>
<path d="M104.395 162.032C104.395 162.032 103.364 166.825 103.014 171.318C103.014 171.318 104.986 172.147 106.158 171.328L107.499 161.882" stroke="#22571A" stroke-width="0.9" stroke-linecap="round" stroke-linejoin="round"/>
<path d="M108.09 178.658C108.09 178.658 110.443 179.946 112.696 178.578C112.676 175.572 112.606 172.417 112.386 170.749L104.806 170.42C104.806 170.42 104.465 173.046 104.616 175.263C104.656 175.822 104.686 176.87 104.706 178.118C105.387 178.578 106.568 179.087 108.09 178.658Z" fill="#00BA78" stroke="#22571A" stroke-width="0.9" stroke-linecap="round" stroke-linejoin="round"/>
<path d="M108.29 186.097C108.29 186.097 110.303 186.975 112.636 186.057C112.636 186.057 112.706 182.432 112.686 178.578C110.443 179.946 108.08 178.658 108.08 178.658C106.548 179.097 105.376 178.588 104.696 178.118C104.746 180.505 104.766 183.64 104.776 185.567C105.216 185.887 106.328 186.466 108.28 186.087L108.29 186.097Z" fill="#FFE1C4" stroke="#22571A" stroke-width="0.9" stroke-linecap="round" stroke-linejoin="round"/>
<path d="M112.646 186.057C110.303 186.975 108.3 186.097 108.3 186.097C106.348 186.476 105.226 185.887 104.796 185.577C104.796 186.186 104.796 186.676 104.796 186.985C104.796 187.225 104.936 187.445 105.146 187.554C105.727 187.844 106.969 188.283 108.34 187.674C108.34 187.674 110.083 188.743 112.085 187.994C112.085 187.994 112.896 187.704 113.377 187.335C113.577 187.185 113.627 186.905 113.487 186.696C113.337 186.476 113.087 186.226 112.646 186.067V186.057Z" fill="#8E9BB0" stroke="#22571A" stroke-width="0.9" stroke-linecap="round" stroke-linejoin="round"/>
<path d="M104.315 171.039C105.246 171.458 109.091 172.986 113.217 171.598C113.337 171.558 113.417 171.448 113.417 171.328C113.457 170.18 113.607 164.438 113.197 162.371C112.736 160.065 110.694 159.006 108.871 158.747C107.049 158.487 105.146 159.336 104.495 161.473C103.905 163.38 104.065 169.471 104.105 170.729C104.105 170.869 104.195 170.999 104.325 171.059L104.315 171.039Z" fill="#FD8C30" stroke="#22571A" stroke-width="0.9" stroke-linecap="round" stroke-linejoin="round"/>
<path d="M106.939 175.362C106.939 175.362 107.369 176.511 108.04 176.95L108.34 187.674" stroke="#22571A" stroke-width="0.9" stroke-linecap="round" stroke-linejoin="round"/>
<path d="M110.333 152.196C109.222 151.597 107.83 151.547 106.578 152.276C105.297 153.025 104.566 154.513 104.746 155.981C104.866 156.929 105.296 157.718 105.917 158.297C106.298 158.317 106.748 158.317 107.229 158.277C108.08 158.198 108.901 157.878 109.542 157.309C110.303 156.61 110.623 155.781 110.714 154.972C110.774 154.463 110.954 153.964 111.244 153.544C111.334 153.415 111.424 153.275 111.475 153.155C111.154 152.766 110.774 152.446 110.333 152.216V152.196Z" fill="#FFE863" stroke="#22571A" stroke-width="0.9" stroke-linecap="round" stroke-linejoin="round"/>
<path d="M110.714 154.932C110.623 155.761 110.313 156.6 109.532 157.309C108.901 157.878 108.07 158.198 107.219 158.277C106.738 158.317 106.288 158.317 105.917 158.297C107.029 159.346 108.741 159.685 110.263 158.917C111.485 158.297 112.286 157.019 112.326 155.651C112.356 154.633 112.005 153.784 111.464 153.135C111.384 153.315 111.294 153.475 111.194 153.624C110.924 154.014 110.754 154.463 110.704 154.932H110.714Z" fill="#FFE1C4" stroke="#22571A" stroke-width="0.9" stroke-linecap="round" stroke-linejoin="round"/>
<path d="M112.537 175.147C113.223 175.13 113.763 174.469 113.744 173.67C113.725 172.87 113.154 172.235 112.469 172.252C111.783 172.268 111.243 172.929 111.262 173.728C111.281 174.528 111.852 175.163 112.537 175.147Z" fill="#FFE1C4" stroke="#22571A" stroke-width="0.9" stroke-linecap="round" stroke-linejoin="round"/>
<path d="M110.163 163.65C110.163 163.65 110.323 170.56 110.794 173.306C110.794 173.306 112.896 173.725 113.878 172.696L113.317 163.17" fill="#FD8C30"/>
<path d="M110.163 163.65C110.163 163.65 110.323 170.56 110.794 173.306C110.794 173.306 112.896 173.725 113.878 172.696L113.317 163.17" stroke="#22571A" stroke-width="0.9" stroke-linecap="round" stroke-linejoin="round"/>
<path d="M136.745 169.025C136.886 168.237 136.452 167.502 135.777 167.382C135.102 167.262 134.441 167.803 134.301 168.59C134.16 169.377 134.594 170.113 135.269 170.233C135.944 170.353 136.605 169.812 136.745 169.025Z" fill="white" stroke="#22571A" stroke-width="0.9" stroke-linecap="round" stroke-linejoin="round"/>
<path d="M135.305 158.797C135.305 158.797 134.274 163.589 133.924 168.083C133.924 168.083 135.896 168.912 137.068 168.093L138.409 158.647" fill="#76E9FC"/>
<path d="M135.305 158.797C135.305 158.797 134.274 163.589 133.924 168.083C133.924 168.083 135.896 168.912 137.068 168.093L138.409 158.647" stroke="#22571A" stroke-width="0.9" stroke-linecap="round" stroke-linejoin="round"/>
<path d="M135.706 167.184C135.706 167.184 135.365 169.81 135.516 172.027C135.656 173.984 135.696 181.943 135.696 183.75C135.696 183.99 135.836 184.209 136.046 184.319C136.627 184.609 137.869 185.048 139.241 184.439C139.241 184.439 140.983 185.507 142.985 184.759L144.427 184.089C144.527 184.04 144.587 183.93 144.557 183.82C144.487 183.56 144.257 183.091 143.556 182.831C143.556 182.831 143.786 171.338 143.296 167.524L135.716 167.194L135.706 167.184Z" fill="#D9F1F5" stroke="#22571A" stroke-width="0.9" stroke-linecap="round" stroke-linejoin="round"/>
<path d="M135.215 167.803C136.146 168.223 139.991 169.75 144.117 168.363C144.237 168.323 144.317 168.213 144.317 168.093C144.357 166.945 144.507 161.203 144.097 159.136C143.636 156.829 141.594 155.771 139.771 155.511C137.949 155.252 136.046 156.101 135.396 158.237C134.805 160.145 134.965 166.236 135.005 167.494C135.005 167.634 135.095 167.763 135.225 167.823L135.215 167.803Z" fill="#76E9FC" stroke="#22571A" stroke-width="0.9" stroke-linecap="round" stroke-linejoin="round"/>
<path d="M137.839 172.117C137.839 172.117 138.269 173.265 138.94 173.705L139.24 184.429" stroke="#22571A" stroke-width="0.9" stroke-linecap="round" stroke-linejoin="round"/>
<path d="M143.452 171.915C144.138 171.899 144.678 171.238 144.659 170.438C144.64 169.639 144.069 169.004 143.384 169.02C142.698 169.036 142.158 169.697 142.177 170.497C142.196 171.296 142.767 171.931 143.452 171.915Z" fill="#FFE1C4" stroke="#22571A" stroke-width="0.9" stroke-linecap="round" stroke-linejoin="round"/>
<path d="M141.063 160.404C141.063 160.404 141.223 167.314 141.694 170.06C141.694 170.06 143.796 170.479 144.778 169.451L144.217 159.925" fill="#76E9FC"/>
<path d="M141.063 160.404C141.063 160.404 141.223 167.314 141.694 170.06C141.694 170.06 143.796 170.479 144.778 169.451L144.217 159.925" stroke="#22571A" stroke-width="0.9" stroke-linecap="round" stroke-linejoin="round"/>
<path d="M142.405 149.91C142.104 149.52 141.724 149.191 141.303 148.951C140.222 148.332 138.84 148.242 137.578 148.931C136.557 149.49 135.586 150.579 135.406 151.707C135.125 152.646 134.915 154.872 135.125 156.919C135.125 156.919 138.82 159.166 143.126 157.329L143.095 153.894C143.095 153.494 143.095 153.095 143.156 152.706C143.166 152.616 143.176 152.526 143.186 152.436C143.246 151.427 142.915 150.579 142.405 149.92V149.91Z" fill="#C17B4C" stroke="#22571A" stroke-width="0.9" stroke-linecap="round" stroke-linejoin="round"/>
<path d="M122.324 171.325C122.465 170.537 122.031 169.802 121.356 169.682C120.681 169.562 120.02 170.103 119.879 170.89C119.739 171.677 120.172 172.413 120.847 172.533C121.522 172.653 122.184 172.112 122.324 171.325Z" fill="white" stroke="#22571A" stroke-width="0.9" stroke-linecap="round" stroke-linejoin="round"/>
<path d="M120.947 161.513C120.947 161.513 119.835 165.906 119.495 170.4C119.495 170.4 121.467 171.229 122.639 170.41L123.981 160.964" fill="white"/>
<path d="M120.947 161.513C120.947 161.513 119.835 165.906 119.495 170.4C119.495 170.4 121.467 171.229 122.639 170.41L123.981 160.964" stroke="#22571A" stroke-linecap="round" stroke-linejoin="round"/>
<path d="M129.618 183.67C129.658 180.575 129.248 172.856 128.857 169.821L121.277 169.491C121.277 169.491 120.927 171.718 120.727 174.474C120.727 174.474 120.396 180.395 120.546 183.95C122.228 184.429 126.544 184.978 129.628 183.67H129.618Z" fill="#FF9894" stroke="#22571A" stroke-width="0.9" stroke-linecap="round" stroke-linejoin="round"/>
<path d="M129.117 185.128C129.117 185.128 129.117 184.649 129.137 183.85C126.053 185.158 122.939 184.619 121.257 184.13C121.257 184.978 121.257 185.657 121.267 186.047C121.267 186.287 121.407 186.506 121.618 186.616C122.198 186.906 123.44 187.345 124.812 186.736C124.812 186.736 126.554 187.804 128.557 187.055C128.557 187.055 129.208 186.766 129.708 186.436C129.999 186.247 130.069 185.847 129.838 185.588C129.688 185.418 129.458 185.248 129.127 185.118L129.117 185.128Z" fill="#8E9BB0" stroke="#22571A" stroke-width="0.9" stroke-linecap="round" stroke-linejoin="round"/>
<path d="M120.787 170.12C121.718 170.54 125.583 171.698 129.698 170.31C129.818 170.27 129.898 170.16 129.898 170.04C129.938 168.892 130.069 163.52 129.658 161.453C129.197 159.146 127.155 158.088 125.332 157.828C123.51 157.569 121.658 158.987 120.997 161.123C120.406 163.031 120.516 168.552 120.556 169.801C120.556 169.94 120.646 170.07 120.777 170.13L120.787 170.12Z" fill="white" stroke="#22571A" stroke-linecap="round" stroke-linejoin="round"/>
<path d="M124.722 184.729L124.812 186.736" stroke="#22571A" stroke-width="0.9" stroke-linecap="round" stroke-linejoin="round"/>
<path d="M126.754 151.677C125.663 151.008 124.251 150.878 122.939 151.548C121.628 152.217 120.767 153.704 120.877 155.202C120.947 156.171 121.347 157 121.938 157.619C122.319 157.659 122.779 157.678 123.27 157.669C124.141 157.639 124.992 157.359 125.663 156.81C126.474 156.151 126.844 155.322 126.975 154.503C127.055 153.984 127.275 153.495 127.595 153.075C127.696 152.945 127.786 152.806 127.846 152.686C127.545 152.276 127.175 151.927 126.744 151.667L126.754 151.677Z" fill="#4C5461" stroke="#22571A" stroke-width="0.9" stroke-linecap="round" stroke-linejoin="round"/>
<path d="M126.985 154.473C126.854 155.302 126.484 156.141 125.663 156.82C124.992 157.369 124.131 157.649 123.26 157.668C122.769 157.688 122.319 157.669 121.938 157.619C123.009 158.747 124.732 159.176 126.314 158.487C127.585 157.928 128.477 156.67 128.587 155.292C128.677 154.254 128.366 153.385 127.856 152.696C127.766 152.876 127.666 153.035 127.555 153.175C127.265 153.555 127.065 154.004 126.985 154.473Z" fill="#FFE1C4" stroke="#22571A" stroke-width="0.9" stroke-linecap="round" stroke-linejoin="round"/>
<path d="M129.012 174.231C129.698 174.215 130.238 173.554 130.219 172.754C130.2 171.955 129.629 171.32 128.944 171.336C128.258 171.352 127.718 172.013 127.737 172.812C127.756 173.612 128.327 174.247 129.012 174.231Z" fill="#FFE1C4" stroke="#22571A" stroke-width="0.9" stroke-linecap="round" stroke-linejoin="round"/>
<path d="M126.634 162.721C126.634 162.721 126.794 169.631 127.265 172.377C127.265 172.377 129.368 172.796 130.349 171.768L129.788 162.242" fill="white"/>
<path d="M126.634 162.721C126.634 162.721 126.794 169.631 127.265 172.377C127.265 172.377 129.368 172.796 130.349 171.768L129.788 162.242" stroke="#22571A" stroke-linecap="round" stroke-linejoin="round"/>
<path d="M120.696 153.505C122.273 153.505 123.55 152.231 123.55 150.659C123.55 149.087 122.273 147.813 120.696 147.813C119.12 147.813 117.843 149.087 117.843 150.659C117.843 152.231 119.12 153.505 120.696 153.505Z" fill="#4C5461" stroke="#22571A" stroke-width="0.9" stroke-linecap="round" stroke-linejoin="round"/>
<path d="M50.135 108.461L101.782 130.219" stroke="#22571A" stroke-width="0.9" stroke-linecap="round" stroke-linejoin="round"/>
<path d="M41.624 114.102L93.2709 135.86" stroke="#22571A" stroke-width="0.9" stroke-linecap="round" stroke-linejoin="round"/>
<path d="M68.5389 109.679L47.0811 123.209" stroke="#22571A" stroke-width="0.9" stroke-linecap="round" stroke-linejoin="round"/>
<path d="M81.1752 115.061L59.7174 128.601" stroke="#22571A" stroke-width="0.9" stroke-linecap="round" stroke-linejoin="round"/>
<path d="M93.8116 120.453L72.3538 133.983" stroke="#22571A" stroke-width="0.9" stroke-linecap="round" stroke-linejoin="round"/>
<path d="M109.392 77.7757L189.736 110.907C191.478 111.636 193.451 111.636 195.193 110.907L222.348 99.4938C223.5 99.0145 223.5 97.3869 222.348 96.8977L143.436 64.0859C140.312 63.1472 138.059 63.976 136.877 64.4553L109.392 76.4078C108.781 76.6574 108.781 77.5161 109.392 77.7757Z" fill="#DEE5F4"/>
<path d="M139.711 35.0286L105.166 22.7167C105.166 22.7167 105.987 20.3801 110.703 20.5C110.703 20.5 110.944 18.2433 113.637 17.3046C114.959 16.8453 116.471 16.8353 117.803 17.2747C118.163 17.3945 118.544 17.5543 118.894 17.764C118.894 17.764 120.686 15.5772 124.011 15.3974C125.693 15.2776 127.505 15.9466 128.667 16.8553C131.49 19.0621 130.99 21.8979 130.99 21.8979C130.99 21.8979 136.717 23.7252 135.996 29.4368C135.996 29.4368 139.571 29.6765 139.721 35.0286H139.711Z" fill="white" stroke="#22571A" stroke-width="0.9" stroke-linecap="round" stroke-linejoin="round"/>
<path d="M200.54 15.3873L174.266 6.02105C174.266 6.02105 174.887 4.24366 178.481 4.33353C178.481 4.33353 178.662 2.61605 180.714 1.89711C181.726 1.54762 182.867 1.53764 183.878 1.87714C184.159 1.967 184.439 2.08683 184.709 2.24659C184.709 2.24659 186.071 0.579044 188.604 0.43925C189.886 0.349382 191.258 0.858633 192.149 1.54762C194.302 3.22516 193.911 5.38199 193.911 5.38199C193.911 5.38199 198.267 6.76995 197.716 11.1136C197.716 11.1136 200.44 11.3033 200.55 15.3673L200.54 15.3873Z" fill="white" stroke="#22571A" stroke-width="0.9" stroke-linecap="round" stroke-linejoin="round"/>
</g>
<defs>
<clipPath id="clip0_1116_70036">
<rect width="270" height="211" fill="white"/>
</clipPath>
</defs>
</svg>
