<svg width="517" height="553" viewBox="0 0 517 553" fill="none" xmlns="http://www.w3.org/2000/svg">
<path d="M83.09 541.7C54.02 541.7 28.15 524.31 17.19 497.39C13.71 488.86 11.95 479.83 11.95 470.56V103.44C11.95 64.21 43.86 32.3 83.09 32.3H433.91C473.14 32.3 505.05 64.21 505.05 103.44V470.56C505.05 483.97 501.3 497.04 494.2 508.34C481.09 529.23 458.56 541.7 433.91 541.7H83.09Z" fill="white"/>
<path d="M495.05 103.44V470.56C495.05 482.48 491.64 493.61 485.73 503.02C474.92 520.25 455.75 531.7 433.91 531.7H83.0899C57.4799 531.7 35.55 515.96 26.45 493.62C23.55 486.5 21.95 478.72 21.95 470.56V103.44C21.95 69.67 49.3199 42.3 83.0899 42.3H433.91C467.68 42.3 495.05 69.67 495.05 103.44Z" fill="#E2F7A6"/>
<path d="M485.73 503.02C474.92 520.25 455.75 531.7 433.91 531.7H83.0899C57.4799 531.7 35.55 515.96 26.45 493.62C32.03 483.7 42.65 477.01 54.84 477.01C56.81 477.01 58.7299 477.19 60.5999 477.53C60.8099 472.42 63.7 468.01 67.9 465.67C67.77 464.9 67.7099 464.12 67.7099 463.32C67.7099 455.46 74.08 449.09 81.94 449.09C87.38 449.09 92.1 452.14 94.5 456.63C96.78 455.65 99.28 455.11 101.92 455.11C112.35 455.11 120.8 463.57 120.8 474C120.8 476.41 120.35 478.72 119.52 480.85C119.58 480.84 119.65 480.84 119.71 480.84C126.63 480.84 132.54 485.12 134.96 491.18C138.37 488.48 142.67 486.86 147.35 486.86C158.39 486.86 167.33 495.81 167.33 506.84C167.33 507.35 167.31 507.86 167.27 508.36C168.1 508.27 168.94 508.21 169.8 508.21C177.52 508.21 184.31 512.21 188.2 518.25C191.61 516.73 195.38 515.88 199.36 515.88C200.29 515.88 201.2 515.92 202.11 516.01C202.3 502.57 212.18 491.48 225.09 489.41C237.99 491.48 247.87 502.57 248.07 516.01C248.97 515.92 249.89 515.88 250.82 515.88C254.79 515.88 258.56 516.73 261.97 518.25C265.87 512.21 272.65 508.21 280.38 508.21C281.23 508.21 282.07 508.27 282.9 508.36C282.87 507.86 282.84 507.35 282.84 506.84C282.84 495.81 291.79 486.86 302.82 486.86C307.5 486.86 311.81 488.48 315.21 491.18C317.63 485.12 323.55 480.84 330.46 480.84C330.53 480.84 330.59 480.84 330.66 480.85C329.83 478.72 329.37 476.41 329.37 474C329.37 463.57 337.83 455.11 348.26 455.11C350.89 455.11 353.4 455.65 355.68 456.63C358.07 452.14 362.8 449.09 368.24 449.09C376.1 449.09 382.47 455.46 382.47 463.32C382.47 464.12 382.4 464.9 382.27 465.67C386.48 468.01 389.37 472.42 389.57 477.53C391.44 477.19 393.37 477.01 395.33 477.01C413.32 477.01 427.91 491.59 427.91 509.58C427.91 509.79 427.89 509.99 427.89 510.2C430.92 509.26 434.14 508.76 437.48 508.76C442.22 508.76 446.71 509.78 450.77 511.59C456.72 505.14 465.24 501.1 474.71 501.1C478.58 501.1 482.29 501.77 485.73 503.02V503.02Z" fill="white"/>
<path d="M315.24 89.39L312.7 91.7L316.04 92.88L315.24 89.39Z" fill="#22571A" stroke="#22571A" stroke-width="0.9" stroke-linecap="round" stroke-linejoin="round"/>
<path d="M300.62 77.32C300.62 77.32 295.89 63.78 289.04 62.43C282.19 61.08 286.24 67.89 288.31 71.76C290.38 75.63 293.03 83.48 293.03 83.48L300.62 77.31V77.32Z" fill="white" stroke="#22571A" stroke-width="0.9" stroke-linecap="round" stroke-linejoin="round"/>
<path d="M285.85 73.1C286.61 69.01 294.85 68.69 301.39 72.32C307.93 75.95 313.58 91 313.58 91L316.88 92.67C316.88 92.67 319.11 109.44 308.35 108.42C294.46 107.1 292.51 98.03 290.62 96.21C288.73 94.39 279.07 93.73 279.07 93.73L285.85 73.11V73.1Z" fill="white" stroke="#22571A" stroke-width="0.9" stroke-linecap="round" stroke-linejoin="round"/>
<path d="M420.13 77.98L428.42 165.73L403.73 180.71L340.08 158.89L380.05 72.47L420.13 77.98Z" fill="#FFEB66" stroke="#22571A" stroke-linecap="round" stroke-linejoin="round"/>
<path d="M381.96 72.73C381.96 72.73 373.66 68.52 363.37 74.49C353.08 80.45 329.66 99.69 329.66 99.69L315.24 89.4C315.24 89.4 317.76 100.87 301.1 109.28C301.1 109.28 323.29 145.1 339.12 142.7C354.95 140.3 360.87 122.89 360.87 122.89L381.96 72.73V72.73Z" fill="#FFEB66"/>
<path d="M387.93 62.09L387.6 83.64C387.6 83.64 399.51 86.05 410.52 78.89L408.75 60.13L387.93 62.1V62.09Z" fill="white" stroke="#22571A" stroke-width="0.9" stroke-linecap="round" stroke-linejoin="round"/>
<path d="M378.31 36.09C378.31 36.09 375.08 29.46 380.48 22.39C383.35 18.63 387.54 18.82 387.54 18.82C387.54 18.82 419.3 5.4 425.62 36.99C429.68 57.25 409.66 65.21 409.66 65.21L378.3 36.09H378.31Z" fill="#596270"/>
<path d="M378.31 36.09C378.31 36.09 375.08 29.46 380.48 22.39C383.35 18.63 387.54 18.82 387.54 18.82C387.54 18.82 419.3 5.4 425.62 36.99C429.68 57.25 409.66 65.21 409.66 65.21L378.3 36.09H378.31Z" stroke="#22571A" stroke-width="0.9" stroke-linecap="round" stroke-linejoin="round"/>
<path d="M419.22 44.11C418.08 32.04 407.37 23.17 395.29 24.32C385.12 25.28 378.41 31.62 376.86 41.26C376.57 43.06 375.73 46.34 375.99 49.14C377.13 61.21 387.35 69.19 399.42 68.05C411.49 66.91 420.36 56.2 419.21 44.12L419.22 44.11Z" fill="white"/>
<path d="M419.22 44.11C418.08 32.04 407.37 23.17 395.29 24.32C385.12 25.28 378.41 31.62 376.86 41.26C376.57 43.06 375.48 46.08 375.47 48.89C375.44 57.76 381.23 65.01 390.16 67.06" fill="white"/>
<path d="M419.22 44.11C418.08 32.04 407.37 23.17 395.29 24.32C385.12 25.28 378.41 31.62 376.86 41.26C376.57 43.06 375.48 46.08 375.47 48.89C375.44 57.76 381.23 65.01 390.16 67.06" stroke="#22571A" stroke-width="0.9" stroke-linecap="round" stroke-linejoin="round"/>
<path d="M378.32 35.03C378.32 35.03 382.9 33.93 387.24 27.98C387.24 27.98 390.5 26.59 388.62 24.06C386.74 21.53 378.91 24.24 378.32 35.03Z" fill="#596270"/>
<path d="M408.27 47.62C392.21 45.29 386.2 25.17 386.2 25.17C386.2 25.17 388.95 20.2 397.71 20.5C406.47 20.8 419.14 22.12 421.36 35.99C424.81 57.61 409.4 64.96 409.4 64.96C409.4 64.96 407.35 61.11 407.2 57.15C407.11 54.66 406.88 52.69 408.27 47.63V47.62Z" fill="#596270"/>
<path d="M407.47 48.33C407.47 48.33 413.78 43.1 415.02 49.28C415.69 52.63 413.42 57.77 406.06 56.98" fill="white"/>
<path d="M407.47 48.33C407.47 48.33 413.78 43.1 415.02 49.28C415.69 52.63 413.42 57.77 406.06 56.98" stroke="#22571A" stroke-width="0.9" stroke-linecap="round" stroke-linejoin="round"/>
<path d="M390.91 83.99C390.91 83.99 388.42 76.52 387.33 70.32L381.96 72.73C381.96 72.73 383.59 85.33 384.78 90.36C384.88 90.77 385.4 90.88 385.66 90.56L390.92 83.99H390.91Z" fill="white"/>
<path d="M402.63 159.87L396.89 162.37C396.89 162.37 395.17 161.15 388.85 161.18C382.53 161.21 382.78 166.24 382.78 166.24C382.78 166.24 369.92 167.76 366.59 171.41C363.26 175.06 369.82 176.32 380.58 174.61C380.58 174.61 377.46 177.24 380.91 180.94C380.38 181.44 379.78 185.8 383.19 186.44C383.19 186.44 381.69 191.29 389.28 190.12C396.4 189.02 401.11 186.02 403.19 183.7C403.48 183.38 403.86 183.17 404.27 183.05L411.07 181.16L402.62 159.89L402.63 159.87Z" fill="white"/>
<path d="M382.78 166.23C382.78 166.23 386.41 165.73 389.19 165.62Z" fill="white"/>
<path d="M402.63 159.87L396.89 162.37C396.89 162.37 395.17 161.15 388.85 161.18C382.53 161.21 382.78 166.24 382.78 166.24C382.78 166.24 369.92 167.76 366.59 171.41C363.26 175.06 369.82 176.32 380.58 174.61C380.58 174.61 377.46 177.24 380.91 180.94C380.38 181.44 379.78 185.8 383.19 186.44C383.19 186.44 381.69 191.29 389.28 190.12C396.4 189.02 401.11 186.02 403.19 183.7C403.48 183.38 403.86 183.17 404.27 183.05L411.07 181.16L402.62 159.89L402.63 159.87Z" stroke="#22571A" stroke-width="0.9" stroke-linecap="round" stroke-linejoin="round"/>
<path d="M382.78 166.23C382.78 166.23 386.41 165.73 389.19 165.62" stroke="#22571A" stroke-width="0.9" stroke-linecap="round" stroke-linejoin="round"/>
<path d="M417.75 77.65C417.75 77.65 427.93 76.11 435.73 91.57C443.53 107.03 450.67 140.38 451.29 149.47C451.9 158.39 430.43 177.54 408.51 185.82C407.84 186.07 407.11 185.68 406.93 184.99L398.26 159.8C398.1 159.33 398.26 158.81 398.67 158.52L420.68 142.88L412.89 104.84C412.41 102.03 412.67 99.15 413.66 96.48L417.76 77.66L417.75 77.65Z" fill="#FFEB66"/>
<path d="M245.8 50.71C245.8 50.71 246.55 72.07 247.63 81.6C247.63 81.6 281.41 85.41 288.87 87.47C288.87 87.47 291.19 62.04 296.11 56.49C296.11 56.49 274.47 46.55 245.8 50.71V50.71Z" fill="white" stroke="#22571A" stroke-width="0.9" stroke-linecap="round" stroke-linejoin="round"/>
<path d="M390.4 43.69C390.32 44.7 390.02 45.48 389.1 45.43C388.18 45.38 388.01 44.52 388.09 43.51C388.17 42.5 388.53 41.69 389.39 41.77C390.25 41.85 390.48 42.68 390.4 43.69Z" fill="#22571A"/>
<path d="M381.54 41.73C381.46 42.72 381.19 43.48 380.35 43.43C379.51 43.38 379.37 42.54 379.45 41.56C379.53 40.58 379.86 39.78 380.64 39.86C381.42 39.94 381.62 40.75 381.54 41.73Z" fill="#22571A"/>
<path d="M381.41 51.34C381.41 51.34 385.15 50.38 389.48 52.92C389.48 52.92 388.48 56.96 384.42 56.43C380.74 55.95 381.42 51.34 381.42 51.34H381.41Z" fill="#FFA7A7"/>
<path d="M381.41 51.34C381.41 51.34 385.15 50.38 389.48 52.92C389.48 52.92 388.48 56.96 384.42 56.43C380.74 55.95 381.42 51.34 381.42 51.34H381.41Z" stroke="#22571A" stroke-width="0.9" stroke-linecap="round" stroke-linejoin="round"/>
<path d="M267.28 78.27C273.156 78.27 277.92 73.5063 277.92 67.63C277.92 61.7537 273.156 56.99 267.28 56.99C261.404 56.99 256.64 61.7537 256.64 67.63C256.64 73.5063 261.404 78.27 267.28 78.27Z" stroke="#FFA7A7" stroke-width="2" stroke-miterlimit="10"/>
<path d="M260.66 59.3L273.9 75.97" stroke="#FFA7A7" stroke-width="2" stroke-miterlimit="10"/>
<path d="M267.28 67.63L266.08 78.17" stroke="#FFA7A7" stroke-width="2" stroke-miterlimit="10"/>
<path d="M386.2 25.17C386.2 25.17 392.21 45.29 408.27 47.62" stroke="#22571A" stroke-width="0.9" stroke-linecap="round" stroke-linejoin="round"/>
<path d="M409.2 64.91C409.2 64.91 407.37 61.07 407.2 57.15Z" fill="white"/>
<path d="M409.2 64.91C409.2 64.91 407.37 61.07 407.2 57.15" stroke="#22571A" stroke-width="0.9" stroke-linecap="round" stroke-linejoin="round"/>
<path d="M409.5 47.03C409.5 47.03 402.73 41.22 399.77 36.16" stroke="#22571A" stroke-width="0.9" stroke-linecap="round" stroke-linejoin="round"/>
<path d="M413.61 112.97L412.88 109.85" stroke="#22571A" stroke-width="0.9" stroke-linecap="round" stroke-linejoin="round"/>
<path d="M417.75 77.65C417.75 77.65 427.93 76.11 435.73 91.57C443.53 107.03 450.67 140.38 451.29 149.47C451.9 158.34 430.67 177.31 408.89 185.68C408.02 186.01 407.06 185.5 406.82 184.6L398.27 159.86C398.1 159.36 398.27 158.8 398.71 158.49L420.67 142.88L414.43 116.45" stroke="#22571A" stroke-width="0.9" stroke-linecap="round" stroke-linejoin="round"/>
<path d="M409.57 68.82L417.76 77.65C417.76 77.65 410.43 85.54 395.39 93.09C394.87 93.35 394.24 93.13 394.01 92.6C393.29 90.95 391.82 87.42 390.92 83.99C390.92 83.99 407.36 70.13 409.57 68.82Z" fill="white"/>
<path d="M388.25 87.32L390.91 83.99C390.91 83.99 388.42 76.52 387.33 70.32L381.96 72.73C381.96 72.73 382.05 73.41 382.2 74.51C382.25 74.87 382.3 75.27 382.36 75.7C382.92 79.74 383.95 86.87 384.78 90.36C384.88 90.77 385.4 90.88 385.66 90.56L387.04 88.83" stroke="#22571A" stroke-width="0.9" stroke-linecap="round" stroke-linejoin="round"/>
<path d="M413.48 81.51C409.83 84.51 403.82 88.85 395.38 93.08C394.86 93.34 394.23 93.12 394 92.59C393.28 90.94 391.81 87.41 390.91 83.98C390.91 83.98 407.35 70.12 409.56 68.81L417.75 77.64C417.75 77.64 416.94 78.51 415.3 79.96" stroke="#22571A" stroke-width="0.9" stroke-linecap="round" stroke-linejoin="round"/>
<path d="M276.3 86.34C276.3 86.34 275.93 88.94 282 90.68C288.22 92.46 292.21 88.58 287.82 85.73C282.66 82.38 276.99 81.51 276.29 86.33L276.3 86.34Z" fill="white" stroke="#22571A" stroke-width="0.9" stroke-linecap="round" stroke-linejoin="round"/>
<path d="M280.84 87.87C277.06 87.16 276.63 89.76 276.75 91.11C276.83 91.99 277.39 92.96 279.07 93.72C283.27 95.62 287.05 94.99 287.63 92.91C287.84 92.15 287.92 89.2 280.83 87.87H280.84Z" fill="white" stroke="#22571A" stroke-width="0.9" stroke-linecap="round" stroke-linejoin="round"/>
<path d="M378.28 35.21C378.28 35.21 382.9 33.93 387.23 27.98" stroke="#22571A" stroke-width="0.9" stroke-linecap="round" stroke-linejoin="round"/>
<path d="M313.59 91C313.59 91 307.94 75.95 301.4 72.32C294.86 68.69 286.28 66.27 285.52 70.36C284.76 74.45 296.55 77.94 296.55 77.94C296.55 77.94 295.2 88.06 302.48 93.46" fill="white"/>
<path d="M313.59 91C313.59 91 307.94 75.95 301.4 72.32C294.86 68.69 286.28 66.27 285.52 70.36C284.76 74.45 296.55 77.94 296.55 77.94C296.55 77.94 295.2 88.06 302.48 93.46" stroke="#22571A" stroke-width="0.9" stroke-linecap="round" stroke-linejoin="round"/>
<path d="M420.67 142.88L425.86 138.66" stroke="#22571A" stroke-width="0.9" stroke-linecap="round" stroke-linejoin="round"/>
<path d="M424.08 86.2C424.08 86.2 416.81 91.44 412.6 101" stroke="#22571A" stroke-width="0.9" stroke-linecap="round" stroke-linejoin="round"/>
<path d="M340.08 158.89C347.38 144.85 355.23 128.45 359.2 106.9" stroke="#22571A" stroke-width="0.9" stroke-linecap="round" stroke-linejoin="round"/>
<path d="M329.66 99.68C329.66 99.68 335.62 103.96 337.39 105.67" stroke="#22571A" stroke-width="0.9" stroke-linecap="round" stroke-linejoin="round"/>
<path d="M381.96 72.73C381.96 72.73 373.66 68.52 363.37 74.49C353.08 80.45 329.66 99.69 329.66 99.69L315.24 89.4C315.24 89.4 317.76 100.87 301.1 109.28C301.1 109.28 323.29 145.1 339.12 142.7" fill="#FFEB66"/>
<path d="M381.96 72.73C381.96 72.73 373.66 68.52 363.37 74.49C353.08 80.45 329.66 99.69 329.66 99.69L315.24 89.4C315.24 89.4 317.76 100.87 301.1 109.28C301.1 109.28 323.29 145.1 339.12 142.7" stroke="#22571A" stroke-linecap="round" stroke-linejoin="round"/>
<path d="M407.9 51.19C407.9 51.19 409.53 49.06 411.9 49.96" stroke="#22571A" stroke-width="0.9" stroke-linecap="round" stroke-linejoin="round"/>
<path d="M368.65 171.37H88.4199C88.4199 138.23 115.28 111.37 148.42 111.37H428.58V111.44C428.58 144.54 401.75 171.37 368.65 171.37Z" fill="#3D665E"/>
<path d="M148.96 143.91C148.8 147.31 148.37 151.17 147.83 153.06C147.07 155.46 143.97 156 140.14 153.17L140.63 151.87C143.9 152.71 144.52 152.63 144.87 151.09C145.14 149.9 145.33 148.04 145.52 145.56H132.29C130.48 148.12 128.3 150.26 125.7 151.71L124.86 150.47C128.94 147.1 131.53 142.16 133.12 136.76H126.42V135.09H130.06C129.3 133.5 128.55 132.04 127.69 130.64L128.82 129.78C130.36 130.72 131.93 132.24 133.06 133.59L130.9 135.1H133.57C134.03 133.32 134.38 131.48 134.65 129.65L138.29 130.24C138.02 131.86 137.64 133.51 137.18 135.1H143.68C143.44 136.61 143.17 138.07 142.79 139.58H146.43C146.21 141.09 145.97 142.52 145.67 143.93H148.94L148.96 143.91ZM131.15 147.31L132.55 147.71C132.31 150.14 131.58 152.92 130.66 154.62L127.64 152.73C129.07 151.22 130.18 149.52 131.15 147.3V147.31ZM133.39 143.91H142.46C142.65 142.94 142.78 142.1 142.92 141.18H134.85C134.42 142.12 133.91 143.04 133.39 143.91ZM135.31 147.34C136.01 149.07 136.69 151.71 136.93 153.44L133.8 153.76C133.91 151.98 133.96 149.44 133.91 147.52L135.31 147.33V147.34ZM136.66 136.76C136.34 137.7 135.99 138.65 135.61 139.57H139.58C139.77 138.57 139.9 137.71 140.07 136.76H136.67H136.66ZM141.33 151.42L138.55 152.45C138.23 150.72 137.74 148.86 137.23 147.21L138.53 146.62C139.58 147.97 140.72 149.89 141.34 151.42H141.33ZM142.54 150.96C141.97 149.29 141.33 147.69 140.65 146.43L141.76 145.62C142.92 146.51 144.35 148.27 145.11 149.59L142.55 150.97L142.54 150.96Z" fill="#E2F7A6"/>
<path d="M161.22 136.38V155.17H157.98V141.73C157.2 142.73 156.39 143.62 155.52 144.38L154.6 143.44C157.03 139.85 159.03 134.48 159.84 129.62L163.35 130.51C162.81 132.59 162.08 134.59 161.22 136.39V136.38ZM167.86 141.94C167.05 145.23 165.21 149.09 162.62 151.85L161.51 150.96C162.99 148.04 164.07 144.86 164.61 141.05L167.85 141.94H167.86ZM172.18 136.14V151.9C172.18 155.19 169.16 156.11 164.32 153.52L164.64 152.17C168.5 152.79 168.74 152.41 168.74 150.85V136.14H166.31C165.36 138.14 164.15 140 162.72 141.62L161.56 140.78C163.13 137.81 164.29 134.06 164.8 129.93L168.28 130.66C167.98 131.96 167.55 133.25 167.04 134.55H175.08L176.11 133.82L179.32 135.6C178.27 137.38 176.43 139.43 174.97 140.46L173.92 139.62C174.46 138.54 174.97 137.22 175.24 136.14H172.16H172.18ZM179.39 150.04L176.07 151.47C175.26 148.18 173.99 144.29 173.02 141.7L174.21 141.05C176.23 143.53 178.21 147.04 179.39 150.04Z" fill="#E2F7A6"/>
<path d="M188.28 146.39L189.63 146.85C189.36 149.39 188.42 152.3 187.09 154.03L184.34 151.71C186.23 150.2 187.44 148.42 188.28 146.39V146.39ZM189.63 145.01V139.58C188.58 141.33 187.17 142.93 185.42 144.3L184.5 143.27C186.09 141.49 187.74 138.9 188.98 135.42H185.39V133.8H189.63V130.18H192.87V133.8H196.08V135.42H192.87V136.55C194.27 137.36 195.57 138.3 196.54 139.22V131.2H207.04V144.24H196.54V139.54L194.65 141.46C194.03 140.52 193.46 139.62 192.87 138.79V145H189.63V145.01ZM203.05 148.22C204.51 152.51 203.46 154.13 200.94 154.29C198.54 154.48 196.54 154.48 194 154.32C191.54 154.16 190.33 153.62 190.33 151.35V145.9H193.62V149.92C193.62 150.92 193.75 151.24 195.35 151.38C196.97 151.52 198.45 151.49 200.21 151.35C201.51 151.24 201.64 150.65 201.64 148.22H203.04H203.05ZM195.6 144.93C197.19 145.6 199.24 146.9 200.62 148.09L198.41 150.41C197.28 148.87 195.98 147.31 194.79 146.06L195.6 144.93ZM199.65 135.02H203.92V132.81H199.65V135.02ZM199.65 138.75H203.92V136.54H199.65V138.75ZM199.65 142.66H203.92V140.26H199.65V142.66ZM209.15 151.62L206.15 153.29C205.5 151.13 204.58 148.94 203.48 146.87L204.61 146.03C206.47 147.57 208.2 149.97 209.15 151.62Z" fill="#E2F7A6"/>
<path d="M233.14 146.2C232.6 147.66 231.93 148.87 231.12 149.93C233.52 150.52 235.71 151.28 237.38 152.09L235.57 155.3C233.49 154.06 231.28 153.01 228.88 152.09C225.69 154.38 221.1 155.11 214.9 155.17L214.68 153.71C219.48 153.39 223.07 152.58 225.61 150.93C224.56 150.58 223.45 150.23 222.32 149.9C221.78 150.6 221.29 151.22 220.89 151.71L218.24 150.31C219.08 149.23 220.1 147.75 221.1 146.21H214.95V144.51H222.18C222.64 143.73 223.07 142.97 223.45 142.24H216.86V135.33H222.12V133.17H215.4V131.44H237.45V133.17H230.7V135.33H235.99V142.24H224.98L226.9 142.86C226.63 143.37 226.31 143.91 225.95 144.51H237.88V146.21H233.13L233.14 146.2ZM222.29 136.97H220V140.59H222.29V136.97ZM229.5 146.2H224.91C224.4 146.98 223.86 147.74 223.34 148.49C224.74 148.65 226.23 148.87 227.69 149.14C228.42 148.3 229.04 147.33 229.5 146.2ZM225.29 135.32H227.56V133.16H225.29V135.32ZM225.29 140.58H227.56V136.96H225.29V140.58ZM230.55 140.58H232.9V136.96H230.55V140.58Z" fill="#E2F7A6"/>
<path d="M267.49 135C267.46 142.56 267.36 147.52 267 151.36C266.62 155.52 262.92 156.16 257.82 153.03L258.22 151.71C263.02 152.68 263.51 152.36 263.7 150.28C263.97 147.04 264.1 142.97 264.1 136.68H259.51C258.62 138.84 257.4 141.05 255.87 142.83L254.95 142.13V154.14H251.71V151.85H248.44V154.63H245.17V135.01H248.25C248.52 133.31 248.76 131.26 248.87 129.72L252.7 130.39C252.05 131.96 251.11 133.68 250.19 135.01H254.94V141.51C256.45 138.11 257.34 133.17 257.72 129.77L261.42 130.39C261.2 131.6 260.77 133.25 260.15 135.01H267.47L267.49 135ZM251.73 136.67H248.46V142.12H251.73V136.67ZM251.73 150.17V143.77H248.46V150.17H251.73ZM260.31 147.66C259.56 145.34 258.45 142.72 257.5 140.8L258.69 139.91C260.44 141.48 262.41 143.93 263.44 145.93L260.31 147.66Z" fill="#E2F7A6"/>
<path d="M290.28 148.12V146.23H286.99V148.58H283.62V138.62H280.33V151.17H297.47V152.98H280.33V155.06H276.82V138.62H273.72V136.76H276.82V131.58H280.33V136.76H283.62V130.17H286.99V136.76H290.28V130.34H293.68V136.76H297.81V138.62H293.68V148.12H290.28V148.12ZM290.28 144.53V138.62H286.99V144.53H290.28Z" fill="#E2F7A6"/>
<path d="M326.4 148.71C324.48 148.14 322.49 147.14 320.78 145.74V155.21H317.43V144.52H319.45C318.56 143.58 317.78 142.47 317.21 141.25H314.67C314.02 142.49 313.08 143.6 311.94 144.54H313.56C313.56 150.53 311.51 154.23 304.33 155.39L303.92 154.04C308.67 152.45 309.97 149.99 310.21 145.78C308.21 147.05 305.89 147.91 303.62 148.37L303.16 147.02C307.07 145.54 309.45 143.51 310.75 141.24H306.32V131.2H324.51V141.24H319C321.54 143.64 324.45 144.48 327.77 145.15L326.37 148.69L326.4 148.71ZM309.66 135.38H313.76V132.87H309.66V135.38ZM309.66 139.64H313.76V136.99H309.66V139.64ZM317.06 135.38H321.22V132.87H317.06V135.38ZM317.06 139.64H321.22V136.99H317.06V139.64Z" fill="#E2F7A6"/>
<path d="M339.74 144.56V152.2C339.74 154.79 337.28 156.11 333.18 153.74L333.48 152.39C335.96 152.79 336.42 152.61 336.42 151.36V146.53C335.58 146.96 334.8 147.34 334.1 147.64L332.91 144.48C333.96 144.24 335.2 143.91 336.42 143.56V137.38H333.21V135.76H336.42V130.12H339.74V135.76H342.44V137.38H339.74V142.45C340.31 142.26 340.82 142.05 341.28 141.86L341.9 142.97C341.28 143.48 340.55 144.02 339.74 144.56ZM351.32 149.74C353.07 150.5 355.1 151.01 357.34 151.47L355.86 154.95C353.27 154.33 350.92 153.3 349 151.76C346.71 153.43 343.82 154.62 340.34 155.13L339.96 153.78C342.98 152.86 345.36 151.59 347.14 150.03C345.6 148.3 344.47 146.12 343.85 143.44H342.2V141.79H351.16L352.11 141.17L355.32 142.55C354.51 145.25 353.19 147.71 351.33 149.73L351.32 149.74ZM343.73 131.28H352.99V136.38C352.99 137.35 353.23 137.57 354.34 137.59C355.23 137.62 355.61 137.43 356.17 137.02L357.47 139.26C356.63 139.99 355.93 140.34 354.31 140.34C350.56 140.34 349.88 139.77 349.88 137.18V132.92H346.99C347.02 137.32 345.67 140.18 341.75 141.5L341.05 140.26C343.51 138.51 343.75 136.86 343.72 131.27L343.73 131.28ZM345.32 143.45C346.18 145.64 347.37 147.17 348.86 148.31C350.07 146.83 350.91 145.18 351.42 143.45H345.32Z" fill="#E2F7A6"/>
<path d="M371.71 148.96C369.33 151.28 365.75 153.28 363.37 154.03L362.69 152.79C365.01 151.31 367.17 149.33 368.87 146.99L371.7 148.96H371.71ZM377.03 146.77V151.68C377.03 155.3 373.84 155.81 369.42 153.52L369.8 152.2C373.01 152.71 373.47 152.52 373.47 151.09V146.77H363.4V145.1H386.53V146.77H377.03ZM370.28 132.73H363.77V131.06H385.9V132.73H379.34V134.67H384.82V140.42H364.95V134.67H370.27V132.73H370.28ZM366.53 143.5V141.91H383.45V143.5H366.53ZM370.52 136.27H368.2V138.81H370.52V136.27ZM373.62 134.73H376.02V132.73H373.62V134.73ZM373.62 138.81H376.02V136.27H373.62V138.81ZM386.66 151.33L384.34 154.11C382.67 152.27 380.59 150.25 378.38 148.47L379.08 147.23C381.7 148.2 384.51 149.66 386.67 151.33H386.66ZM379.1 138.81H381.56V136.27H379.1V138.81Z" fill="#E2F7A6"/>
<path d="M145.32 236.75C143.07 237.45 140.66 238.14 138.86 238.66L138.45 237.06C139.21 236.88 140.14 236.63 141.17 236.36V232.34H138.99V230.79H141.17V227.28H138.81V225.73H145.02V227.28H142.79V230.79H144.88V232.34H142.79V235.9L145.09 235.27L145.32 236.75ZM153.42 239.83C153.78 239.83 153.85 239.56 153.91 237.72C154.25 237.99 154.92 238.26 155.33 238.37C155.2 240.67 154.79 241.27 153.58 241.27H152.12C150.68 241.27 150.32 240.82 150.32 239.31V235.44H148.88C148.56 238.37 147.66 240.41 143.98 241.54C143.8 241.09 143.35 240.42 142.99 240.1C146.27 239.25 146.95 237.72 147.22 235.44H145.73V225.56H154.3V235.44H151.94V239.29C151.94 239.76 151.99 239.83 152.37 239.83H153.41H153.42ZM147.32 228.43H152.65V226.95H147.32V228.43ZM147.32 231.24H152.65V229.73H147.32V231.24ZM147.32 234.03H152.65V232.53H147.32V234.03Z" fill="#3D665E"/>
<path d="M176.37 227.42V229.02H166.68C166.07 230.3 165.37 231.52 164.54 232.64V241.28H162.87V234.58C162.29 235.14 161.66 235.68 161 236.15C160.82 235.7 160.44 234.98 160.17 234.58C162.15 233.23 163.68 231.21 164.8 229.02H160.66V227.42H165.52C165.9 226.54 166.17 225.66 166.4 224.77L168.15 225.2C167.92 225.94 167.66 226.68 167.38 227.41H176.38L176.37 227.42ZM171.83 239.32H176.35V240.89H165.6V239.32H170.14V234.67H166.29V233.12H170.14V229.88H171.83V233.12H175.66V234.67H171.83V239.32Z" fill="#3D665E"/>
<path d="M184.9 235.2C184.49 236.87 183.84 238.6 183.1 239.72C182.83 239.5 182.25 239.11 181.91 238.93C182.65 237.9 183.19 236.39 183.49 234.9L184.89 235.21L184.9 235.2ZM190.23 228.39H182.09V226.91H185.69C185.51 226.33 185.24 225.63 184.99 225.09L186.52 224.75C186.84 225.42 187.22 226.28 187.42 226.91H190.23V228.39V228.39ZM187.1 234.13V239.64C187.1 240.32 186.99 240.74 186.52 240.95C186.03 241.18 185.4 241.2 184.47 241.2C184.42 240.8 184.2 240.19 184 239.81C184.59 239.83 185.17 239.83 185.35 239.83C185.55 239.83 185.6 239.78 185.6 239.6V234.13H182.97V229.61H189.54V234.13H187.09H187.1ZM184.44 232.82H188.02V230.93H184.44V232.82ZM188.82 234.69C189.4 235.66 189.95 236.98 190.17 237.84L188.89 238.42C188.71 237.54 188.19 236.22 187.63 235.23L188.82 234.69V234.69ZM196.56 239.66C196.74 239.66 196.9 239.64 196.99 239.57C197.1 239.53 197.17 239.37 197.22 239.08C197.27 238.76 197.29 238.04 197.29 237.12C197.6 237.41 198.15 237.68 198.6 237.82C198.56 238.65 198.49 239.58 198.38 239.96C198.24 240.34 198.04 240.59 197.75 240.73C197.48 240.87 197.03 240.93 196.71 240.93H195.58C195.18 240.93 194.72 240.82 194.41 240.57C194.12 240.32 194 239.99 194 238.81V232.69C193.51 236.04 192.47 239.19 190.17 241.33C189.9 241.01 189.4 240.56 188.96 240.3C191.48 238.07 192.36 234.54 192.67 230.88H190.46V229.37H192.76C192.85 227.82 192.85 226.27 192.85 224.82H194.43C194.41 226.28 194.39 227.83 194.3 229.37H198.26V230.88H194.21C194.17 231.28 194.12 231.67 194.08 232.07H195.45V238.93C195.45 239.27 195.47 239.49 195.56 239.56C195.65 239.61 195.78 239.65 195.92 239.65H196.55L196.56 239.66ZM196.67 228.93C196.35 228.17 195.57 227.02 194.87 226.18L195.97 225.55C196.69 226.34 197.5 227.44 197.84 228.18L196.67 228.94V228.93Z" fill="#3D665E"/>
<path d="M205.4 230.64C205 231.13 204.61 231.56 204.21 231.94C204.01 231.49 203.62 230.84 203.27 230.46C204.76 229.16 206.38 226.93 207.25 224.64L208.51 225.41C208.38 225.72 208.24 226.02 208.1 226.31C209.25 227.46 210.53 228.81 211.13 229.71L210.28 231.04C209.69 230.1 208.53 228.79 207.44 227.64C206.92 228.58 206.32 229.48 205.73 230.25H209.56V231.67H205.4V230.63V230.64ZM210.95 233.74C210.3 235.49 209.19 237.39 208.18 238.71C208.68 239.21 209.1 239.68 209.44 240.12L208.32 241.16C207.55 240.08 205.94 238.46 204.66 237.4L205.69 236.48C206.12 236.8 206.59 237.22 207.08 237.65C207.76 236.8 208.5 235.63 209.01 234.57H204.11V233.18H209.69L209.94 233.09L210.95 233.74V233.74ZM214.89 238.93C213.99 239.85 212.48 240.84 211.23 241.36C210.96 241.05 210.49 240.53 210.13 240.26C211.39 239.74 212.81 238.8 213.5 238.05L214.89 238.93ZM214.28 228.49C214.37 228.02 214.48 227.48 214.53 227.01H211.02V225.59H219.79V227.01H216.35C216.19 227.51 216.04 228.04 215.88 228.49H219.3V237.87H211.65V228.49H214.28ZM217.74 229.77H213.15V231.23H217.74V229.77ZM217.74 232.42H213.15V233.91H217.74V232.42ZM217.74 235.1H213.15V236.61H217.74V235.1ZM217.25 238.16C218.2 238.79 219.48 239.74 220.15 240.41L218.84 241.36C218.26 240.71 217 239.69 216.01 238.98L217.25 238.15V238.16Z" fill="#3D665E"/>
<path d="M237.01 232.32C238.22 233.49 239.94 234.43 241.82 234.89C241.44 235.21 240.97 235.84 240.74 236.26C239.86 235.99 239.01 235.61 238.22 235.14C238 238.56 237.77 239.98 237.25 240.52C236.91 240.9 236.51 241.04 235.97 241.1C235.45 241.15 234.55 241.15 233.59 241.12C233.55 240.63 233.39 239.95 233.1 239.54C233.98 239.63 234.83 239.65 235.17 239.63C235.48 239.65 235.66 239.59 235.82 239.45C236.11 239.14 236.31 238.14 236.49 235.78H232.53C232.03 238.39 230.82 240.24 227.02 241.29C226.86 240.86 226.41 240.19 226.08 239.87C229.36 239.1 230.35 237.73 230.76 235.78H228.19V235.08C227.52 235.51 226.79 235.93 225.98 236.29C225.8 235.88 225.31 235.23 224.94 234.9C226.58 234.22 227.93 233.33 229.01 232.33H225.46V230.83H230.38C230.76 230.33 231.08 229.82 231.37 229.28H226.54V227.8H229.33C229.02 227.19 228.5 226.38 228.03 225.75L229.34 225.12C229.92 225.79 230.58 226.7 230.83 227.33L229.93 227.8H232.04C232.44 226.79 232.67 225.75 232.81 224.72L234.57 224.9C234.41 225.87 234.17 226.84 233.85 227.8H235.74C236.28 227.04 236.93 225.96 237.29 225.19L238.84 225.68C238.39 226.44 237.85 227.19 237.38 227.8H239.99V229.28H233.24C232.99 229.82 232.7 230.32 232.41 230.83H241.2V232.33H237L237.01 232.32ZM236.94 234.26C236.22 233.7 235.59 233.04 235.07 232.32H231.32C230.74 233 230.06 233.67 229.32 234.26H236.94Z" fill="#3D665E"/>
<path d="M250.08 227.8H253.66V229.13H246.78V227.8H250.04C249.77 227.13 249.23 226.11 248.74 225.37L250.05 224.7C250.54 225.46 251.13 226.41 251.38 227.06L250.07 227.8H250.08ZM247.56 230.19H253.16V231.5H247.56V230.19ZM247.56 232.57H253.14V233.87H247.56V232.57ZM253.09 240.28H249.02V241.09H247.58V235H253.09V240.28ZM249.02 236.36V238.93H251.63V236.36H249.02ZM263.17 227.88H260.61V239.01C260.61 240.04 260.36 240.58 259.64 240.83C258.92 241.12 257.75 241.14 256.02 241.14C255.93 240.67 255.64 239.88 255.35 239.41C256.66 239.48 258.02 239.46 258.41 239.46C258.77 239.44 258.9 239.34 258.9 238.99V227.88H254.04V226.24H263.17V227.88V227.88Z" fill="#3D665E"/>
<path d="M283.72 236.69C282.8 237.32 281.69 237.95 280.68 238.4C281.81 239.05 283.18 239.52 284.77 239.77C284.43 240.08 284.05 240.69 283.83 241.1C280.23 240.4 277.87 238.7 276.52 235.93C275.71 236.54 274.72 237.12 273.62 237.6V239.47L277.38 238.68C277.33 239.06 277.29 239.64 277.31 239.92C272.79 240.98 272.21 241.14 271.85 241.38V241.25C271.74 240.89 271.49 240.39 271.31 240.15C271.62 239.95 272.08 239.56 272.08 238.69V238.19C271.11 238.55 270.1 238.82 269.13 239C268.93 238.66 268.54 238.08 268.23 237.79C270.39 237.45 272.73 236.73 274.39 235.81H268.54V234.48H275.96C275.82 234.12 275.64 233.76 275.46 233.44L275.8 233.35C275.51 233.37 275.21 233.37 274.83 233.37C274.76 233.03 274.56 232.63 274.4 232.34C274.92 232.36 275.35 232.36 275.5 232.36C275.66 232.34 275.7 232.31 275.7 232.16V231.1H273.83V233.91H272.39V231.1H270.63V233.46H269.32V230.02H272.4V229.23H268.49V228.06H269.68C269.39 227.86 268.91 227.61 268.64 227.5C269.25 226.78 269.76 225.79 270.06 224.82L271.34 225.14C271.23 225.43 271.12 225.72 271.02 226H272.41V224.78H273.85V226H276.91V227.13H273.85V228.05H277.47V229.22H273.85V230.01H277.09V232.13C277.09 232.63 277.02 232.89 276.75 233.08L277.06 232.99C277.33 233.44 277.62 233.98 277.82 234.47H284.52V235.8H278.07C278.48 236.47 278.99 237.08 279.6 237.58C280.63 237.08 281.8 236.34 282.55 235.8L283.76 236.67L283.72 236.69ZM272.38 228.07V227.15H270.42C270.22 227.49 270.01 227.8 269.83 228.07H272.39H272.38ZM280.19 231.58H278.68V225.69H280.19V231.58ZM283.61 232.23C283.61 233.02 283.45 233.4 282.89 233.6C282.35 233.83 281.5 233.85 280.24 233.85C280.17 233.45 279.93 232.88 279.74 232.5C280.64 232.54 281.5 232.54 281.76 232.52C282.03 232.52 282.1 232.45 282.1 232.21V224.95H283.61V232.22V232.23Z" fill="#3D665E"/>
<path d="M292.07 224.63H297.87V226.18H293.75V236.21H292.08V224.63H292.07Z" fill="#3D665E"/>
<path d="M309.05 229.99C309.01 231.93 308.74 234.29 307.7 236.54C308.58 237.33 309.37 238.11 309.9 238.72L308.78 240.12C308.31 239.53 307.63 238.81 306.85 238.07C306.06 239.24 305.01 240.36 303.63 241.36C303.38 241 302.82 240.44 302.44 240.17C303.86 239.2 304.89 238.08 305.63 236.93C304.68 236.07 303.69 235.24 302.82 234.52C303.16 233.4 303.5 231.89 303.81 230.32L302.57 230.39L302.39 228.79L304.1 228.72C304.3 227.37 304.48 226.02 304.59 224.81L306.23 224.9C306.1 226.07 305.92 227.35 305.73 228.64L307.53 228.55V227.31H309.08V228.46L310.09 228.41L310.07 229.9L309.06 229.97L309.05 229.99ZM305.43 230.22C305.18 231.57 304.89 232.87 304.62 233.98C305.2 234.43 305.81 234.93 306.4 235.44C307.23 233.57 307.44 231.69 307.5 230.07L305.43 230.21V230.22ZM318.97 233.86H315.17V239.42C315.17 240.34 314.97 240.79 314.32 241.04C313.69 241.29 312.77 241.33 311.37 241.33C311.28 240.86 311.03 240.18 310.79 239.73C311.78 239.77 312.79 239.77 313.06 239.75C313.35 239.75 313.46 239.68 313.46 239.41V233.86H309.48V232.26H313.46V230.35C314.31 229.61 315.19 228.53 315.86 227.54H310.24V226.01H317.01L317.39 225.92L318.54 226.73C317.68 228.04 316.45 229.57 315.17 230.69V232.26H318.97V233.86V233.86Z" fill="#3D665E"/>
<path d="M339.38 229.65C338.93 232.51 338.25 234.87 337.15 236.78C338.07 238.13 339.26 239.19 340.71 239.88C340.33 240.22 339.81 240.85 339.58 241.3C338.18 240.56 337.06 239.54 336.14 238.27C335.13 239.51 333.85 240.52 332.27 241.35C332.11 240.97 331.62 240.22 331.3 239.87C332.97 239.1 334.25 238.07 335.21 236.74C334.49 235.41 333.95 233.88 333.54 232.2C333.23 232.72 332.93 233.19 332.6 233.64C332.4 233.39 331.95 233.01 331.59 232.72H329.59V236.86L332.42 236.27L332.58 237.78C329.63 238.48 326.48 239.22 324.23 239.71L323.92 238.04L324.93 237.84V230.03H326.44V237.56L327.95 237.24V227.59H324.28V225.97H332.45V227.59H329.59V231.16H331.84V231.72C333.01 229.94 333.77 227.42 334.23 224.79L335.89 225.08C335.69 226.12 335.44 227.13 335.17 228.1H340.57V229.67H339.38V229.65ZM334.54 229.94C334.92 231.83 335.44 233.58 336.2 235.11C336.94 233.58 337.39 231.78 337.71 229.65H334.65L334.54 229.94V229.94Z" fill="#3D665E"/>
<path d="M359.67 239.61C360.37 239.61 360.48 239.32 360.55 237.14C360.93 237.43 361.65 237.7 362.12 237.81C361.94 240.53 361.45 241.19 359.82 241.19H357.26C355.39 241.19 354.9 240.7 354.9 239.01V235.7H352.32C351.92 238.6 350.83 240.43 346.56 241.42C346.4 240.97 345.97 240.23 345.59 239.89C349.34 239.17 350.2 237.85 350.52 235.69H348.2V225.37H359.65V235.69H356.59V238.98C356.59 239.52 356.72 239.59 357.45 239.59H359.66L359.67 239.61ZM349.84 228.39H357.96V226.88H349.84V228.39ZM349.84 231.31H357.96V229.76H349.84V231.31ZM349.84 234.23H357.96V232.68H349.84V234.23Z" fill="#3D665E"/>
<path d="M372.53 241.48H366.73V239.93H370.85V229.9H372.52V241.48H372.53Z" fill="#3D665E"/>
<path d="M109.98 263.66C109.78 265.1 109.44 266.77 109.17 267.85C108.86 267.71 108.25 267.56 107.89 267.49C108.23 266.39 108.52 264.79 108.68 263.37L109.98 263.66ZM113.37 262.63C113.32 262.38 113.24 262.11 113.15 261.8C109.51 262.36 108.92 262.52 108.58 262.7C108.49 262.38 108.26 261.66 108.06 261.26C108.47 261.15 108.87 260.72 109.41 260.04C109.66 259.75 110.17 259.09 110.74 258.24C109.1 258.42 108.7 258.53 108.45 258.64C108.36 258.32 108.11 257.6 107.93 257.2C108.24 257.11 108.54 256.75 108.88 256.23C109.24 255.71 110.37 253.71 111 251.82L112.51 252.41C111.83 253.98 110.93 255.63 110.01 256.96L111.63 256.82C112.12 256.03 112.6 255.18 112.98 254.32L114.33 255.13C113.23 257.16 111.85 259.23 110.42 260.89L112.76 260.57C112.58 260.03 112.38 259.49 112.2 259L113.32 258.68C113.75 259.8 114.31 261.29 114.54 262.17L113.35 262.64L113.37 262.63ZM111.68 263.28C111.91 264.49 112.13 266.02 112.18 267.04L110.92 267.36C110.9 266.32 110.7 264.75 110.49 263.54L111.68 263.27V263.28ZM113.44 262.81C113.86 263.91 114.3 265.29 114.48 266.21L113.31 266.62C113.13 265.68 112.7 264.24 112.32 263.14L113.44 262.8V262.81ZM123.81 266.84C122.98 266.12 121.47 265.06 120.08 264.12V266.66C120.08 267.42 119.95 267.83 119.45 268.05C118.96 268.28 118.24 268.32 117.24 268.32C117.2 267.91 116.99 267.28 116.77 266.88C117.44 266.9 118.08 266.9 118.27 266.9C118.49 266.88 118.54 266.83 118.54 266.65V264.27C117.37 265.15 116.2 266.02 115.23 266.72L114.33 265.44C115.39 264.79 116.98 263.77 118.54 262.7V259.87H114.29V258.41H120.41C120.5 258.05 120.55 257.69 120.64 257.29H115.31C115.76 255.85 116.35 253.53 116.73 251.76L118.28 251.94C118.19 252.37 118.1 252.84 117.97 253.31H121.53L121.8 253.24L122.95 253.4C122.72 254.91 122.32 256.8 121.96 258.41H124.55V259.87H120.07V262.52L120.66 262.9C121.31 262.14 122.06 261.12 122.5 260.33L123.87 261.12C123.17 261.98 122.38 262.9 121.73 263.57C122.86 264.31 124 265.07 124.68 265.62L123.8 266.84H123.81ZM116.82 263.38C116.37 262.82 115.45 261.9 114.73 261.26L115.65 260.38C116.37 261.01 117.31 261.86 117.77 262.4L116.82 263.39V263.38ZM120.91 256C121.02 255.51 121.11 255.03 121.18 254.61H117.65C117.52 255.08 117.4 255.56 117.27 256H120.91Z" fill="#3D665E"/>
<path d="M142.37 266.48C144.1 266.48 144.39 266.01 144.6 263.72C145.01 263.99 145.73 264.22 146.18 264.31C145.84 267.17 145.23 268 142.4 268H135.85C132.81 268 131.87 267.44 131.87 265.16V258.01C131.42 258.39 130.97 258.73 130.52 259.04C130.36 258.68 129.89 257.83 129.62 257.46C131.76 256.16 133.92 254.04 135.15 251.72L136.68 252.28C136.5 252.62 136.28 252.95 136.07 253.29H140.53L140.87 253.2L141.97 253.98C141.34 254.9 140.55 255.89 139.72 256.75H144.4V263.29H142.74V262.59H133.49V265.18C133.49 266.26 133.83 266.49 135.79 266.49H142.36L142.37 266.48ZM135.01 254.78C134.49 255.46 133.91 256.13 133.28 256.74H137.71C138.3 256.18 138.92 255.46 139.4 254.78H135.01V254.78ZM133.5 260.97H137.28V258.29H133.5V260.97ZM142.75 258.29H138.92V260.97H142.75V258.29Z" fill="#3D665E"/>
<path d="M156.48 257.08H159.38V258.63H156.48V259.05C157.18 259.75 158.96 261.8 159.38 262.34L158.37 263.71C158.01 263.06 157.18 261.91 156.48 260.96V268.29H154.81V261.05C154 262.96 152.97 264.79 151.91 265.93C151.73 265.46 151.33 264.81 151.03 264.38C152.34 263.07 153.64 260.76 154.4 258.64H151.46V257.09H154.81V254.41C153.87 254.57 152.92 254.68 152.04 254.79C151.97 254.43 151.75 253.87 151.57 253.49C153.93 253.17 156.65 252.61 158.25 251.98L159.37 253.28C158.52 253.6 157.53 253.87 156.49 254.07V257.09L156.48 257.08ZM166.8 253.46V267.36H165.09V266.03H161.58V267.49H159.96V253.46H166.8V253.46ZM165.09 264.43V255.07H161.58V264.43H165.09Z" fill="#3D665E"/>
<path d="M189.17 262.2H181.95V268.32H180.22V262.2H173.09V260.51H180.22V254.6H174.03V252.96H188.15V254.6H181.96V260.51H189.18V262.2H189.17ZM176.71 255.34C177.38 256.58 178.06 258.19 178.29 259.23L176.69 259.77C176.46 258.74 175.84 257.07 175.2 255.81L176.71 255.34ZM183.68 259.32C184.29 258.24 185.05 256.53 185.44 255.27L187.22 255.76C186.57 257.17 185.78 258.79 185.11 259.79L183.67 259.32H183.68Z" fill="#3D665E"/>
<path d="M198.49 251.81H200.04V268.32H198.49V262.14H196.83V262.39C196.83 263.9 196.65 266.55 195.52 268.35C195.23 268.1 194.64 267.72 194.28 267.54C195.23 265.96 195.38 263.69 195.38 262.34V262.14H194.44V260.68H198.49V258.34H195.2V252.51H196.66V256.89H198.5V251.81H198.49ZM210.9 262.41H208.7V266.25C208.7 267.11 208.54 267.6 207.94 267.85C207.35 268.1 206.45 268.14 205.04 268.14C204.99 267.67 204.79 266.99 204.55 266.52C205.54 266.56 206.48 266.56 206.73 266.56C207.02 266.54 207.11 266.49 207.11 266.24V262.42H200.59V260.94H201.38C201.2 260.56 200.82 260.04 200.55 259.73C202.39 259.3 204.21 258.51 205.7 257.39C205.21 256.69 204.42 255.84 203.65 255.16C202.88 255.7 202.03 256.17 201.2 256.55C200.98 256.26 200.48 255.78 200.17 255.52C202.24 254.69 204.19 253.2 205.19 251.79L206.81 252.22C206.56 252.58 206.23 252.92 205.91 253.26H209.08L209.35 253.21L210.38 253.71C208.85 257.6 205.3 259.81 201.52 260.93H207.1V258.57H208.68V260.93H210.88V262.41H210.9ZM204.35 257.75C203.11 257.97 201.92 258.15 200.86 258.33L200.59 257.12C201.58 257.01 202.86 256.81 204.26 256.62L204.35 257.75V257.75ZM203.05 262.63C203.91 263.48 204.9 264.66 205.32 265.47L203.95 266.32C203.55 265.51 202.6 264.27 201.75 263.38L203.05 262.62V262.63ZM204.74 254.46C205.5 255.09 206.25 255.85 206.74 256.51C207.41 255.9 207.95 255.21 208.34 254.46H204.74V254.46Z" fill="#3D665E"/>
<path d="M222.7 252.85C221.42 255.79 219.39 258.74 217.41 260.56C217.12 260.22 216.37 259.52 215.93 259.17C217.89 257.55 219.76 254.92 220.86 252.27L222.7 252.85V252.85ZM227.76 261.26C229.2 263.21 230.89 265.73 231.74 267.35L230.05 268.27C229.8 267.75 229.49 267.17 229.09 266.52C220.07 267.19 218.99 267.26 218.2 267.56C218.13 267.18 217.79 266.25 217.53 265.76C218.07 265.62 218.56 265.08 219.26 264.25C220 263.46 222.28 260.33 223.72 257.32L225.66 258.11C224.18 260.74 222.38 263.35 220.58 265.42L228.12 264.97C227.45 263.93 226.75 262.88 226.12 261.98L227.74 261.26H227.76ZM228.1 252.24C228.93 254.94 230.66 257.57 232.8 258.9C232.4 259.28 231.81 260.03 231.5 260.56C229.47 259.03 227.81 256.51 226.82 253.95H223.69V252.24H228.1V252.24Z" fill="#3D665E"/>
<path d="M240.12 258.72V268.35H238.46V252.54H245.21V258.72H240.11H240.12ZM240.12 253.79V254.98H243.63V253.79H240.12ZM243.63 257.48V256.13H240.12V257.48H243.63ZM248.37 264.12V268.06H246.88V264.12H244.72C244.58 265.33 244 267.22 242.34 268.32C242.09 268.03 241.58 267.58 241.22 267.33C242.59 266.5 243.11 265.12 243.25 264.12H241.2V262.73H243.29V261.04H241.51V259.69H250.26V261.04H248.37V262.73H250.6V264.12H248.37ZM246.88 262.73V261.04H244.76V262.73H246.88ZM253.38 266.3C253.38 267.22 253.18 267.72 252.59 268.01C252.01 268.28 251.11 268.32 249.78 268.32C249.71 267.85 249.46 267.08 249.22 266.61C250.12 266.66 251.06 266.65 251.34 266.65C251.62 266.65 251.7 266.56 251.7 266.29V258.78H246.53V252.55H253.37V266.31L253.38 266.3ZM248.12 253.79V254.98H251.7V253.79H248.12ZM251.7 257.52V256.13H248.12V257.52H251.7Z" fill="#3D665E"/>
<path d="M273.5 254.27C272.47 255.91 270.98 257.33 269.21 258.5C271.23 259.51 273.55 260.28 275.96 260.7C275.58 261.1 275.1 261.8 274.88 262.25C272.27 261.71 269.77 260.76 267.61 259.48C265.21 260.81 262.5 261.77 259.9 262.34C259.74 261.91 259.38 261.21 259.07 260.84C261.39 260.37 263.86 259.56 266.07 258.46C265.1 257.78 264.23 257 263.44 256.17C262.58 256.96 261.68 257.67 260.76 258.24C260.49 257.92 259.88 257.28 259.5 257C261.75 255.78 263.93 253.79 265.19 251.62L266.77 252.18C266.48 252.65 266.16 253.13 265.81 253.58H272.02L272.31 253.49L273.48 254.26L273.5 254.27ZM262.17 261.81H272.88V268.29H271.1V267.59H263.86V268.35H262.17V261.81ZM263.86 263.32V266.11H271.1V263.32H263.86ZM264.53 255.11C265.36 256.01 266.4 256.86 267.61 257.59C268.83 256.83 269.93 255.99 270.78 255.03H264.59L264.54 255.1L264.53 255.11Z" fill="#3D665E"/>
<path d="M286.47 261.39L286.87 262.87C284.98 263.77 282.96 264.71 281.4 265.41L280.73 263.74C281.38 263.51 282.21 263.18 283.12 262.8V257.61H281.07V256.03H283.12V252.03H284.69V256.03H286.51V257.61H284.69V262.15L286.47 261.39V261.39ZM294.66 266.45C295.65 266.45 295.83 266 295.97 264.04C296.35 264.29 297 264.56 297.45 264.65C297.22 267.13 296.71 267.94 294.77 267.94H290.63C288.42 267.94 287.79 267.38 287.79 265.22V260.02L286.55 260.56L285.92 259.06L287.79 258.27V253.5H289.37V257.61L291.39 256.76V251.81H292.96V256.1L295.37 255.07L296.61 255.48L296.54 255.75C296.4 258.25 296.13 261.55 295.68 263.6L294.31 263.22C294.58 261.67 294.78 259.17 294.87 256.97L292.96 257.8V264.26H291.39V258.46L289.37 259.32V265.23C289.37 266.24 289.57 266.44 290.72 266.44H294.66V266.45Z" fill="#3D665E"/>
<path d="M311.51 255.97V258.2H317.29V264.38C317.29 265.26 317.11 265.77 316.44 266.02C315.77 266.29 314.77 266.31 313.31 266.31C313.24 265.84 312.97 265.12 312.72 264.67C313.8 264.71 314.88 264.71 315.17 264.71C315.48 264.69 315.57 264.62 315.57 264.37V259.85H311.52V268.28H309.77V259.85H305.97V266.35H304.28V258.21H309.77V255.98H302.64V254.34H310.09C309.8 253.66 309.39 252.81 309.03 252.14L310.67 251.65C311.16 252.48 311.79 253.63 312.04 254.33H318.79V255.97H311.52H311.51Z" fill="#3D665E"/>
<path d="M334.62 262.11C335.5 264.7 336.92 266.49 338.26 266.47C338.75 266.47 338.94 265.71 339.03 263.88C339.41 264.22 340.04 264.55 340.49 264.69C340.24 267.46 339.59 268.13 338.19 268.13C335.83 268.13 333.83 265.63 332.81 262.12H327.75V266.12L332.04 265.15C332.04 265.62 332.13 266.36 332.22 266.73C327.18 267.97 326.42 268.15 325.94 268.44C325.81 267.99 325.45 267.27 325.17 266.93C325.55 266.73 326.02 266.28 326.02 265.53V252.69H338.88V258.13H333.88C333.93 258.96 334.06 259.8 334.22 260.56H340.18V262.13H334.65L334.62 262.11ZM327.74 254.22V256.56H337.16V254.22H327.74V254.22ZM332.44 260.54C332.28 259.77 332.17 258.94 332.12 258.11H327.74V260.54H332.44Z" fill="#3D665E"/>
<path d="M361.65 254.58C361.65 254.58 361.65 255.16 361.63 255.37C361.38 263.49 361.16 266.28 360.44 267.18C359.99 267.77 359.56 267.94 358.87 268.03C358.24 268.1 357.18 268.08 356.15 268.03C356.11 267.58 355.92 266.88 355.61 266.41C356.76 266.5 357.81 266.52 358.26 266.52C358.62 266.52 358.82 266.47 359.02 266.21C359.6 265.62 359.83 262.9 360.06 256.11H355.81C355.31 257.26 354.75 258.31 354.17 259.13C353.9 258.88 353.27 258.43 352.86 258.19V266.45H347.98V267.82H346.45V254.66H348.47C348.72 253.8 348.99 252.61 349.1 251.74L350.92 252.05C350.61 252.95 350.27 253.9 349.98 254.66H352.86V258.06C354.05 256.51 355 254.12 355.54 251.74L357.16 252.12C356.94 252.95 356.71 253.78 356.42 254.57H361.64L361.65 254.58ZM347.98 256.13V259.55H351.33V256.13H347.98ZM351.33 264.99V261.01H347.98V264.99H351.33ZM357.33 263.59C356.83 262.49 355.66 260.73 354.7 259.43L356.01 258.69C356.96 259.93 358.19 261.64 358.73 262.71L357.33 263.59V263.59Z" fill="#3D665E"/>
<path d="M371.78 260.41C371.49 261.96 371.02 263.54 370.38 264.86C370.74 265.06 371.12 265.36 371.78 265.76C373 266.52 374.66 266.62 376.77 266.62C378.88 266.62 382.01 266.46 383.99 266.21C383.79 266.66 383.52 267.49 383.5 267.94C382.11 268.03 378.8 268.14 376.69 268.14C374.31 268.14 372.78 267.94 371.49 267.18C370.75 266.77 370.1 266.14 369.71 266.14C369.32 266.14 368.68 267.31 368.22 268.41L367.07 266.86C367.56 266.23 368.02 265.69 368.47 265.29L368.45 265.27C369.15 264.28 369.71 262.86 370.03 261.49H367.76C368.21 260.43 368.73 258.97 369.18 257.57H367.38V256.06H371.27C370.87 257.34 370.37 258.81 369.92 260.06H370.55L370.8 260.01L371.77 260.42L371.78 260.41ZM369.46 255.35C369.21 254.54 368.72 253.24 368.38 252.29L369.89 251.88C370.25 252.84 370.75 254.08 371.01 254.85L369.46 255.35ZM377 263.74C376.06 264.62 374.61 265.49 373.4 266.06C373.11 265.75 372.54 265.27 372.16 265.03C373.4 264.58 374.68 263.93 375.49 263.27H371.87V261.99H374.86V260.57H372.56V259.31H374.86V258.18H376.39V259.31H378.89V258.18H380.44V259.31H382.8V260.57H380.44V261.99H383.54V263.27H379.67C380.93 263.86 382.3 264.66 383.09 265.27L381.63 265.99C380.89 265.38 379.61 264.55 378.42 263.94L379.36 263.27H375.63L377 263.74V263.74ZM377.16 256.27C377.03 256.65 376.93 257.19 376.87 257.48C373.34 258.07 372.78 258.2 372.48 258.36C372.39 258.02 372.12 257.39 371.92 257.1C372.15 256.97 372.42 256.69 372.42 256.02V252.44H377.32V255.65H373.76V256.78L377.16 256.28V256.27ZM373.76 253.51V254.54H375.92V253.51H373.76ZM376.39 261.99H378.89V260.57H376.39V261.99ZM379.81 257.89C378.42 257.89 378.08 257.37 378.08 256.04V252.46H383.05V255.67H379.43V256.07C379.43 256.56 379.48 256.74 379.9 256.74H381.99C382.33 256.74 382.89 256.7 383.16 256.63C383.2 256.99 383.23 257.49 383.29 257.8C383.04 257.89 382.53 257.91 382.05 257.91H379.82L379.81 257.89ZM379.43 253.53V254.56H381.61V253.53H379.43Z" fill="#3D665E"/>
<path d="M394.28 260.86C393.7 261.06 393.11 261.24 392.53 261.42V266.41C392.53 267.24 392.37 267.71 391.88 267.94C391.39 268.23 390.69 268.26 389.54 268.26C389.5 267.86 389.31 267.14 389.09 266.71C389.81 266.75 390.48 266.73 390.67 266.73C390.9 266.71 390.99 266.66 390.99 266.41V261.93L389.14 262.51L388.74 260.89C389.37 260.73 390.14 260.49 390.99 260.24V256.86H388.95V255.31H390.99V251.84H392.52V255.31H394.23V256.86H392.52V259.81L394.05 259.34L394.27 260.87L394.28 260.86ZM405.25 265.97H400.55V268.31H398.98V265.97H394.24V264.71H398.98V263.61H394.87V262.33H397.03C396.9 261.93 396.74 261.43 396.54 261.05L397.67 260.8H394.5V259.49H398.97V258.43H395.26V257.21H398.97V256.31H395.04V252.42H404.76V256.31H400.53V257.21H404.44V258.43H400.53V259.49H404.99V260.8H402.18L403.31 261.09C403.08 261.52 402.84 261.96 402.61 262.33H404.57V263.61H400.52V264.71H405.22V265.97H405.25ZM397.8 253.58H396.4V255.13H397.8V253.58ZM397.96 260.8C398.21 261.29 398.46 261.93 398.57 262.33H401.11C401.34 261.84 401.6 261.25 401.76 260.8H397.96ZM399.11 255.13H400.59V253.58H399.11V255.13ZM401.9 255.13H403.41V253.58H401.9V255.13Z" fill="#3D665E"/>
<path d="M153.51 292.37C153.13 292.98 152.7 293.5 152.21 293.97C153.99 294.4 155.59 294.85 156.86 295.23L154.54 297.05C153.32 296.6 151.68 296.1 149.79 295.59C147.68 296.53 144.95 296.94 141.36 297.17C141.2 296.41 140.8 295.5 140.41 294.92C142.34 294.87 143.99 294.76 145.4 294.51C144.41 294.29 143.38 294.1 142.36 293.9C142.74 293.45 143.15 292.93 143.57 292.37H140.42V290.23H144.97C145.24 289.76 145.49 289.31 145.71 288.86H141.5V283.55H145.35V282.83H140.7V280.58H156.6V282.83H151.83V283.55H156.13V288.86H146.69L148.4 289.24C148.26 289.56 148.08 289.91 147.9 290.23H151.75C151.88 289.92 152 289.6 152.11 289.24L154.67 289.85L154.54 290.23H157.03V292.37H153.52H153.51ZM143.93 286.84H145.33V285.58H143.93V286.84ZM146.34 292.66C147.29 292.84 148.25 293.04 149.17 293.25C149.6 293 149.98 292.71 150.3 292.37H146.54L146.34 292.66V292.66ZM147.8 283.55H149.35V282.83H147.8V283.55ZM149.35 286.84V285.58H147.8V286.84H149.35ZM151.82 285.58V286.84H153.51V285.58H151.82Z" fill="#3D665E"/>
<path d="M178.04 287.04C177.03 288.17 175.84 289.36 174.83 290.28C176 291.47 177.37 292.46 178.92 293.14C178.29 293.68 177.42 294.76 176.99 295.5C174.74 294.29 172.97 292.46 171.59 290.22V294C171.59 295.44 171.32 296.16 170.49 296.59C169.66 297.04 168.44 297.13 166.82 297.11C166.71 296.35 166.32 295.13 165.94 294.36C166.95 294.41 168.06 294.41 168.42 294.41C168.78 294.41 168.89 294.3 168.89 293.98V291.87C166.98 293.17 165 294.41 163.33 295.44L161.64 293.05C163.35 292.22 166.25 290.6 168.9 289.09V285.11H162.27V282.57H168.9V280.03H171.6V282.57H174.34C173.73 282.19 173.04 281.83 172.47 281.54L174 279.88C175.06 280.35 176.59 281.1 177.37 281.68L176.58 282.56H178.42V285.1H171.61V285.3C172.06 286.38 172.62 287.42 173.3 288.4C174.18 287.48 175.12 286.38 175.73 285.41L178.05 287.03L178.04 287.04ZM165.51 290.37C165.01 289.4 163.76 287.96 162.72 286.93L164.7 285.53C165.74 286.47 167.08 287.82 167.65 288.79L165.51 290.37Z" fill="#3D665E"/>
<path d="M188.82 280.75C188.46 281.92 188.01 283.14 187.51 284.31V297.09H185.02V288.84C184.8 289.13 184.61 289.42 184.39 289.67C184.19 289.02 183.56 287.49 183.15 286.81C184.5 285.14 185.71 282.58 186.41 280.04L188.82 280.74V280.75ZM196.6 292.72C196.02 294.36 194.55 295.98 191.4 297.15C191.04 296.61 190.27 295.73 189.67 295.24C192.06 294.56 193.24 293.64 193.79 292.72H190.78V290.54H192.08C191.61 290.18 190.89 289.71 190.39 289.44V293.49H188.14V283.44H190.39V289.22C191.16 288.39 191.81 287.17 192.19 285.98H190.75V283.82H196.37C196.42 283.5 196.48 283.15 196.51 282.83H191.49V280.71H197.04L197.44 280.62L199.26 280.82C199.17 281.85 199.01 282.87 198.85 283.83H200.34V285.99H192.94L194.6 286.39C194.53 286.62 194.44 286.84 194.37 287.07H200.01V289.19H196.95V290.54H200.46V292.72H196.63H196.6ZM193.32 289.19C193.01 289.69 192.71 290.16 192.38 290.54H194.29V289.19H193.32ZM197.73 292.74C198.63 293.57 200.03 294.76 200.74 295.51L198.89 297.06C198.28 296.3 196.93 295.03 195.99 294.11L197.74 292.74H197.73Z" fill="#3D665E"/>
<path d="M218.9 294.35C220.16 294.26 221.42 294.13 222.36 293.99C222.07 294.69 221.64 295.97 221.6 296.66C220.03 296.77 216.97 296.89 214.88 296.89C212.47 296.89 210.97 296.69 209.68 295.97C208.92 295.54 208.29 294.96 207.93 294.96C207.5 294.96 206.85 296.24 206.44 297.21L204.71 294.69C205.14 294.2 205.59 293.81 206.04 293.48C206.65 292.6 207.12 291.45 207.43 290.31H205.31C205.67 289.25 206.07 287.86 206.43 286.48H205.1V284.16H209.49C209.18 285.4 208.82 286.79 208.48 288.03L208.61 288.01L210.09 288.6C209.86 290.13 209.46 291.66 208.9 292.98C209.19 293.16 209.51 293.39 209.98 293.66C210.5 293.98 211.13 294.18 211.83 294.31C211.34 293.86 210.59 293.25 210.1 292.94C211.04 292.71 212.01 292.35 212.69 291.97H210.02V290.08H212.65V289.29H210.63V287.42H212.65V286.68H215.03V287.42H216.54V286.68H218.95V287.42H221.02V289.29H218.95V290.08H221.7V291.97H218.77C219.67 292.44 220.59 292.98 221.16 293.36L218.89 294.35H218.9ZM206.96 283.89C206.74 283.03 206.31 281.69 206.02 280.68L208.4 280.03C208.72 281.02 209.16 282.28 209.41 283.11L206.96 283.88V283.89ZM215.57 284.38C215.39 284.9 215.23 285.75 215.17 286.18C211.59 286.7 210.92 286.83 210.54 287.03C210.43 286.53 210.04 285.59 209.73 285.16C210.05 284.98 210.38 284.62 210.38 283.9V280.57H215.64V284.24H212.38V284.8L215.57 284.39V284.38ZM215.5 292.45C214.69 293.21 213.39 293.93 212.28 294.39C213.09 294.5 214.01 294.52 215.02 294.52C216.03 294.52 217.41 294.47 218.8 294.38C218.24 293.91 217.2 293.19 216.28 292.69L217.34 291.99H214.15L215.5 292.46V292.45ZM212.38 282.12V282.7H213.48V282.12H212.38ZM215.03 290.1H216.54V289.31H215.03V290.1ZM218.4 286.48C216.51 286.48 216.08 285.78 216.08 284.01V280.59H221.41V284.26H218.11C218.13 284.58 218.22 284.73 218.54 284.73H220.12C220.5 284.73 221.11 284.69 221.42 284.6C221.46 285.12 221.51 285.86 221.58 286.33C221.27 286.44 220.7 286.47 220.18 286.47H218.4V286.48ZM218.11 282.14V282.72H219.21V282.14H218.11Z" fill="#3D665E"/>
<path d="M236.34 280.02C236.32 280.85 236.29 281.87 236.2 283.03C236.47 285.59 237.6 291.94 243.83 294.72C243.02 295.35 242.28 296.25 241.9 296.99C238.12 295.17 236.1 292 235 289.07C233.97 292.02 232.08 294.99 228.64 297.12C228.17 296.42 227.33 295.57 226.44 294.98C233.68 290.97 233.21 283.28 233.3 280.04H236.32L236.34 280.02Z" fill="#3D665E"/>
<path d="M264.55 280.56V297.13H261.69V296.16H251.59V297.13H248.87V280.56H264.55ZM261.69 293.72V283.24H251.59V293.72H261.69ZM260.43 284.97V292.05H252.83V284.97H260.43ZM257.8 287.24H255.3V289.8H257.8V287.24Z" fill="#3D665E"/>
<path d="M281.04 295.01C281.47 295.01 281.56 294.87 281.63 293.82C282.06 294.14 283.05 294.49 283.66 294.63C283.43 296.56 282.8 297.04 281.28 297.04H279.32C277.18 297.04 276.71 296.41 276.71 294.54V292.87H279.07C278.82 292.73 278.55 292.58 278.31 292.46L278.89 291.94H277.61V288.1C277.41 287.88 277.07 287.58 276.73 287.29V291.94H274.57V287.91C274.39 288.07 274.23 288.23 274.05 288.38C273.89 288.18 273.62 287.86 273.33 287.55C273.28 290.52 272.9 294.59 271.53 297.16C271.12 296.71 270.07 295.9 269.55 295.63C270.88 293.02 270.97 289.15 270.97 286.45V281.21H277.7C277.57 280.92 277.43 280.63 277.28 280.38L279.64 279.75C279.93 280.18 280.22 280.71 280.43 281.21H286.59V283.32H283.33C283.58 283.68 283.82 284.09 283.94 284.4L283.49 284.58H286.19V286.06H283.67V286.49H285.7V287.7H283.67V288.19H285.7V289.4H283.67V289.92H286.35V291.45H280.44C281.25 291.86 282.1 292.4 282.56 292.87L280.98 294.35C280.58 293.92 279.81 293.36 279.05 292.89V294.53C279.05 295 279.14 295.03 279.66 295.03H281.01L281.04 295.01ZM272.56 295.62C273.37 294.9 273.97 293.73 274.25 292.58L276.36 293.32C276.02 294.63 275.5 296 274.54 296.89L272.56 295.63V295.62ZM273.35 285.99C274.18 285.23 274.93 284.28 275.44 283.31H273.35V285.99ZM276.73 285.94C277.41 285.18 278.01 284.25 278.42 283.31H276.58L277.68 283.65C277.41 284.21 277.09 284.77 276.73 285.31V285.94V285.94ZM281.54 286.05H279.76V286.48H281.54V286.05ZM281.54 287.69H279.76V288.18H281.54V287.69ZM281.54 289.38H279.76V289.9H281.54V289.38ZM281.77 284.57C281.63 284.26 281.43 283.92 281.27 283.65L282.24 283.31H279.92L280.69 283.53C280.55 283.87 280.38 284.23 280.2 284.57H281.77V284.57ZM284.63 292.38C285.53 293.41 286.5 294.81 286.86 295.84L284.81 296.83C284.5 295.86 283.59 294.36 282.72 293.28L284.63 292.38V292.38Z" fill="#3D665E"/>
<path d="M297.36 280.86C296.91 282.05 296.35 283.29 295.72 284.48V297.1H293.24V288.35C292.95 288.71 292.65 289.05 292.36 289.38C292.13 288.73 291.42 287.27 290.99 286.63C292.54 285.06 294.03 282.58 294.9 280.09L297.37 280.86H297.36ZM303.84 285.52V294.27C303.84 295.46 303.66 296.18 302.92 296.61C302.2 297.02 301.28 297.13 300.09 297.13C299.98 296.37 299.59 295.2 299.21 294.5C299.91 294.52 300.67 294.52 300.92 294.52C301.15 294.52 301.24 294.47 301.24 294.23V285.52H299.51C298.99 286.51 298.41 287.39 297.84 288.09C297.37 287.62 296.33 286.76 295.73 286.36C297.12 284.9 298.25 282.47 298.86 280.06L301.43 280.65C301.2 281.48 300.93 282.31 300.6 283.1H306.22L306.62 283.03L308.47 283.35C308.27 284.9 307.95 286.64 307.7 287.78L305.47 287.38C305.54 286.88 305.63 286.21 305.7 285.51H303.83L303.84 285.52ZM300.8 288.8C300.31 291.05 299.41 293.36 298.44 294.8C297.95 294.39 296.84 293.7 296.23 293.4C297.18 292.19 297.9 290.19 298.27 288.29L300.81 288.81L300.8 288.8ZM306.45 288.06C307.33 289.9 308.03 292.25 308.27 293.86L305.75 294.74C305.61 293.16 304.92 290.69 304.11 288.85L306.45 288.06Z" fill="#3D665E"/>
<path d="M329.66 282.77C329.66 282.77 329.66 283.6 329.64 283.9C329.42 291.91 329.24 294.83 328.49 295.82C327.93 296.61 327.37 296.83 326.58 296.97C325.86 297.1 324.74 297.08 323.66 297.04C323.62 296.34 323.26 295.22 322.8 294.5C323.95 294.61 325.03 294.61 325.52 294.61C325.88 294.61 326.08 294.54 326.31 294.29C326.83 293.73 327.05 291.08 327.19 285.14H323.77C323.28 286.17 322.76 287.08 322.24 287.82C321.92 287.53 321.3 287.06 320.76 286.7V295.27H316.04V296.55H313.68V282.94H315.73C315.91 282.02 316.07 280.89 316.13 280.01L318.99 280.41C318.68 281.29 318.38 282.19 318.09 282.95H320.76V285.34C321.66 283.88 322.43 281.94 322.9 280.06L325.42 280.65C325.22 281.35 324.99 282.05 324.74 282.76H329.66V282.77ZM318.41 285.22H316.05V287.65H318.41V285.22ZM318.41 293V289.9H316.05V293H318.41ZM324.35 292.46C323.88 291.36 322.8 289.6 321.99 288.26L324.04 287.11C324.85 288.33 326.02 290.05 326.56 291.11L324.35 292.46V292.46Z" fill="#3D665E"/>
<path d="M351.08 294.37C351.08 295.58 350.86 296.26 350.16 296.66C349.46 297.07 348.5 297.15 347.14 297.13C347.07 296.45 346.74 295.31 346.42 294.66C347.09 294.71 347.95 294.7 348.2 294.7C348.47 294.7 348.56 294.61 348.56 294.34V291.21H346.42C346.2 293.35 345.75 295.59 344.85 297.15C344.44 296.72 343.41 295.98 342.83 295.69L341.35 296.55C340.97 295.83 340.07 294.66 339.35 293.81L341.04 292.87H336.68L339.09 293.57C338.42 294.88 337.34 296.31 336.39 297.17C335.9 296.72 334.9 295.98 334.3 295.64C335.24 294.96 336.12 293.89 336.62 292.87H334.53V290.6H336.08V284.24H334.73V281.97H336.08V280.21H338.42V281.97H340.09V280.21H342.49V281.97H343.66V284.24H342.49V290.6H343.46V292.87H341.46C342.02 293.48 342.68 294.24 343.13 294.87C344.03 292.66 344.1 289.7 344.1 287.43V280.77H351.05V294.36L351.08 294.37ZM338.44 284.25V285.01H340.11V284.25H338.44ZM338.44 287.78H340.11V286.97H338.44V287.78ZM338.44 290.61H340.11V289.75H338.44V290.61ZM348.56 288.88V287.1H346.58V287.44C346.58 287.89 346.58 288.38 346.56 288.88H348.56ZM346.58 283.14V284.81H348.56V283.14H346.58Z" fill="#3D665E"/>
<path d="M373.24 281.92V284.3H368.61V285.33H372.48V287.69H362.27V285.33C361.89 285.94 361.46 286.55 360.99 287.17V297.13H358.49V289.98C358.02 290.45 357.55 290.86 357.08 291.22C356.92 290.63 356.29 289.13 355.93 288.48C357.46 287.4 359.22 285.67 360.25 283.98L362.5 284.95L362.27 285.33H365.93V284.3H361.7V281.92H365.93V280.08H368.61V281.92H373.24V281.92ZM362.18 281.04C360.92 282.77 359.05 284.59 357.32 285.7C357.05 285.11 356.46 284.03 356.06 283.47C357.45 282.64 359 281.18 359.73 280.03L362.18 281.04ZM371.11 288.91H373.13V291.27H371.11V294.51C371.11 295.72 370.89 296.35 370.05 296.72C369.2 297.08 368.12 297.12 366.76 297.12C366.65 296.4 366.29 295.37 365.97 294.69C366.73 294.74 367.77 294.74 368.06 294.73C368.35 294.73 368.44 294.68 368.44 294.44V291.27H364.46C365.14 292.15 366.19 293.39 366.69 294.17L364.37 295.45C363.94 294.66 362.97 293.34 362.26 292.39L364.4 291.27H361.43V288.91H368.43V288.14H371.11V288.91V288.91Z" fill="#3D665E"/>
<path d="M143.98 301.37H371.03" stroke="#3D665E" stroke-linecap="round" stroke-linejoin="round"/>
<path d="M402.63 159.87L396.89 162.37C396.89 162.37 395.17 161.15 388.85 161.18C382.53 161.21 382.78 166.24 382.78 166.24C382.78 166.24 369.92 167.76 366.59 171.41C363.26 175.06 369.82 176.32 380.58 174.61C380.58 174.61 377.54 177.87 380.91 180.69C380.88 180.85 379.86 184.98 382.68 186.01C382.68 186.01 381.69 191.28 389.28 190.11C396.4 189.01 401.11 186.01 403.19 183.69C403.48 183.37 403.86 183.16 404.27 183.04L411.07 181.15L402.62 159.88L402.63 159.87Z" fill="white"/>
<path d="M382.78 166.23C382.78 166.23 386.41 165.73 389.19 165.62Z" fill="white"/>
<path d="M402.63 159.87L396.89 162.37C396.89 162.37 395.17 161.15 388.85 161.18C382.53 161.21 382.78 166.24 382.78 166.24C382.78 166.24 369.92 167.76 366.59 171.41C363.26 175.06 369.82 176.32 380.58 174.61C380.58 174.61 377.94 177.72 380.91 180.69C380.79 180.93 379.94 184.96 382.68 186.01C382.68 186.01 381.69 191.28 389.28 190.11C396.4 189.01 401.11 186.01 403.19 183.69C403.48 183.37 403.86 183.16 404.27 183.04L411.07 181.15L402.62 159.88L402.63 159.87Z" stroke="#22571A" stroke-width="0.9" stroke-linecap="round" stroke-linejoin="round"/>
<path d="M382.78 166.23C382.78 166.23 386.41 165.73 389.19 165.62" stroke="#22571A" stroke-width="0.9" stroke-linecap="round" stroke-linejoin="round"/>
<path d="M417.75 77.65C417.75 77.65 427.93 76.11 435.73 91.57C443.53 107.03 450.67 140.38 451.29 149.47C451.9 158.39 430.43 177.54 408.51 185.82C407.84 186.07 407.11 185.68 406.93 184.99L398.26 159.8C398.1 159.33 398.26 158.81 398.67 158.52L420.68 142.88L412.89 104.84C412.41 102.03 412.67 99.15 413.66 96.48L417.76 77.66L417.75 77.65Z" fill="#FFEB66"/>
<path d="M413.61 112.97L412.88 109.85" stroke="#22571A" stroke-width="0.9" stroke-linecap="round" stroke-linejoin="round"/>
<path d="M417.75 77.65C417.75 77.65 427.93 76.11 435.73 91.57C443.53 107.03 450.67 140.38 451.29 149.47C451.9 158.34 430.67 177.31 408.89 185.68C408.02 186.01 407.06 185.5 406.82 184.6L398.27 159.86C398.1 159.36 398.27 158.8 398.71 158.49L420.67 142.88L414.43 116.45" fill="#FFEB66"/>
<path d="M417.75 77.65C417.75 77.65 427.93 76.11 435.73 91.57C443.53 107.03 450.67 140.38 451.29 149.47C451.9 158.34 430.67 177.31 408.89 185.68C408.02 186.01 407.06 185.5 406.82 184.6L398.27 159.86C398.1 159.36 398.27 158.8 398.71 158.49L420.67 142.88L414.43 116.45" stroke="#22571A" stroke-linecap="round" stroke-linejoin="round"/>
<path d="M420.67 142.88L425.86 138.66" stroke="#22571A" stroke-width="0.9" stroke-linecap="round" stroke-linejoin="round"/>
<path d="M424.08 86.2C424.08 86.2 416.81 91.44 412.6 101" stroke="#22571A" stroke-width="0.9" stroke-linecap="round" stroke-linejoin="round"/>
<path d="M331.36 356.24H182.83V415.55H331.36V356.24Z" fill="white"/>
<path d="M334.17 353.44H185.64V412.75H334.17V353.44Z" stroke="#3D665E" stroke-miterlimit="10"/>
<path d="M206.43 391.71C207.66 390.54 208.39 388.76 208.7 386.8L211.52 387.57C211.12 389.79 210.51 391.95 209.03 393.33L206.43 391.7V391.71ZM227.16 383.72C227.16 383.72 227.14 384.51 227.09 384.91C226.85 389.53 226.56 391.58 225.92 392.35C225.39 393.01 224.82 393.23 224.12 393.34C223.5 393.45 222.54 393.47 221.48 393.45C221.44 392.61 221.13 391.49 220.71 390.68L220.47 390.77C220.27 389.91 219.7 388.55 219.15 387.54L221.46 386.79C222.05 387.76 222.69 389.06 222.93 389.91L221.08 390.55C221.65 390.59 222.14 390.62 222.44 390.59C222.75 390.59 222.95 390.55 223.14 390.33C223.43 390 223.62 388.92 223.8 386.46H209.34V373.3H225.4V376.03H219V376.95H224.61V379.41H219V380.31H224.61V382.77H219V383.72H227.14H227.16ZM214.53 387.5C215.01 388.97 215.37 390.87 215.43 392.14L212.59 392.62C212.59 391.37 212.26 389.41 211.84 387.93L214.52 387.49L214.53 387.5ZM212.51 376.01V376.93H215.85V376.01H212.51ZM215.85 379.4H212.51V380.3H215.85V379.4ZM212.51 383.71H215.85V382.76H212.51V383.71ZM218.1 387.3C218.69 388.6 219.24 390.29 219.42 391.42L216.78 392.1C216.67 391 216.19 389.24 215.64 387.9L218.1 387.31V387.3Z" fill="#3D665E"/>
<path d="M253.67 389.12V392.35H233.36V389.12H241.08V372.79H244.53V378.86H252.1V382.09H244.53V389.11H253.66L253.67 389.12Z" fill="#3D665E"/>
<path d="M262.31 380.73C261.85 381.24 261.39 381.72 260.92 382.16C260.55 381.3 259.82 380.09 259.18 379.34C261.07 377.82 263.18 375.23 264.26 372.39L266.64 373.86C266.49 374.23 266.31 374.61 266.13 374.96C267.45 376.15 268.88 377.49 269.61 378.42L268.11 380.99C267.89 380.68 267.6 380.33 267.27 379.93V381.89H262.3V380.72L262.31 380.73ZM269.61 384.1C268.82 386.19 267.56 388.35 266.31 390.02C266.82 390.53 267.26 391.01 267.63 391.43L265.52 393.32C264.55 392.07 262.51 390.04 260.97 388.72L262.93 387.05C263.33 387.36 263.79 387.73 264.25 388.13C264.84 387.4 265.46 386.5 265.97 385.62H260.38V383.05H267.31L267.75 382.9L269.62 384.11L269.61 384.1ZM266.62 379.22C266.05 378.6 265.43 377.97 264.82 377.37C264.4 378.01 263.98 378.62 263.54 379.22H266.62ZM277.12 388.92C278.24 389.73 279.83 390.92 280.62 391.74L278.18 393.52C277.48 392.71 275.93 391.39 274.77 390.48L276.99 388.92H272.35L274.57 390.44C273.36 391.58 271.33 392.86 269.69 393.52C269.21 392.93 268.3 392 267.67 391.45C269.17 390.9 270.88 389.82 271.87 388.92H269.76V377.1H272.8C272.84 376.73 272.89 376.35 272.93 375.98H269.06V373.32H280.02V375.98H276.32C276.21 376.38 276.08 376.75 275.95 377.1H279.47V388.92H277.14H277.12ZM276.48 379.42H272.56V380.39H276.48V379.42ZM276.48 382.52H272.56V383.51H276.48V382.52ZM276.48 385.62H272.56V386.63H276.48V385.62Z" fill="#3D665E"/>
<path d="M302.35 382.36C303.67 383.2 305.3 383.83 307.1 384.23C306.42 384.85 305.52 386.08 305.08 386.87C304.33 386.65 303.61 386.39 302.95 386.08C302.71 389.71 302.4 391.45 301.78 392.15C301.23 392.79 300.64 393.01 299.89 393.12C299.23 393.23 298.2 393.25 297.07 393.23C297.03 392.31 296.65 391.03 296.15 390.22C297.01 390.31 297.82 390.33 298.24 390.31C298.59 390.33 298.79 390.27 299.03 390.07C299.29 389.78 299.49 388.88 299.65 386.97H295.89C295.32 389.9 293.87 392.05 289.07 393.33C288.78 392.52 287.97 391.22 287.31 390.58C290.87 389.81 292.04 388.62 292.5 386.97H289.97V385.91C289.27 386.31 288.52 386.68 287.73 387.03C287.4 386.19 286.48 384.9 285.77 384.3C287.22 383.75 288.48 383.09 289.53 382.36H286.41V379.52H292.55C292.77 379.21 292.99 378.9 293.19 378.6H287.76V375.81H290.58C290.25 375.17 289.83 374.47 289.41 373.9L291.96 372.69C292.6 373.48 293.35 374.58 293.65 375.35L292.73 375.81H294.49C294.84 374.71 295.08 373.59 295.24 372.4L298.63 372.73C298.45 373.79 298.21 374.82 297.93 375.81H299.4C299.93 374.93 300.54 373.76 300.87 372.86L303.84 373.74C303.4 374.47 302.94 375.19 302.5 375.81H304.9V378.6H296.85C296.72 378.91 296.56 379.22 296.39 379.52H306.25V382.36H302.38H302.35ZM294.36 382.36C293.83 382.98 293.24 383.55 292.58 384.1H299.84C299.2 383.57 298.65 383 298.12 382.36H294.36Z" fill="#3D665E"/>
</svg>
