<svg width="413" height="242" viewBox="0 0 413 242" fill="none" xmlns="http://www.w3.org/2000/svg">
<g opacity="0.4">
<path d="M413.001 162.972V164.981C413.001 174.662 407.591 179.068 400.921 179.068H399.001C399.321 175.961 400.161 174.202 402.621 172.024C403.831 170.955 403.741 170.565 403.131 170.685C398.921 172.164 396.951 175.961 396.881 181.705V182.075H394.861C394.861 180.706 394.981 179.457 395.211 178.318C394.981 177.02 394.861 175.251 394.861 173.023C394.861 167.468 399.371 162.962 404.931 162.962C406.941 162.962 408.961 163.972 412.991 162.962L413.001 162.972Z" fill="#71AF35"/>
<path d="M323.185 191.526C323.165 192.565 323.135 193.594 323.115 194.613C323.135 193.594 323.165 192.565 323.185 191.526Z" fill="#71AF35"/>
<path d="M323.244 188.119C323.234 188.859 323.214 189.578 323.204 190.307C323.214 189.578 323.234 188.859 323.244 188.119Z" fill="#71AF35"/>
<path d="M323.294 184.573C323.294 185.082 323.284 185.572 323.274 186.081C323.274 185.582 323.284 185.082 323.294 184.573Z" fill="#71AF35"/>
<path d="M323.294 184.573C323.294 185.082 323.285 185.572 323.275 186.081C323.275 186.761 323.255 187.45 323.245 188.119C323.235 188.859 323.214 189.578 323.204 190.307C323.204 190.717 323.195 191.127 323.185 191.526C323.165 192.565 323.135 193.594 323.115 194.613V194.713C323.115 194.873 323.114 195.033 323.104 195.193H323.314V180.916C323.314 182.155 323.314 183.374 323.294 184.573Z" fill="#71AF35"/>
<path d="M325.634 177.459H336.334V195.193H325.634V201.697H336.334V209.15H348.623V171.055H325.634V177.459Z" fill="#71AF35"/>
<path d="M323.184 191.526C323.184 191.127 323.204 190.717 323.204 190.307C323.214 189.578 323.234 188.859 323.244 188.119C323.254 187.45 323.264 186.761 323.274 186.081C323.274 185.582 323.284 185.082 323.294 184.573C323.304 183.374 323.314 182.155 323.314 180.916V159.296C331.824 158.556 342.854 156.878 351.363 153.841L341.914 143.031C336.034 147.337 327.734 151.323 321.015 153.631L310.195 151.003V181.336C310.195 214.605 309.775 226.674 303.785 238.953L308.405 242C318.065 231.51 321.535 218.282 322.694 201.697C322.814 200.068 323.034 196.492 323.124 194.713V194.613C323.154 193.594 323.174 192.565 323.194 191.526H323.184Z" fill="#71AF35"/>
<path d="M323.274 186.081C323.274 186.761 323.254 187.45 323.244 188.119C323.254 187.45 323.264 186.761 323.274 186.081Z" fill="#71AF35"/>
<path d="M323.314 180.916C323.314 182.155 323.314 183.374 323.294 184.573C323.304 183.374 323.314 182.155 323.314 180.916Z" fill="#71AF35"/>
<path d="M323.204 190.307C323.204 190.717 323.194 191.127 323.184 191.526C323.184 191.127 323.204 190.717 323.204 190.307Z" fill="#71AF35"/>
<path d="M368.142 179.347V185.951H376.672V240.531H389.381V185.951H399.041V179.347H368.142Z" fill="#71AF35"/>
<path d="M365.852 159.406C374.882 158.876 388.541 156.778 397.361 153.421L388.011 142.191C381.182 146.917 371.622 151.213 364.272 153.521L352.723 151.103V183.843C352.723 209.24 350.513 223.827 340.744 238.203L344.733 241.88C360.043 229.152 365.392 210.879 365.812 187.49L365.842 159.396L365.852 159.406Z" fill="#71AF35"/>
<path d="M52.5275 72.6253C48.1178 73.8841 42.658 75.2529 36.8783 76.6116V18.2651H54.3175V11.7611H4.0999V18.2651H24.2689V79.2392C22.169 79.6588 20.0691 80.0784 18.0692 80.3981V33.691H7.24974V82.1765L2 82.8059L3.81991 89.31C4.92986 93.2963 9.06966 95.6442 13.0595 94.5152C25.7388 90.9185 43.698 84.1347 54.5274 77.5607L52.5275 72.6253Z" fill="#71AF35"/>
<path d="M48.3182 39.9952H39.1682V46.3993H48.3182V39.9952Z" fill="#71AF35"/>
<path d="M77.3164 71.1566C84.876 58.9778 88.3458 44.9207 89.0758 30.7536H95.4855V24.2496H66.7069C69.1268 17.4259 70.9067 10.5022 71.9566 4.09808L58.1973 2C56.8274 17.8455 51.6876 43.0324 44.228 55.7307L48.8477 58.8779C51.8976 55.1013 54.8374 50.4856 57.5673 45.4402C58.9372 55.0913 61.2471 63.3837 64.497 70.6271C58.1973 80.0684 48.8477 88.5706 34.8784 95.7041L37.1883 100.849C51.3676 96.3335 62.0771 89.31 69.9567 80.8078C73.8865 86.8422 78.5763 91.9076 83.946 96.2236C87.3659 98.9711 92.4056 98.2418 94.8755 94.6251L99.3653 88.0511C90.0157 83.2255 82.8761 77.7705 77.3064 71.1566H77.3164ZM70.0667 60.0368C66.7069 53.2131 64.287 45.1305 62.3971 35.5792C63.137 34.0007 63.767 32.3222 64.397 30.7536H75.9464C75.4164 41.1441 73.8465 50.9052 70.0667 60.0368Z" fill="#71AF35"/>
<path d="M159.613 184.063H150.273V192.146H159.613V184.063Z" fill="#71AF35"/>
<path d="M171.702 184.063H171.692V192.146H171.702V184.063Z" fill="#71AF35"/>
<path d="M142.074 144.08H133.984V149.645H142.074V144.08Z" fill="#71AF35"/>
<path d="M173.572 144.08H164.962V149.645H173.572V144.08Z" fill="#71AF35"/>
<path d="M187.232 192.146H174.022V198.34H187.232V192.146Z" fill="#71AF35"/>
<path d="M180.931 215.764L183.471 211.088C184.931 208.401 183.661 205.034 180.771 203.995C173.652 201.427 165.822 199.419 158.652 198.34L156.762 203.276C164.952 206.952 174.202 211.778 180.811 215.764C168.622 216.923 156.652 217.443 145.943 217.443C137.123 217.333 130.814 216.913 126.304 215.344C136.493 213.136 144.163 209.68 151.723 204.115L144.163 198.34H147.943V171.265H135.863V177.979H124.734V184.063H135.863V192.146H122.104V198.34H141.743C136.173 203.905 131.034 207.262 123.784 210.938L125.784 215.135C122.524 213.976 120.424 212.197 119.064 209.47V181.136H95.9554V187.54H106.245V210.839C102.985 215.035 98.2653 219.441 93.2156 223.217L97.3354 227.783C99.3753 230.041 102.915 229.951 104.885 227.643C108.475 223.457 111.645 218.691 113.905 213.876C119.054 224.266 129.134 227.523 145.413 228.153C158.032 228.662 173.762 228.572 185.741 227.883C186.251 227.853 186.681 227.503 186.821 227.014L190.361 214.815C187.211 215.135 184.061 215.554 180.911 215.764H180.931Z" fill="#71AF35"/>
<path d="M183.452 177.979H174.022V184.063H183.452V177.979Z" fill="#71AF35"/>
<path d="M159.612 184.063V192.146H150.273V198.34H158.662H171.702V192.146H171.692V184.063H171.702V177.979H171.692V171.155H159.612V177.979H150.273V184.063H159.612Z" fill="#71AF35"/>
<path d="M139.543 169.167C143.923 169.167 147.123 168.927 149.783 167.608C152.643 166.189 153.283 162.363 151.193 159.945L149.093 157.517C146.463 160.455 144.893 160.665 140.693 160.665C134.813 160.665 133.974 160.245 133.974 157.408V155.409H151.303V138.405H123.884V158.347C123.884 168.108 127.454 169.157 139.533 169.157L139.543 169.167ZM133.974 144.09H142.063V149.655H133.974V144.09Z" fill="#71AF35"/>
<path d="M170.742 169.267C174.462 169.267 178.211 169.067 181.361 167.678C184.411 166.339 185.191 162.353 182.991 159.845L180.931 157.507C178.301 160.445 176.312 160.655 172.002 160.655C166.012 160.655 164.962 160.445 164.962 157.398V155.399H183.031V138.395H154.883V157.917C154.883 168.517 158.982 169.247 170.742 169.247V169.267ZM164.962 144.08H173.572V149.645H164.962V144.08Z" fill="#71AF35"/>
<path d="M115.735 145.738C115.835 145.329 115.915 144.899 115.945 144.459C115.945 144.449 115.945 144.439 115.945 144.429C115.965 144.19 115.985 143.95 115.985 143.71C115.985 138.974 112.145 135.138 107.405 135.138C102.665 135.138 98.8252 138.974 98.8252 143.71C98.8252 145.958 99.7352 148.156 101.315 149.745C102.055 150.484 102.925 151.093 103.885 151.523C105.045 152.042 106.385 152.272 107.635 152.492C108.375 152.622 109.115 152.722 109.855 152.792C111.895 152.992 113.945 153.042 115.985 153.012C115.985 153.012 114.885 151.323 115.735 145.728V145.738Z" fill="#71AF35"/>
<path d="M114.905 167.938C114.995 167.568 115.065 167.179 115.095 166.789C115.095 166.779 115.095 166.769 115.095 166.759C115.115 166.539 115.125 166.329 115.125 166.11C115.125 161.843 111.665 158.397 107.405 158.397C103.145 158.397 99.6852 161.853 99.6852 166.11C99.6852 168.138 100.495 170.106 101.925 171.545C102.595 172.214 103.375 172.753 104.235 173.143C105.275 173.613 106.485 173.812 107.605 174.022C108.265 174.142 108.935 174.232 109.605 174.292C111.435 174.472 113.285 174.522 115.125 174.492C115.125 174.492 114.135 172.973 114.895 167.938H114.905Z" fill="#71AF35"/>
<path d="M125.804 15.2079H159.402C160.512 15.2079 161.402 16.1071 161.402 17.2061V21.9217H123.804V17.2061C123.804 16.1071 124.704 15.2079 125.804 15.2079Z" fill="#71AF35"/>
<path d="M140.293 79.1992V79.2292H145.443V79.1992H140.293Z" fill="#71AF35"/>
<path d="M174.642 79.1992V24.2396H110.675V79.1992H174.642ZM123.804 72.4854V30.9535H161.402V72.4854H123.804Z" fill="#71AF35"/>
<path d="M185.461 80.4581H179.891C180.101 96.7232 179.151 98.5115 174.742 98.8213C170.432 99.141 167.492 99.2409 163.402 98.9311C159.832 98.6114 158.672 97.8821 158.672 93.686V81.5471H145.433V97.8821C145.433 108.273 148.373 110.061 159.302 110.69C166.232 111.11 171.802 111.11 179.261 110.58C188.821 109.951 191.031 103.027 185.461 80.4581Z" fill="#71AF35"/>
<path d="M96.4954 109.531L98.2853 114.777C125.444 110.091 136.553 96.5733 139.843 81.5471H126.464C123.704 92.8967 115.664 103.147 96.4954 109.531Z" fill="#71AF35"/>
<path d="M203.18 183.124H214.43V199.369H209.18C205.87 199.369 203.18 196.682 203.18 193.375V183.124Z" fill="#71AF35"/>
<path d="M287.126 214.325H279.826V151.123H293.126V208.331C293.126 211.638 290.436 214.325 287.126 214.325Z" fill="#71AF35"/>
<path d="M240.068 196.202H246.068C249.218 196.202 252.038 194.234 253.118 191.267L261.127 169.277H249.878L240.068 196.202Z" fill="#71AF35"/>
<path d="M253.198 208.411H259.197C262.347 208.411 265.167 206.443 266.247 203.475L274.257 181.485H263.007L253.198 208.411Z" fill="#71AF35"/>
<path d="M278.657 157.637H278.587V159.945C278.617 159.176 278.637 158.407 278.657 157.637Z" fill="#71AF35"/>
<path d="M214.59 139.794L203.77 138.954C203.77 151.123 203.14 163.932 200.62 176.84L205.45 178.308C207.97 173.373 209.97 167.079 211.54 160.575H215V154.171H212.8C213.75 149.235 214.27 144.31 214.59 139.794Z" fill="#71AF35"/>
<path d="M250.928 151.133C253.138 144.939 254.708 138.755 255.548 133.609L243.048 131.721C242.308 140.113 240.838 150.194 238.008 159.845V154.181H229.609V132.77H217.319V139.424H217.329V229.432H229.709V160.585H237.798C236.539 164.891 234.959 169.087 232.969 172.973L237.278 175.911C241.588 171.505 245.368 164.791 248.408 157.647H276.257V151.143H250.928V151.133Z" fill="#71AF35"/>
<path d="M296.686 63.8933C292.436 63.8933 288.196 62.2747 284.966 59.0477C281.836 55.9206 280.106 51.7644 280.106 47.3384C280.106 42.9125 281.826 38.7563 284.966 35.6292C291.426 29.1751 301.945 29.1751 308.405 35.6292C311.535 38.7563 313.265 42.9125 313.265 47.3384C313.265 51.7644 311.545 55.9206 308.405 59.0477C305.175 62.2747 300.925 63.8933 296.686 63.8933ZM296.686 32.7818C292.956 32.7818 289.216 34.2005 286.376 37.0379C283.536 39.8753 282.106 43.442 282.106 47.3384C282.106 51.2349 283.626 54.8815 286.376 57.639C292.056 63.3138 301.305 63.3138 306.985 57.639C309.735 54.8915 311.255 51.2349 311.255 47.3384C311.255 43.442 309.735 39.7954 306.985 37.0379C304.235 34.2804 300.415 32.7818 296.676 32.7818H296.686Z" fill="#71AF35"/>
<path d="M286.379 35.6194L284.965 37.0324L306.991 59.0391L308.405 57.6262L286.379 35.6194Z" fill="#71AF35"/>
<path d="M297.066 46.7989H295.066V62.8842H297.066V46.7989Z" fill="#71AF35"/>
<path d="M374.262 95.9439H388.451L388.961 93.9058H376.292V91.8676H390.261C390.821 91.8676 391.281 92.3272 391.281 92.8867C391.281 92.9666 391.271 93.0565 391.251 93.1365L388.701 103.307C388.591 103.757 388.181 104.076 387.711 104.076H373.232C372.672 104.076 372.212 103.617 372.212 103.057V90.8486H370.172V88.8104H373.222C373.782 88.8104 374.242 89.27 374.242 89.8295V95.9339L374.262 95.9439ZM374.262 110.191C373.142 110.191 372.222 109.282 372.222 108.153C372.222 107.024 373.132 106.115 374.262 106.115C375.392 106.115 376.302 107.024 376.302 108.153C376.302 109.282 375.392 110.191 374.262 110.191ZM386.481 110.191C385.361 110.191 384.441 109.282 384.441 108.153C384.441 107.024 385.351 106.115 386.481 106.115C387.611 106.115 388.521 107.024 388.521 108.153C388.521 109.282 387.611 110.191 386.481 110.191Z" fill="#71AF35"/>
<path d="M216.09 54.0423C218.37 54.0423 220.17 54.6318 221.48 55.8007C222.8 56.9696 223.46 58.5082 223.46 60.3965C223.46 62.2847 222.8 63.8333 221.48 64.9823C220.16 66.1412 218.36 66.7207 216.09 66.7207H212.73V71.1366L214.86 71.5462V73.9341H206.62V71.5462L208.74 71.1366V56.8597L206.62 56.4501V54.0423H216.09ZM212.73 63.6435H216.09C217.2 63.6435 218.04 63.3438 218.61 62.7343C219.18 62.1249 219.46 61.3556 219.46 60.4165C219.46 59.4773 219.17 58.6681 218.61 58.0486C218.04 57.4292 217.2 57.1095 216.09 57.1095H212.73V63.6435Z" fill="#71AF35"/>
<path d="M224.789 66.411C224.789 64.203 225.409 62.4046 226.639 60.9959C227.869 59.5872 229.579 58.8879 231.759 58.8879C233.939 58.8879 235.659 59.5872 236.889 60.9959C238.119 62.3946 238.739 64.203 238.739 66.421V66.7107C238.739 68.9286 238.119 70.747 236.889 72.1357C235.649 73.5344 233.949 74.2338 231.779 74.2338C229.609 74.2338 227.869 73.5344 226.629 72.1357C225.389 70.737 224.779 68.9286 224.779 66.7107V66.421L224.789 66.411ZM228.779 66.7007C228.779 68.0495 229.019 69.1285 229.489 69.9477C229.959 70.767 230.729 71.1666 231.789 71.1666C232.849 71.1666 233.569 70.757 234.049 69.9377C234.529 69.1185 234.769 68.0395 234.769 66.7007V66.411C234.769 65.1022 234.529 64.0331 234.049 63.2039C233.569 62.3747 232.809 61.965 231.769 61.965C230.729 61.965 229.969 62.3846 229.499 63.2039C229.029 64.0331 228.789 65.1022 228.789 66.411V66.7007H228.779Z" fill="#71AF35"/>
<path d="M239.928 55.0314V52.6236H246.048V71.1366L247.978 71.5462V73.9341H240.128V71.5462L242.058 71.1366V55.441L239.928 55.0314Z" fill="#71AF35"/>
<path d="M249.298 71.5463L251.228 71.1366V61.975L249.098 61.5654V59.1576H255.218V71.1366L257.128 71.5463V73.9341H249.298V71.5463ZM255.218 55.6209H251.228V52.6336H255.218V55.6209Z" fill="#71AF35"/>
<path d="M265.528 71.1566C266.238 71.1566 266.808 70.9468 267.238 70.5372C267.668 70.1176 267.878 69.5681 267.878 68.8787H271.488L271.528 68.9586C271.568 70.4572 271.008 71.7061 269.848 72.7052C268.688 73.7143 267.248 74.2138 265.528 74.2138C263.318 74.2138 261.618 73.5144 260.428 72.1257C259.238 70.737 258.638 68.9386 258.638 66.7606V66.351C258.638 64.173 259.248 62.3846 260.478 60.9859C261.708 59.5872 263.448 58.8779 265.718 58.8779C266.908 58.8779 267.978 59.0577 268.928 59.4074C269.878 59.767 270.668 60.2666 271.298 60.906L271.348 64.8524H268.108L267.448 62.5445C267.248 62.3747 266.998 62.2248 266.708 62.1149C266.418 62.005 266.088 61.945 265.708 61.945C264.578 61.945 263.778 62.3547 263.318 63.1739C262.858 63.9932 262.618 65.0522 262.618 66.341V66.7506C262.618 68.0694 262.828 69.1385 263.258 69.9377C263.688 70.747 264.438 71.1466 265.518 71.1466L265.528 71.1566Z" fill="#71AF35"/>
<path d="M288.787 61.5554L287.407 61.7652L281.967 76.152C281.537 77.221 280.967 78.1102 280.247 78.8296C279.527 79.5489 278.457 79.9086 277.017 79.9086C276.677 79.9086 276.367 79.8786 276.067 79.8287C275.767 79.7787 275.417 79.6988 275.017 79.5989L275.477 76.6915C275.607 76.7115 275.737 76.7315 275.877 76.7415C276.017 76.7515 276.127 76.7715 276.237 76.7715C276.907 76.7715 277.417 76.6116 277.767 76.2819C278.117 75.9522 278.397 75.5526 278.587 75.073L279.037 73.954L274.347 61.7852L272.967 61.5654V59.1576H280.217V61.5654L278.567 61.8352L280.587 67.7397L280.797 68.8088H280.877L283.217 61.8451L281.547 61.5754V59.1676H288.797V61.5754L288.787 61.5554Z" fill="#71AF35"/>
<path d="M221.74 96.3635H218.75L218.23 93.636C217.88 93.4162 217.38 93.2264 216.71 93.0665C216.04 92.9067 215.34 92.8168 214.59 92.8168C213.5 92.8168 212.65 93.0465 212.05 93.5061C211.45 93.9657 211.15 94.5552 211.15 95.2845C211.15 95.9539 211.46 96.5134 212.09 96.943C212.71 97.3726 213.79 97.8322 215.32 98.3117C217.52 98.9212 219.18 99.7304 220.32 100.729C221.46 101.729 222.02 103.047 222.02 104.676C222.02 106.304 221.35 107.723 220 108.702C218.65 109.681 216.87 110.181 214.67 110.181C213.09 110.181 211.67 109.931 210.4 109.432C209.13 108.932 208.07 108.243 207.22 107.353V103.197H210.31L210.73 106.025C211.13 106.354 211.68 106.624 212.36 106.834C213.05 107.044 213.82 107.154 214.66 107.154C215.75 107.154 216.59 106.934 217.16 106.484C217.73 106.035 218.01 105.445 218.01 104.696C218.01 103.947 217.74 103.317 217.2 102.848C216.66 102.388 215.71 101.948 214.35 101.539C211.99 100.859 210.2 100.04 208.99 99.111C207.78 98.1718 207.17 96.893 207.17 95.2545C207.17 93.616 207.85 92.3272 209.22 91.2981C210.59 90.2691 212.3 89.7496 214.37 89.7196C215.9 89.7196 217.3 89.9494 218.55 90.4189C219.8 90.8885 220.86 91.498 221.72 92.2772V96.3435L221.74 96.3635Z" fill="#71AF35"/>
<path d="M230.909 110.191C228.779 110.191 227.069 109.511 225.799 108.143C224.519 106.774 223.889 105.046 223.889 102.937V102.388C223.889 100.19 224.489 98.3816 225.699 96.9629C226.909 95.5442 228.529 94.8349 230.559 94.8449C232.559 94.8449 234.109 95.4443 235.209 96.6432C236.309 97.8421 236.859 99.4706 236.859 101.519V103.687H228.029L227.999 103.767C228.069 104.746 228.399 105.545 228.979 106.174C229.559 106.804 230.339 107.114 231.339 107.114C232.219 107.114 232.959 107.024 233.539 106.844C234.119 106.664 234.759 106.384 235.449 106.005L236.529 108.462C235.919 108.942 235.129 109.352 234.159 109.681C233.189 110.011 232.109 110.171 230.909 110.171V110.191ZM230.549 97.9221C229.809 97.9221 229.229 98.2018 228.799 98.7713C228.369 99.3408 228.109 100.08 228.009 100.999L228.049 101.069H232.939V100.71C232.939 99.8603 232.739 99.1909 232.349 98.6814C231.959 98.1718 231.349 97.9221 230.549 97.9221Z" fill="#71AF35"/>
<path d="M238.458 90.9984V88.5906H244.578V107.104L246.508 107.513V109.901H238.658V107.513L240.589 107.104V91.408L238.458 90.9984Z" fill="#71AF35"/>
<path d="M255.038 110.191C252.908 110.191 251.198 109.511 249.928 108.143C248.648 106.774 248.018 105.046 248.018 102.937V102.388C248.018 100.19 248.618 98.3816 249.828 96.9629C251.038 95.5442 252.658 94.8349 254.688 94.8449C256.688 94.8449 258.238 95.4443 259.338 96.6432C260.438 97.8421 260.988 99.4706 260.988 101.519V103.687H252.158L252.128 103.767C252.198 104.746 252.528 105.545 253.108 106.174C253.688 106.804 254.468 107.114 255.468 107.114C256.348 107.114 257.088 107.024 257.668 106.844C258.248 106.664 258.888 106.384 259.578 106.005L260.658 108.462C260.048 108.942 259.258 109.352 258.288 109.681C257.318 110.011 256.238 110.171 255.038 110.171V110.191ZM254.678 97.9221C253.938 97.9221 253.358 98.2018 252.928 98.7713C252.498 99.3408 252.238 100.08 252.138 100.999L252.178 101.069H257.068V100.71C257.068 99.8603 256.868 99.1909 256.478 98.6814C256.088 98.1718 255.478 97.9221 254.678 97.9221Z" fill="#71AF35"/>
<path d="M269.957 107.124C270.667 107.124 271.237 106.914 271.667 106.504C272.097 106.085 272.307 105.535 272.307 104.846H275.917L275.957 104.926C275.997 106.424 275.437 107.673 274.277 108.672C273.117 109.681 271.677 110.181 269.957 110.181C267.747 110.181 266.047 109.481 264.857 108.093C263.667 106.704 263.067 104.906 263.067 102.728V102.318C263.067 100.14 263.677 98.3517 264.907 96.953C266.137 95.5542 267.877 94.8449 270.147 94.8449C271.337 94.8449 272.407 95.0247 273.357 95.3744C274.307 95.7341 275.097 96.2336 275.727 96.873L275.777 100.819H272.537L271.877 98.5115C271.677 98.3417 271.427 98.1918 271.137 98.0819C270.847 97.972 270.517 97.9121 270.137 97.9121C269.007 97.9121 268.207 98.3217 267.747 99.141C267.287 99.9602 267.047 101.019 267.047 102.308V102.718C267.047 104.036 267.257 105.105 267.687 105.905C268.117 106.714 268.867 107.114 269.947 107.114L269.957 107.124Z" fill="#71AF35"/>
<path d="M283.797 91.498V95.1146H286.397V97.9121H283.797V105.435C283.797 106.005 283.917 106.414 284.157 106.664C284.397 106.914 284.717 107.034 285.117 107.034C285.387 107.034 285.627 107.024 285.837 107.004C286.047 106.984 286.277 106.944 286.527 106.884L286.867 109.761C286.417 109.901 285.977 110.001 285.537 110.071C285.097 110.141 284.627 110.171 284.117 110.171C282.737 110.171 281.677 109.791 280.937 109.042C280.197 108.283 279.827 107.084 279.827 105.445V97.9021H277.657V95.1047H279.827V91.488H283.807L283.797 91.498Z" fill="#71AF35"/>
<path d="M310.516 96.3635H307.526L307.006 93.636C306.656 93.4162 306.156 93.2264 305.486 93.0665C304.816 92.9067 304.116 92.8168 303.366 92.8168C302.276 92.8168 301.426 93.0465 300.826 93.5061C300.226 93.9657 299.926 94.5552 299.926 95.2845C299.926 95.9539 300.236 96.5134 300.866 96.943C301.486 97.3726 302.566 97.8322 304.096 98.3117C306.296 98.9212 307.956 99.7304 309.096 100.729C310.236 101.729 310.796 103.047 310.796 104.676C310.796 106.304 310.126 107.723 308.776 108.702C307.426 109.681 305.646 110.181 303.446 110.181C301.866 110.181 300.446 109.931 299.176 109.432C297.906 108.932 296.846 108.243 295.996 107.353V103.197H299.086L299.506 106.025C299.906 106.354 300.456 106.624 301.136 106.834C301.826 107.044 302.596 107.154 303.436 107.154C304.526 107.154 305.366 106.934 305.936 106.484C306.506 106.035 306.786 105.445 306.786 104.696C306.786 103.947 306.516 103.317 305.976 102.848C305.436 102.388 304.486 101.948 303.126 101.539C300.766 100.859 298.976 100.04 297.766 99.111C296.556 98.1718 295.946 96.893 295.946 95.2545C295.946 93.616 296.626 92.3272 297.996 91.2981C299.366 90.2691 301.076 89.7496 303.146 89.7196C304.676 89.7196 306.076 89.9494 307.326 90.4189C308.576 90.8885 309.636 91.498 310.496 92.2772V96.3435L310.516 96.3635Z" fill="#71AF35"/>
<path d="M318.505 91.498V95.1146H321.105V97.9121H318.505V105.435C318.505 106.005 318.625 106.414 318.865 106.664C319.105 106.914 319.425 107.034 319.825 107.034C320.095 107.034 320.335 107.024 320.545 107.004C320.755 106.984 320.985 106.944 321.235 106.884L321.575 109.761C321.125 109.901 320.685 110.001 320.245 110.071C319.805 110.141 319.335 110.171 318.825 110.171C317.445 110.171 316.385 109.791 315.645 109.042C314.905 108.283 314.535 107.084 314.535 105.445V97.9021H312.365V95.1047H314.535V91.488H318.515L318.505 91.498Z" fill="#71AF35"/>
<path d="M322.784 102.378C322.784 100.17 323.404 98.3717 324.634 96.963C325.864 95.5542 327.574 94.8549 329.754 94.8549C331.934 94.8549 333.654 95.5542 334.884 96.963C336.114 98.3617 336.734 100.17 336.734 102.388V102.678C336.734 104.896 336.114 106.714 334.884 108.103C333.644 109.501 331.944 110.201 329.774 110.201C327.604 110.201 325.864 109.501 324.624 108.103C323.384 106.704 322.774 104.896 322.774 102.678V102.388L322.784 102.378ZM326.774 102.668C326.774 104.016 327.014 105.095 327.484 105.915C327.954 106.734 328.724 107.134 329.784 107.134C330.844 107.134 331.564 106.724 332.044 105.905C332.524 105.086 332.764 104.006 332.764 102.668V102.378C332.764 101.069 332.524 100 332.044 99.1709C331.564 98.3417 330.804 97.9321 329.764 97.9321C328.724 97.9321 327.964 98.3517 327.494 99.1709C327.024 100 326.784 101.069 326.784 102.378V102.668H326.774Z" fill="#71AF35"/>
<path d="M338.914 107.513L340.824 107.104V97.9421L338.704 97.5324V95.1246H344.544L344.724 97.2827C345.074 96.5134 345.514 95.9239 346.064 95.4943C346.614 95.0647 347.244 94.8549 347.964 94.8549C348.174 94.8549 348.394 94.8749 348.624 94.9048C348.854 94.9348 349.054 94.9748 349.204 95.0247L348.784 98.6614L347.144 98.6214C346.564 98.6214 346.074 98.7313 345.694 98.9611C345.314 99.1909 345.024 99.5106 344.814 99.9302V107.114L346.724 107.523V109.911H338.904V107.523L338.914 107.513Z" fill="#71AF35"/>
<path d="M357.363 110.191C355.233 110.191 353.523 109.511 352.253 108.143C350.973 106.774 350.343 105.046 350.343 102.937V102.388C350.343 100.19 350.943 98.3816 352.153 96.9629C353.363 95.5442 354.983 94.8349 357.013 94.8449C359.013 94.8449 360.563 95.4443 361.663 96.6432C362.763 97.8421 363.313 99.4706 363.313 101.519V103.687H354.483L354.453 103.767C354.523 104.746 354.853 105.545 355.433 106.174C356.013 106.804 356.793 107.114 357.793 107.114C358.673 107.114 359.413 107.024 359.993 106.844C360.573 106.664 361.213 106.384 361.903 106.005L362.983 108.462C362.373 108.942 361.583 109.352 360.613 109.681C359.643 110.011 358.563 110.171 357.363 110.171V110.191ZM357.003 97.9221C356.263 97.9221 355.683 98.2018 355.253 98.7713C354.823 99.3408 354.563 100.08 354.463 100.999L354.503 101.069H359.393V100.71C359.393 99.8603 359.193 99.1909 358.803 98.6814C358.413 98.1718 357.803 97.9221 357.003 97.9221Z" fill="#71AF35"/>
</g>
<path d="M411.001 160.972V162.981C411.001 172.662 405.591 177.068 398.921 177.068H397.001C397.321 173.961 398.161 172.202 400.621 170.024C401.831 168.955 401.741 168.565 401.131 168.685C396.921 170.164 394.951 173.961 394.881 179.705V180.075H392.861C392.861 178.706 392.981 177.457 393.211 176.318C392.981 175.02 392.861 173.251 392.861 171.023C392.861 165.468 397.371 160.962 402.931 160.962C404.941 160.962 406.961 161.972 410.991 160.962L411.001 160.972Z" fill="#052C44"/>
<path d="M323.634 175.459H334.334V193.193H323.634V199.697H334.334V207.15H346.623V169.055H323.634V175.459Z" fill="#052C44"/>
<path d="M321.184 189.526C321.184 189.127 321.204 188.717 321.204 188.307C321.214 187.578 321.234 186.859 321.244 186.119C321.254 185.45 321.264 184.761 321.274 184.081C321.274 183.582 321.284 183.082 321.294 182.573C321.304 181.374 321.314 180.155 321.314 178.916V157.296C329.824 156.556 340.854 154.878 349.363 151.841L339.914 141.031C334.034 145.337 325.734 149.323 319.015 151.631L308.195 149.003V179.336C308.195 212.605 307.775 224.674 301.785 236.953L306.405 240C316.065 229.51 319.535 216.282 320.694 199.697C320.814 198.068 321.034 194.492 321.124 192.713V192.613C321.154 191.594 321.174 190.565 321.194 189.526H321.184Z" fill="#052C44"/>
<path d="M321.274 184.081C321.274 184.761 321.254 185.45 321.244 186.119C321.254 185.45 321.264 184.761 321.274 184.081Z" fill="#052C44"/>
<path d="M321.314 178.916C321.314 180.155 321.314 181.374 321.294 182.573C321.304 181.374 321.314 180.155 321.314 178.916Z" fill="#052C44"/>
<path d="M321.204 188.307C321.204 188.717 321.194 189.127 321.184 189.526C321.184 189.127 321.204 188.717 321.204 188.307Z" fill="#052C44"/>
<path d="M366.142 177.347V183.951H374.672V238.531H387.381V183.951H397.041V177.347H366.142Z" fill="#052C44"/>
<path d="M363.852 157.406C372.882 156.876 386.541 154.778 395.361 151.421L386.011 140.191C379.182 144.917 369.622 149.213 362.272 151.521L350.723 149.103V181.843C350.723 207.24 348.513 221.827 338.744 236.203L342.733 239.88C358.043 227.152 363.392 208.879 363.812 185.49L363.842 157.396L363.852 157.406Z" fill="#052C44"/>
<path d="M50.5275 70.6253C46.1178 71.8841 40.658 73.2529 34.8783 74.6116V16.2651H52.3175V9.76105H2.0999V16.2651H22.2689V77.2392C20.169 77.6588 18.0691 78.0784 16.0692 78.3981V31.691H5.24974V80.1765L0 80.8059L1.81991 87.31C2.92986 91.2963 7.06966 93.6442 11.0595 92.5152C23.7388 88.9185 41.698 82.1347 52.5274 75.5607L50.5275 70.6253Z" fill="#052C44"/>
<path d="M46.3182 37.9952H37.1682V44.3993H46.3182V37.9952Z" fill="#052C44"/>
<path d="M75.3164 69.1566C82.876 56.9778 86.3458 42.9207 87.0758 28.7536H93.4855V22.2496H64.7069C67.1268 15.4259 68.9067 8.50221 69.9566 2.09808L56.1973 0C54.8274 15.8455 49.6876 41.0324 42.228 53.7307L46.8477 56.8779C49.8976 53.1013 52.8374 48.4856 55.5673 43.4402C56.9372 53.0913 59.2471 61.3837 62.497 68.6271C56.1973 78.0684 46.8477 86.5706 32.8784 93.7041L35.1883 98.8494C49.3676 94.3335 60.0771 87.31 67.9567 78.8078C71.8865 84.8422 76.5763 89.9076 81.946 94.2236C85.3659 96.9711 90.4056 96.2418 92.8755 92.6251L97.3653 86.0511C88.0157 81.2255 80.8761 75.7705 75.3064 69.1566H75.3164ZM68.0667 58.0368C64.7069 51.2131 62.287 43.1305 60.3971 33.5792C61.137 32.0007 61.767 30.3222 62.397 28.7536H73.9464C73.4164 39.1441 71.8465 48.9052 68.0667 58.0368Z" fill="#052C44"/>
<path d="M185.232 190.146H172.022V196.34H185.232V190.146Z" fill="#052C44"/>
<path d="M178.931 213.764L181.471 209.088C182.931 206.401 181.661 203.034 178.771 201.995C171.652 199.427 163.822 197.419 156.652 196.34L154.762 201.276C162.952 204.952 172.202 209.778 178.811 213.764C166.622 214.923 154.652 215.443 143.943 215.443C135.123 215.333 128.814 214.913 124.304 213.344C134.493 211.136 142.163 207.68 149.723 202.115L142.163 196.34H145.943V169.265H133.863V175.979H122.734V182.063H133.863V190.146H120.104V196.34H139.743C134.173 201.905 129.034 205.262 121.784 208.938L123.784 213.135C120.524 211.976 118.424 210.197 117.064 207.47V179.136H93.9554V185.54H104.245V208.839C100.985 213.035 96.2653 217.441 91.2156 221.217L95.3354 225.783C97.3753 228.041 100.915 227.951 102.885 225.643C106.475 221.457 109.645 216.691 111.905 211.876C117.054 222.266 127.134 225.523 143.413 226.153C156.032 226.662 171.762 226.572 183.741 225.883C184.251 225.853 184.681 225.503 184.821 225.014L188.361 212.815C185.211 213.135 182.061 213.554 178.911 213.764H178.931Z" fill="#052C44"/>
<path d="M181.452 175.979H172.022V182.063H181.452V175.979Z" fill="#052C44"/>
<path d="M157.612 182.063V190.146H148.273V196.34H156.662H169.702V190.146H169.692V182.063H169.702V175.979H169.692V169.155H157.612V175.979H148.273V182.063H157.612Z" fill="#052C44"/>
<path d="M137.543 167.167C141.923 167.167 145.123 166.927 147.783 165.608C150.643 164.189 151.283 160.363 149.193 157.945L147.093 155.517C144.463 158.455 142.893 158.665 138.693 158.665C132.813 158.665 131.974 158.245 131.974 155.408V153.409H149.303V136.405H121.884V156.347C121.884 166.108 125.454 167.157 137.533 167.157L137.543 167.167ZM131.974 142.09H140.063V147.655H131.974V142.09Z" fill="#052C44"/>
<path d="M168.742 167.267C172.462 167.267 176.211 167.067 179.361 165.678C182.411 164.339 183.191 160.353 180.991 157.845L178.931 155.507C176.301 158.445 174.312 158.655 170.002 158.655C164.012 158.655 162.962 158.445 162.962 155.398V153.399H181.031V136.395H152.883V155.917C152.883 166.517 156.982 167.247 168.742 167.247V167.267ZM162.962 142.08H171.572V147.645H162.962V142.08Z" fill="#052C44"/>
<path d="M113.735 143.738C113.835 143.329 113.915 142.899 113.945 142.459C113.945 142.449 113.945 142.439 113.945 142.429C113.965 142.19 113.985 141.95 113.985 141.71C113.985 136.974 110.145 133.138 105.405 133.138C100.665 133.138 96.8252 136.974 96.8252 141.71C96.8252 143.958 97.7352 146.156 99.3152 147.745C100.055 148.484 100.925 149.093 101.885 149.523C103.045 150.042 104.385 150.272 105.635 150.492C106.375 150.622 107.115 150.722 107.855 150.792C109.895 150.992 111.945 151.042 113.985 151.012C113.985 151.012 112.885 149.323 113.735 143.728V143.738Z" fill="#07D5DA"/>
<path d="M112.905 165.938C112.995 165.568 113.065 165.179 113.095 164.789C113.095 164.779 113.095 164.769 113.095 164.759C113.115 164.539 113.125 164.329 113.125 164.11C113.125 159.843 109.665 156.397 105.405 156.397C101.145 156.397 97.6852 159.853 97.6852 164.11C97.6852 166.138 98.4952 168.106 99.9252 169.545C100.595 170.214 101.375 170.753 102.235 171.143C103.275 171.613 104.485 171.812 105.605 172.022C106.265 172.142 106.935 172.232 107.605 172.292C109.435 172.472 111.285 172.522 113.125 172.492C113.125 172.492 112.135 170.973 112.895 165.938H112.905Z" fill="#07D5DA"/>
<path d="M123.804 13.2079H157.402C158.512 13.2079 159.402 14.1071 159.402 15.2061V19.9217H121.804V15.2061C121.804 14.1071 122.704 13.2079 123.804 13.2079Z" fill="#052C44"/>
<path d="M139.233 57.817H124.844V67.0785H156.122V57.817H143.143L139.233 63.4618V57.817Z" fill="#66CB00"/>
<path d="M150.483 47.2167L145.543 54.3502H156.123V45.0887H141.733V47.2167H150.483Z" fill="#66CB00"/>
<path d="M130.474 52.2221L135.414 45.0887H124.844V54.3502H139.234V52.2221H130.474Z" fill="#66CB00"/>
<path d="M141.733 41.6119H156.122V32.3603H124.844V41.6119H137.823L141.733 35.977V41.6119Z" fill="#66CB00"/>
<path d="M172.642 77.1992V22.2396H108.675V77.1992H172.642ZM121.804 70.4854V28.9535H159.402V70.4854H121.804Z" fill="#052C44"/>
<path d="M183.461 78.4581H177.891C178.101 94.7232 177.151 96.5115 172.742 96.8213C168.432 97.141 165.492 97.2409 161.402 96.9311C157.832 96.6114 156.672 95.8821 156.672 91.686V79.5471H143.433V95.8821C143.433 106.273 146.373 108.061 157.302 108.69C164.232 109.11 169.802 109.11 177.261 108.58C186.821 107.951 189.031 101.027 183.461 78.4581Z" fill="#052C44"/>
<path d="M94.4954 107.531L96.2853 112.777C123.444 108.091 134.553 94.5733 137.843 79.5471H124.464C121.704 90.8967 113.664 101.147 94.4954 107.531Z" fill="#052C44"/>
<path d="M201.18 181.124H212.43V197.369H207.18C203.87 197.369 201.18 194.682 201.18 191.375V181.124Z" fill="#052C44"/>
<path d="M285.126 212.325H277.826V149.123H291.126V206.331C291.126 209.638 288.436 212.325 285.126 212.325Z" fill="#052C44"/>
<path d="M238.068 194.202H244.068C247.218 194.202 250.038 192.234 251.118 189.267L259.127 167.277H247.878L238.068 194.202Z" fill="#FF8000"/>
<path d="M251.198 206.411H257.197C260.347 206.411 263.167 204.443 264.247 201.475L272.257 179.485H261.007L251.198 206.411Z" fill="#FF8000"/>
<path d="M212.59 137.794L201.77 136.954C201.77 149.123 201.14 161.932 198.62 174.84L203.45 176.308C205.97 171.373 207.97 165.079 209.54 158.575H213V152.171H210.8C211.75 147.235 212.27 142.31 212.59 137.794Z" fill="#052C44"/>
<path d="M248.928 149.133C251.138 142.939 252.708 136.755 253.548 131.609L241.048 129.721C240.308 138.113 238.838 148.194 236.008 157.845V152.181H227.609V130.77H215.319V137.424H215.329V227.432H227.709V158.585H235.798C234.539 162.891 232.959 167.087 230.969 170.973L235.278 173.911C239.588 169.505 243.368 162.791 246.408 155.647H274.257V149.143H248.928V149.133Z" fill="#052C44"/>
<path d="M294.686 61.8933C290.436 61.8933 286.196 60.2747 282.966 57.0477C279.836 53.9206 278.106 49.7644 278.106 45.3384C278.106 40.9125 279.826 36.7563 282.966 33.6292C289.426 27.1751 299.945 27.1751 306.405 33.6292C309.535 36.7563 311.265 40.9125 311.265 45.3384C311.265 49.7644 309.545 53.9206 306.405 57.0477C303.175 60.2747 298.925 61.8933 294.686 61.8933ZM294.686 30.7818C290.956 30.7818 287.216 32.2005 284.376 35.0379C281.536 37.8753 280.106 41.442 280.106 45.3384C280.106 49.2349 281.626 52.8815 284.376 55.639C290.056 61.3138 299.305 61.3138 304.985 55.639C307.735 52.8915 309.255 49.2349 309.255 45.3384C309.255 41.442 307.735 37.7954 304.985 35.0379C302.235 32.2804 298.415 30.7818 294.676 30.7818H294.686Z" fill="#FFA6A6"/>
<path d="M284.379 33.6194L282.965 35.0324L304.991 57.0391L306.405 55.6262L284.379 33.6194Z" fill="#FFA6A6"/>
<path d="M295.066 44.7989H293.066V60.8842H295.066V44.7989Z" fill="#FFA6A6"/>
<path d="M372.262 93.9439H386.451L386.961 91.9058H374.292V89.8676H388.261C388.821 89.8676 389.281 90.3272 389.281 90.8867C389.281 90.9666 389.271 91.0565 389.251 91.1365L386.701 101.307C386.591 101.757 386.181 102.076 385.711 102.076H371.232C370.672 102.076 370.212 101.617 370.212 101.057V88.8486H368.172V86.8104H371.222C371.782 86.8104 372.242 87.27 372.242 87.8295V93.9339L372.262 93.9439ZM372.262 108.191C371.142 108.191 370.222 107.282 370.222 106.153C370.222 105.024 371.132 104.115 372.262 104.115C373.392 104.115 374.302 105.024 374.302 106.153C374.302 107.282 373.392 108.191 372.262 108.191ZM384.481 108.191C383.361 108.191 382.441 107.282 382.441 106.153C382.441 105.024 383.351 104.115 384.481 104.115C385.611 104.115 386.521 105.024 386.521 106.153C386.521 107.282 385.611 108.191 384.481 108.191Z" fill="#052C44"/>
<path d="M214.09 52.0423C216.37 52.0423 218.17 52.6318 219.48 53.8007C220.8 54.9696 221.46 56.5082 221.46 58.3965C221.46 60.2847 220.8 61.8333 219.48 62.9823C218.16 64.1412 216.36 64.7207 214.09 64.7207H210.73V69.1366L212.86 69.5462V71.9341H204.62V69.5462L206.74 69.1366V54.8597L204.62 54.4501V52.0423H214.09ZM210.73 61.6435H214.09C215.2 61.6435 216.04 61.3438 216.61 60.7343C217.18 60.1249 217.46 59.3556 217.46 58.4165C217.46 57.4773 217.17 56.6681 216.61 56.0486C216.04 55.4292 215.2 55.1095 214.09 55.1095H210.73V61.6435Z" fill="#052C44"/>
<path d="M222.789 64.411C222.789 62.203 223.409 60.4046 224.639 58.9959C225.869 57.5872 227.579 56.8879 229.759 56.8879C231.939 56.8879 233.659 57.5872 234.889 58.9959C236.119 60.3946 236.739 62.203 236.739 64.421V64.7107C236.739 66.9286 236.119 68.747 234.889 70.1357C233.649 71.5344 231.949 72.2338 229.779 72.2338C227.609 72.2338 225.869 71.5344 224.629 70.1357C223.389 68.737 222.779 66.9286 222.779 64.7107V64.421L222.789 64.411ZM226.779 64.7007C226.779 66.0495 227.019 67.1285 227.489 67.9477C227.959 68.767 228.729 69.1666 229.789 69.1666C230.849 69.1666 231.569 68.757 232.049 67.9377C232.529 67.1185 232.769 66.0395 232.769 64.7007V64.411C232.769 63.1022 232.529 62.0331 232.049 61.2039C231.569 60.3747 230.809 59.965 229.769 59.965C228.729 59.965 227.969 60.3846 227.499 61.2039C227.029 62.0331 226.789 63.1022 226.789 64.411V64.7007H226.779Z" fill="#052C44"/>
<path d="M237.928 53.0314V50.6236H244.048V69.1366L245.978 69.5462V71.9341H238.128V69.5462L240.058 69.1366V53.441L237.928 53.0314Z" fill="#052C44"/>
<path d="M247.298 69.5463L249.228 69.1366V59.975L247.098 59.5654V57.1576H253.218V69.1366L255.128 69.5463V71.9341H247.298V69.5463ZM253.218 53.6209H249.228V50.6336H253.218V53.6209Z" fill="#052C44"/>
<path d="M263.528 69.1566C264.238 69.1566 264.808 68.9468 265.238 68.5372C265.668 68.1176 265.878 67.5681 265.878 66.8787H269.488L269.528 66.9586C269.568 68.4572 269.008 69.7061 267.848 70.7052C266.688 71.7143 265.248 72.2138 263.528 72.2138C261.318 72.2138 259.618 71.5144 258.428 70.1257C257.238 68.737 256.638 66.9386 256.638 64.7606V64.351C256.638 62.173 257.248 60.3846 258.478 58.9859C259.708 57.5872 261.448 56.8779 263.718 56.8779C264.908 56.8779 265.978 57.0577 266.928 57.4074C267.878 57.767 268.668 58.2666 269.298 58.906L269.348 62.8524H266.108L265.448 60.5445C265.248 60.3747 264.998 60.2248 264.708 60.1149C264.418 60.005 264.088 59.945 263.708 59.945C262.578 59.945 261.778 60.3547 261.318 61.1739C260.858 61.9932 260.618 63.0522 260.618 64.341V64.7506C260.618 66.0694 260.828 67.1385 261.258 67.9377C261.688 68.747 262.438 69.1466 263.518 69.1466L263.528 69.1566Z" fill="#052C44"/>
<path d="M286.787 59.5554L285.407 59.7652L279.967 74.152C279.537 75.221 278.967 76.1102 278.247 76.8296C277.527 77.5489 276.457 77.9086 275.017 77.9086C274.677 77.9086 274.367 77.8786 274.067 77.8287C273.767 77.7787 273.417 77.6988 273.017 77.5989L273.477 74.6915C273.607 74.7115 273.737 74.7315 273.877 74.7415C274.017 74.7515 274.127 74.7715 274.237 74.7715C274.907 74.7715 275.417 74.6116 275.767 74.2819C276.117 73.9522 276.397 73.5526 276.587 73.073L277.037 71.954L272.347 59.7852L270.967 59.5654V57.1576H278.217V59.5654L276.567 59.8352L278.587 65.7397L278.797 66.8088H278.877L281.217 59.8451L279.547 59.5754V57.1676H286.797V59.5754L286.787 59.5554Z" fill="#052C44"/>
<path d="M219.74 94.3635H216.75L216.23 91.636C215.88 91.4162 215.38 91.2264 214.71 91.0665C214.04 90.9067 213.34 90.8168 212.59 90.8168C211.5 90.8168 210.65 91.0465 210.05 91.5061C209.45 91.9657 209.15 92.5552 209.15 93.2845C209.15 93.9539 209.46 94.5134 210.09 94.943C210.71 95.3726 211.79 95.8322 213.32 96.3117C215.52 96.9212 217.18 97.7304 218.32 98.7295C219.46 99.7286 220.02 101.047 220.02 102.676C220.02 104.304 219.35 105.723 218 106.702C216.65 107.681 214.87 108.181 212.67 108.181C211.09 108.181 209.67 107.931 208.4 107.432C207.13 106.932 206.07 106.243 205.22 105.353V101.197H208.31L208.73 104.025C209.13 104.354 209.68 104.624 210.36 104.834C211.05 105.044 211.82 105.154 212.66 105.154C213.75 105.154 214.59 104.934 215.16 104.484C215.73 104.035 216.01 103.445 216.01 102.696C216.01 101.947 215.74 101.317 215.2 100.848C214.66 100.388 213.71 99.9484 212.35 99.5388C209.99 98.8594 208.2 98.0401 206.99 97.111C205.78 96.1718 205.17 94.893 205.17 93.2545C205.17 91.616 205.85 90.3272 207.22 89.2981C208.59 88.2691 210.3 87.7496 212.37 87.7196C213.9 87.7196 215.3 87.9494 216.55 88.4189C217.8 88.8885 218.86 89.498 219.72 90.2772V94.3435L219.74 94.3635Z" fill="#052C44"/>
<path d="M228.909 108.191C226.779 108.191 225.069 107.511 223.799 106.143C222.519 104.774 221.889 103.046 221.889 100.937V100.388C221.889 98.19 222.489 96.3816 223.699 94.9629C224.909 93.5442 226.529 92.8349 228.559 92.8449C230.559 92.8449 232.109 93.4443 233.209 94.6432C234.309 95.8421 234.859 97.4706 234.859 99.5188V101.687H226.029L225.999 101.767C226.069 102.746 226.399 103.545 226.979 104.174C227.559 104.804 228.339 105.114 229.339 105.114C230.219 105.114 230.959 105.024 231.539 104.844C232.119 104.664 232.759 104.384 233.449 104.005L234.529 106.462C233.919 106.942 233.129 107.352 232.159 107.681C231.189 108.011 230.109 108.171 228.909 108.171V108.191ZM228.549 95.9221C227.809 95.9221 227.229 96.2018 226.799 96.7713C226.369 97.3408 226.109 98.0801 226.009 98.9992L226.049 99.0692H230.939V98.7095C230.939 97.8603 230.739 97.1909 230.349 96.6814C229.959 96.1718 229.349 95.9221 228.549 95.9221Z" fill="#052C44"/>
<path d="M236.458 88.9984V86.5906H242.578V105.104L244.508 105.513V107.901H236.658V105.513L238.589 105.104V89.408L236.458 88.9984Z" fill="#052C44"/>
<path d="M253.038 108.191C250.908 108.191 249.198 107.511 247.928 106.143C246.648 104.774 246.018 103.046 246.018 100.937V100.388C246.018 98.19 246.618 96.3816 247.828 94.9629C249.038 93.5442 250.658 92.8349 252.688 92.8449C254.688 92.8449 256.238 93.4443 257.338 94.6432C258.438 95.8421 258.988 97.4706 258.988 99.5188V101.687H250.158L250.128 101.767C250.198 102.746 250.528 103.545 251.108 104.174C251.688 104.804 252.468 105.114 253.468 105.114C254.348 105.114 255.088 105.024 255.668 104.844C256.248 104.664 256.888 104.384 257.578 104.005L258.658 106.462C258.048 106.942 257.258 107.352 256.288 107.681C255.318 108.011 254.238 108.171 253.038 108.171V108.191ZM252.678 95.9221C251.938 95.9221 251.358 96.2018 250.928 96.7713C250.498 97.3408 250.238 98.0801 250.138 98.9992L250.178 99.0692H255.068V98.7095C255.068 97.8603 254.868 97.1909 254.478 96.6814C254.088 96.1718 253.478 95.9221 252.678 95.9221Z" fill="#052C44"/>
<path d="M267.957 105.124C268.667 105.124 269.237 104.914 269.667 104.504C270.097 104.085 270.307 103.535 270.307 102.846H273.917L273.957 102.926C273.997 104.424 273.437 105.673 272.277 106.672C271.117 107.681 269.677 108.181 267.957 108.181C265.747 108.181 264.047 107.481 262.857 106.093C261.667 104.704 261.067 102.906 261.067 100.728V100.318C261.067 98.14 261.677 96.3517 262.907 94.953C264.137 93.5542 265.877 92.8449 268.147 92.8449C269.337 92.8449 270.407 93.0247 271.357 93.3744C272.307 93.7341 273.097 94.2336 273.727 94.873L273.777 98.8194H270.537L269.877 96.5115C269.677 96.3417 269.427 96.1918 269.137 96.0819C268.847 95.972 268.517 95.9121 268.137 95.9121C267.007 95.9121 266.207 96.3217 265.747 97.141C265.287 97.9602 265.047 99.0192 265.047 100.308V100.718C265.047 102.036 265.257 103.105 265.687 103.905C266.117 104.714 266.867 105.114 267.947 105.114L267.957 105.124Z" fill="#052C44"/>
<path d="M281.797 89.498V93.1146H284.397V95.9121H281.797V103.435C281.797 104.005 281.917 104.414 282.157 104.664C282.397 104.914 282.717 105.034 283.117 105.034C283.387 105.034 283.627 105.024 283.837 105.004C284.047 104.984 284.277 104.944 284.527 104.884L284.867 107.761C284.417 107.901 283.977 108.001 283.537 108.071C283.097 108.141 282.627 108.171 282.117 108.171C280.737 108.171 279.677 107.791 278.937 107.042C278.197 106.283 277.827 105.084 277.827 103.445V95.9021H275.657V93.1047H277.827V89.488H281.807L281.797 89.498Z" fill="#052C44"/>
<path d="M308.516 94.3635H305.526L305.006 91.636C304.656 91.4162 304.156 91.2264 303.486 91.0665C302.816 90.9067 302.116 90.8168 301.366 90.8168C300.276 90.8168 299.426 91.0465 298.826 91.5061C298.226 91.9657 297.926 92.5552 297.926 93.2845C297.926 93.9539 298.236 94.5134 298.866 94.943C299.486 95.3726 300.566 95.8322 302.096 96.3117C304.296 96.9212 305.956 97.7304 307.096 98.7295C308.236 99.7286 308.796 101.047 308.796 102.676C308.796 104.304 308.126 105.723 306.776 106.702C305.426 107.681 303.646 108.181 301.446 108.181C299.866 108.181 298.446 107.931 297.176 107.432C295.906 106.932 294.846 106.243 293.996 105.353V101.197H297.086L297.506 104.025C297.906 104.354 298.456 104.624 299.136 104.834C299.826 105.044 300.596 105.154 301.436 105.154C302.526 105.154 303.366 104.934 303.936 104.484C304.506 104.035 304.786 103.445 304.786 102.696C304.786 101.947 304.516 101.317 303.976 100.848C303.436 100.388 302.486 99.9484 301.126 99.5388C298.766 98.8594 296.976 98.0401 295.766 97.111C294.556 96.1718 293.946 94.893 293.946 93.2545C293.946 91.616 294.626 90.3272 295.996 89.2981C297.366 88.2691 299.076 87.7496 301.146 87.7196C302.676 87.7196 304.076 87.9494 305.326 88.4189C306.576 88.8885 307.636 89.498 308.496 90.2772V94.3435L308.516 94.3635Z" fill="#052C44"/>
<path d="M316.505 89.498V93.1146H319.105V95.9121H316.505V103.435C316.505 104.005 316.625 104.414 316.865 104.664C317.105 104.914 317.425 105.034 317.825 105.034C318.095 105.034 318.335 105.024 318.545 105.004C318.755 104.984 318.985 104.944 319.235 104.884L319.575 107.761C319.125 107.901 318.685 108.001 318.245 108.071C317.805 108.141 317.335 108.171 316.825 108.171C315.445 108.171 314.385 107.791 313.645 107.042C312.905 106.283 312.535 105.084 312.535 103.445V95.9021H310.365V93.1047H312.535V89.488H316.515L316.505 89.498Z" fill="#052C44"/>
<path d="M320.784 100.378C320.784 98.17 321.404 96.3717 322.634 94.963C323.864 93.5542 325.574 92.8549 327.754 92.8549C329.934 92.8549 331.654 93.5542 332.884 94.963C334.114 96.3617 334.734 98.17 334.734 100.388V100.678C334.734 102.896 334.114 104.714 332.884 106.103C331.644 107.501 329.944 108.201 327.774 108.201C325.604 108.201 323.864 107.501 322.624 106.103C321.384 104.704 320.774 102.896 320.774 100.678V100.388L320.784 100.378ZM324.774 100.668C324.774 102.016 325.014 103.095 325.484 103.915C325.954 104.734 326.724 105.134 327.784 105.134C328.844 105.134 329.564 104.724 330.044 103.905C330.524 103.086 330.764 102.006 330.764 100.668V100.378C330.764 99.0692 330.524 98.0002 330.044 97.1709C329.564 96.3417 328.804 95.9321 327.764 95.9321C326.724 95.9321 325.964 96.3517 325.494 97.1709C325.024 98.0002 324.784 99.0692 324.784 100.378V100.668H324.774Z" fill="#052C44"/>
<path d="M336.914 105.513L338.824 105.104V95.9421L336.704 95.5324V93.1246H342.544L342.724 95.2827C343.074 94.5134 343.514 93.9239 344.064 93.4943C344.614 93.0647 345.244 92.8549 345.964 92.8549C346.174 92.8549 346.394 92.8749 346.624 92.9048C346.854 92.9348 347.054 92.9748 347.204 93.0247L346.784 96.6614L345.144 96.6214C344.564 96.6214 344.074 96.7313 343.694 96.9611C343.314 97.1909 343.024 97.5106 342.814 97.9302V105.114L344.724 105.523V107.911H336.904V105.523L336.914 105.513Z" fill="#052C44"/>
<path d="M355.363 108.191C353.233 108.191 351.523 107.511 350.253 106.143C348.973 104.774 348.343 103.046 348.343 100.937V100.388C348.343 98.19 348.943 96.3816 350.153 94.9629C351.363 93.5442 352.983 92.8349 355.013 92.8449C357.013 92.8449 358.563 93.4443 359.663 94.6432C360.763 95.8421 361.313 97.4706 361.313 99.5188V101.687H352.483L352.453 101.767C352.523 102.746 352.853 103.545 353.433 104.174C354.013 104.804 354.793 105.114 355.793 105.114C356.673 105.114 357.413 105.024 357.993 104.844C358.573 104.664 359.213 104.384 359.903 104.005L360.983 106.462C360.373 106.942 359.583 107.352 358.613 107.681C357.643 108.011 356.563 108.171 355.363 108.171V108.191ZM355.003 95.9221C354.263 95.9221 353.683 96.2018 353.253 96.7713C352.823 97.3408 352.563 98.0801 352.463 98.9992L352.503 99.0692H357.393V98.7095C357.393 97.8603 357.193 97.1909 356.803 96.6814C356.413 96.1718 355.803 95.9221 355.003 95.9221Z" fill="#052C44"/>
</svg>
