<svg width="14" height="12" viewBox="0 0 14 12" fill="none" xmlns="http://www.w3.org/2000/svg">
<path d="M4.59925 5.344L6.00725 0.255999H2.83925L0.98325 4.864C0.24725 6.624 0.11925 7.232 0.11925 8.064C0.11925 9.888 1.43125 11.136 3.22325 11.136C4.98325 11.136 6.29525 9.92 6.29525 8.064C6.29525 6.752 5.65525 5.792 4.59925 5.344ZM12.1513 5.344L13.5593 0.255999H10.3913L8.53525 4.864C7.79925 6.624 7.67125 7.232 7.67125 8.064C7.67125 9.888 8.98325 11.136 10.7753 11.136C12.5353 11.136 13.8473 9.92 13.8473 8.064C13.8473 6.752 13.2073 5.792 12.1513 5.344Z" fill="#71AF35"/>
</svg>
