<svg width="14" height="11" viewBox="0 0 14 11" fill="none" xmlns="http://www.w3.org/2000/svg">
<path d="M3.25525 -1.90735e-06C1.49525 -1.90735e-06 0.15125 1.216 0.15125 3.072C0.15125 4.416 0.82325 5.376 1.84725 5.824L0.47125 10.88H3.63925L5.49525 6.272C6.19925 4.512 6.32725 3.904 6.32725 3.072C6.32725 1.248 5.04725 -1.90735e-06 3.25525 -1.90735e-06ZM10.8073 -1.90735e-06C9.04725 -1.90735e-06 7.70325 1.216 7.70325 3.072C7.70325 4.416 8.37525 5.376 9.39925 5.824L8.02325 10.88H11.1913L13.0473 6.272C13.7513 4.512 13.8793 3.904 13.8793 3.072C13.8793 1.248 12.5993 -1.90735e-06 10.8073 -1.90735e-06Z" fill="#71AF35"/>
</svg>
